G04 Layer: TopSilkLayer*
G04 EasyEDA v6.4.20.6, 2021-08-18T22:46:37+02:00*
G04 e60a8e21afaf4db98b740634109285cb,0ed378226b2144edad32923a29bf2ba1,10*
G04 Gerber Generator version 0.2*
G04 Scale: 100 percent, Rotated: No, Reflected: No *
G04 Dimensions in millimeters *
G04 leading zeros omitted , absolute positions ,4 integer and 5 decimal *
%FSLAX45Y45*%
%MOMM*%

%ADD10C,0.2540*%
%ADD12C,0.4000*%
%ADD33C,0.2000*%
%ADD34C,0.1200*%
%ADD35C,0.3000*%
%ADD36C,0.2489*%
%ADD37C,0.2030*%
%ADD38C,0.2032*%
%ADD39C,0.1524*%

%LPD*%
D37*
X206857Y-1766163D02*
G01*
X203301Y-1759051D01*
X195935Y-1751685D01*
X188823Y-1748129D01*
X174091Y-1748129D01*
X166979Y-1751685D01*
X159613Y-1759051D01*
X156057Y-1766163D01*
X152501Y-1777085D01*
X152501Y-1795373D01*
X156057Y-1806295D01*
X159613Y-1813407D01*
X166979Y-1820773D01*
X174091Y-1824329D01*
X188823Y-1824329D01*
X195935Y-1820773D01*
X203301Y-1813407D01*
X206857Y-1806295D01*
X206857Y-1795373D01*
X188823Y-1795373D02*
G01*
X206857Y-1795373D01*
X230987Y-1748129D02*
G01*
X230987Y-1824329D01*
X230987Y-1748129D02*
G01*
X281787Y-1824329D01*
X281787Y-1748129D02*
G01*
X281787Y-1824329D01*
X305917Y-1748129D02*
G01*
X305917Y-1824329D01*
X305917Y-1748129D02*
G01*
X331317Y-1748129D01*
X342239Y-1751685D01*
X349605Y-1759051D01*
X353161Y-1766163D01*
X356717Y-1777085D01*
X356717Y-1795373D01*
X353161Y-1806295D01*
X349605Y-1813407D01*
X342239Y-1820773D01*
X331317Y-1824329D01*
X305917Y-1824329D01*
X-152298Y-1873351D02*
G01*
X-159664Y-1865985D01*
X-170586Y-1862429D01*
X-185064Y-1862429D01*
X-195986Y-1865985D01*
X-203098Y-1873351D01*
X-203098Y-1880463D01*
X-199542Y-1887829D01*
X-195986Y-1891385D01*
X-188620Y-1895195D01*
X-166776Y-1902307D01*
X-159664Y-1906117D01*
X-155854Y-1909673D01*
X-152298Y-1917039D01*
X-152298Y-1927707D01*
X-159664Y-1935073D01*
X-170586Y-1938629D01*
X-185064Y-1938629D01*
X-195986Y-1935073D01*
X-203098Y-1927707D01*
X-128168Y-1862429D02*
G01*
X-110134Y-1938629D01*
X-91846Y-1862429D02*
G01*
X-110134Y-1938629D01*
X-91846Y-1862429D02*
G01*
X-73812Y-1938629D01*
X-55524Y-1862429D02*
G01*
X-73812Y-1938629D01*
X-31648Y-1862429D02*
G01*
X-31648Y-1938629D01*
X-31648Y-1862429D02*
G01*
X-5994Y-1862429D01*
X4673Y-1865985D01*
X12039Y-1873351D01*
X15595Y-1880463D01*
X19405Y-1891385D01*
X19405Y-1909673D01*
X15595Y-1920595D01*
X12039Y-1927707D01*
X4673Y-1935073D01*
X-5994Y-1938629D01*
X-31648Y-1938629D01*
X97891Y-1880463D02*
G01*
X94335Y-1873351D01*
X86969Y-1865985D01*
X79603Y-1862429D01*
X65125Y-1862429D01*
X58013Y-1865985D01*
X50647Y-1873351D01*
X47091Y-1880463D01*
X43281Y-1891385D01*
X43281Y-1909673D01*
X47091Y-1920595D01*
X50647Y-1927707D01*
X58013Y-1935073D01*
X65125Y-1938629D01*
X79603Y-1938629D01*
X86969Y-1935073D01*
X94335Y-1927707D01*
X97891Y-1920595D01*
X121767Y-1862429D02*
G01*
X121767Y-1938629D01*
X121767Y-1938629D02*
G01*
X165455Y-1938629D01*
X189585Y-1862429D02*
G01*
X189585Y-1938629D01*
X240385Y-1862429D02*
G01*
X189585Y-1913229D01*
X207619Y-1895195D02*
G01*
X240385Y-1938629D01*
X-355498Y-1759051D02*
G01*
X-362864Y-1751685D01*
X-373786Y-1748129D01*
X-388264Y-1748129D01*
X-399186Y-1751685D01*
X-406298Y-1759051D01*
X-406298Y-1766163D01*
X-402742Y-1773529D01*
X-399186Y-1777085D01*
X-391820Y-1780895D01*
X-369976Y-1788007D01*
X-362864Y-1791817D01*
X-359054Y-1795373D01*
X-355498Y-1802739D01*
X-355498Y-1813407D01*
X-362864Y-1820773D01*
X-373786Y-1824329D01*
X-388264Y-1824329D01*
X-399186Y-1820773D01*
X-406298Y-1813407D01*
X-331368Y-1748129D02*
G01*
X-313334Y-1824329D01*
X-295046Y-1748129D02*
G01*
X-313334Y-1824329D01*
X-295046Y-1748129D02*
G01*
X-277012Y-1824329D01*
X-258724Y-1748129D02*
G01*
X-277012Y-1824329D01*
X-234848Y-1748129D02*
G01*
X-234848Y-1824329D01*
X-234848Y-1748129D02*
G01*
X-209194Y-1748129D01*
X-198526Y-1751685D01*
X-191160Y-1759051D01*
X-187604Y-1766163D01*
X-183794Y-1777085D01*
X-183794Y-1795373D01*
X-187604Y-1806295D01*
X-191160Y-1813407D01*
X-198526Y-1820773D01*
X-209194Y-1824329D01*
X-234848Y-1824329D01*
X-159918Y-1748129D02*
G01*
X-159918Y-1824329D01*
X-113944Y-1748129D02*
G01*
X-121310Y-1751685D01*
X-128676Y-1759051D01*
X-132232Y-1766163D01*
X-135788Y-1777085D01*
X-135788Y-1795373D01*
X-132232Y-1806295D01*
X-128676Y-1813407D01*
X-121310Y-1820773D01*
X-113944Y-1824329D01*
X-99466Y-1824329D01*
X-92100Y-1820773D01*
X-84988Y-1813407D01*
X-81432Y-1806295D01*
X-77622Y-1795373D01*
X-77622Y-1777085D01*
X-81432Y-1766163D01*
X-84988Y-1759051D01*
X-92100Y-1751685D01*
X-99466Y-1748129D01*
X-113944Y-1748129D01*
X-602386Y-1849729D02*
G01*
X-562254Y-1849729D01*
X-584098Y-1878685D01*
X-573176Y-1878685D01*
X-566064Y-1882495D01*
X-562254Y-1886051D01*
X-558698Y-1896973D01*
X-558698Y-1904339D01*
X-562254Y-1915007D01*
X-569620Y-1922373D01*
X-580542Y-1925929D01*
X-591464Y-1925929D01*
X-602386Y-1922373D01*
X-605942Y-1918817D01*
X-609498Y-1911451D01*
X-534568Y-1849729D02*
G01*
X-505612Y-1925929D01*
X-476402Y-1849729D02*
G01*
X-505612Y-1925929D01*
X-445160Y-1849729D02*
G01*
X-405282Y-1849729D01*
X-427126Y-1878685D01*
X-416204Y-1878685D01*
X-408838Y-1882495D01*
X-405282Y-1886051D01*
X-401726Y-1896973D01*
X-401726Y-1904339D01*
X-405282Y-1915007D01*
X-412394Y-1922373D01*
X-423316Y-1925929D01*
X-434238Y-1925929D01*
X-445160Y-1922373D01*
X-448970Y-1918817D01*
X-452526Y-1911451D01*
X-876198Y-1748129D02*
G01*
X-876198Y-1824329D01*
X-876198Y-1748129D02*
G01*
X-825398Y-1824329D01*
X-825398Y-1748129D02*
G01*
X-825398Y-1824329D01*
X-801268Y-1748129D02*
G01*
X-801268Y-1824329D01*
X-801268Y-1748129D02*
G01*
X-768756Y-1748129D01*
X-757834Y-1751685D01*
X-754024Y-1755241D01*
X-750468Y-1762607D01*
X-750468Y-1769973D01*
X-754024Y-1777085D01*
X-757834Y-1780895D01*
X-768756Y-1784451D01*
X-801268Y-1784451D01*
X-775868Y-1784451D02*
G01*
X-750468Y-1824329D01*
X-675538Y-1759051D02*
G01*
X-682904Y-1751685D01*
X-693826Y-1748129D01*
X-708304Y-1748129D01*
X-719226Y-1751685D01*
X-726592Y-1759051D01*
X-726592Y-1766163D01*
X-722782Y-1773529D01*
X-719226Y-1777085D01*
X-711860Y-1780895D01*
X-690016Y-1788007D01*
X-682904Y-1791817D01*
X-679094Y-1795373D01*
X-675538Y-1802739D01*
X-675538Y-1813407D01*
X-682904Y-1820773D01*
X-693826Y-1824329D01*
X-708304Y-1824329D01*
X-719226Y-1820773D01*
X-726592Y-1813407D01*
X-626008Y-1748129D02*
G01*
X-626008Y-1824329D01*
X-651662Y-1748129D02*
G01*
X-600608Y-1748129D01*
D38*
X-2527198Y-1085443D02*
G01*
X-2527198Y-1199997D01*
X-2527198Y-1085443D02*
G01*
X-2478176Y-1085443D01*
X-2461920Y-1090777D01*
X-2456332Y-1096365D01*
X-2450998Y-1107287D01*
X-2450998Y-1123543D01*
X-2456332Y-1134465D01*
X-2461920Y-1140053D01*
X-2478176Y-1145387D01*
X-2527198Y-1145387D01*
X-2414930Y-1085443D02*
G01*
X-2414930Y-1199997D01*
X-2414930Y-1085443D02*
G01*
X-2365908Y-1085443D01*
X-2349398Y-1090777D01*
X-2344064Y-1096365D01*
X-2338476Y-1107287D01*
X-2338476Y-1118209D01*
X-2344064Y-1129131D01*
X-2349398Y-1134465D01*
X-2365908Y-1140053D01*
X-2414930Y-1140053D02*
G01*
X-2365908Y-1140053D01*
X-2349398Y-1145387D01*
X-2344064Y-1150975D01*
X-2338476Y-1161897D01*
X-2338476Y-1178153D01*
X-2344064Y-1189075D01*
X-2349398Y-1194409D01*
X-2365908Y-1199997D01*
X-2414930Y-1199997D01*
X-2302662Y-1107287D02*
G01*
X-2291740Y-1101699D01*
X-2275230Y-1085443D01*
X-2275230Y-1199997D01*
X-2184806Y-1085443D02*
G01*
X-2239416Y-1161897D01*
X-2157374Y-1161897D01*
X-2184806Y-1085443D02*
G01*
X-2184806Y-1199997D01*
X-2527198Y-844143D02*
G01*
X-2527198Y-958697D01*
X-2527198Y-844143D02*
G01*
X-2478176Y-844143D01*
X-2461920Y-849477D01*
X-2456332Y-855065D01*
X-2450998Y-865987D01*
X-2450998Y-882243D01*
X-2456332Y-893165D01*
X-2461920Y-898753D01*
X-2478176Y-904087D01*
X-2527198Y-904087D01*
X-2414930Y-844143D02*
G01*
X-2414930Y-958697D01*
X-2414930Y-844143D02*
G01*
X-2365908Y-844143D01*
X-2349398Y-849477D01*
X-2344064Y-855065D01*
X-2338476Y-865987D01*
X-2338476Y-876909D01*
X-2344064Y-887831D01*
X-2349398Y-893165D01*
X-2365908Y-898753D01*
X-2414930Y-898753D02*
G01*
X-2365908Y-898753D01*
X-2349398Y-904087D01*
X-2344064Y-909675D01*
X-2338476Y-920597D01*
X-2338476Y-936853D01*
X-2344064Y-947775D01*
X-2349398Y-953109D01*
X-2365908Y-958697D01*
X-2414930Y-958697D01*
X-2302662Y-865987D02*
G01*
X-2291740Y-860399D01*
X-2275230Y-844143D01*
X-2275230Y-958697D01*
X-2228494Y-844143D02*
G01*
X-2168296Y-844143D01*
X-2201062Y-887831D01*
X-2184806Y-887831D01*
X-2173884Y-893165D01*
X-2168296Y-898753D01*
X-2162962Y-915009D01*
X-2162962Y-925931D01*
X-2168296Y-942187D01*
X-2179218Y-953109D01*
X-2195728Y-958697D01*
X-2211984Y-958697D01*
X-2228494Y-953109D01*
X-2233828Y-947775D01*
X-2239416Y-936853D01*
X-2527198Y-577443D02*
G01*
X-2527198Y-691997D01*
X-2527198Y-577443D02*
G01*
X-2478176Y-577443D01*
X-2461920Y-582777D01*
X-2456332Y-588365D01*
X-2450998Y-599287D01*
X-2450998Y-615543D01*
X-2456332Y-626465D01*
X-2461920Y-632053D01*
X-2478176Y-637387D01*
X-2527198Y-637387D01*
X-2414930Y-577443D02*
G01*
X-2414930Y-691997D01*
X-2414930Y-577443D02*
G01*
X-2365908Y-577443D01*
X-2349398Y-582777D01*
X-2344064Y-588365D01*
X-2338476Y-599287D01*
X-2338476Y-610209D01*
X-2344064Y-621131D01*
X-2349398Y-626465D01*
X-2365908Y-632053D01*
X-2414930Y-632053D02*
G01*
X-2365908Y-632053D01*
X-2349398Y-637387D01*
X-2344064Y-642975D01*
X-2338476Y-653897D01*
X-2338476Y-670153D01*
X-2344064Y-681075D01*
X-2349398Y-686409D01*
X-2365908Y-691997D01*
X-2414930Y-691997D01*
X-2302662Y-599287D02*
G01*
X-2291740Y-593699D01*
X-2275230Y-577443D01*
X-2275230Y-691997D01*
X-2233828Y-604621D02*
G01*
X-2233828Y-599287D01*
X-2228494Y-588365D01*
X-2222906Y-582777D01*
X-2211984Y-577443D01*
X-2190140Y-577443D01*
X-2179218Y-582777D01*
X-2173884Y-588365D01*
X-2168296Y-599287D01*
X-2168296Y-610209D01*
X-2173884Y-621131D01*
X-2184806Y-637387D01*
X-2239416Y-691997D01*
X-2162962Y-691997D01*
D37*
X-1393342Y672084D02*
G01*
X-1396898Y679450D01*
X-1404264Y686815D01*
X-1411376Y690372D01*
X-1426108Y690372D01*
X-1433220Y686815D01*
X-1440586Y679450D01*
X-1444142Y672084D01*
X-1447698Y661162D01*
X-1447698Y643128D01*
X-1444142Y632206D01*
X-1440586Y624840D01*
X-1433220Y617474D01*
X-1426108Y613918D01*
X-1411376Y613918D01*
X-1404264Y617474D01*
X-1396898Y624840D01*
X-1393342Y632206D01*
X-1393342Y643128D01*
X-1411376Y643128D02*
G01*
X-1393342Y643128D01*
X-1369212Y690372D02*
G01*
X-1369212Y613918D01*
X-1369212Y690372D02*
G01*
X-1318412Y613918D01*
X-1318412Y690372D02*
G01*
X-1318412Y613918D01*
X-1294282Y690372D02*
G01*
X-1294282Y613918D01*
X-1294282Y690372D02*
G01*
X-1268882Y690372D01*
X-1257960Y686815D01*
X-1250594Y679450D01*
X-1247038Y672084D01*
X-1243482Y661162D01*
X-1243482Y643128D01*
X-1247038Y632206D01*
X-1250594Y624840D01*
X-1257960Y617474D01*
X-1268882Y613918D01*
X-1294282Y613918D01*
X-164998Y969772D02*
G01*
X-164998Y893318D01*
X-164998Y969772D02*
G01*
X-132486Y969772D01*
X-121564Y966215D01*
X-117754Y962406D01*
X-114198Y955294D01*
X-114198Y947928D01*
X-117754Y940562D01*
X-121564Y937006D01*
X-132486Y933450D01*
X-164998Y933450D02*
G01*
X-132486Y933450D01*
X-121564Y929640D01*
X-117754Y926084D01*
X-114198Y918718D01*
X-114198Y907796D01*
X-117754Y900684D01*
X-121564Y896874D01*
X-132486Y893318D01*
X-164998Y893318D01*
X-68478Y969772D02*
G01*
X-75590Y966215D01*
X-82956Y958850D01*
X-86512Y951484D01*
X-90068Y940562D01*
X-90068Y922528D01*
X-86512Y911606D01*
X-82956Y904240D01*
X-75590Y896874D01*
X-68478Y893318D01*
X-53746Y893318D01*
X-46634Y896874D01*
X-39268Y904240D01*
X-35712Y911606D01*
X-31902Y922528D01*
X-31902Y940562D01*
X-35712Y951484D01*
X-39268Y958850D01*
X-46634Y966215D01*
X-53746Y969772D01*
X-68478Y969772D01*
X13817Y969772D02*
G01*
X6451Y966215D01*
X-660Y958850D01*
X-4470Y951484D01*
X-8026Y940562D01*
X-8026Y922528D01*
X-4470Y911606D01*
X-660Y904240D01*
X6451Y896874D01*
X13817Y893318D01*
X28295Y893318D01*
X35661Y896874D01*
X42773Y904240D01*
X46583Y911606D01*
X50139Y922528D01*
X50139Y940562D01*
X46583Y951484D01*
X42773Y958850D01*
X35661Y966215D01*
X28295Y969772D01*
X13817Y969772D01*
X99669Y969772D02*
G01*
X99669Y893318D01*
X74269Y969772D02*
G01*
X125069Y969772D01*
X-1155598Y690410D02*
G01*
X-1155598Y613956D01*
X-1155598Y690410D02*
G01*
X-1108354Y690410D01*
X-1155598Y654088D02*
G01*
X-1126642Y654088D01*
X-1155598Y613956D02*
G01*
X-1108354Y613956D01*
X-1084478Y690410D02*
G01*
X-1084478Y613956D01*
X-1084478Y690410D02*
G01*
X-1033424Y613956D01*
X-1033424Y690410D02*
G01*
X-1033424Y613956D01*
X-698398Y690372D02*
G01*
X-698398Y613918D01*
X-698398Y690372D02*
G01*
X-665886Y690372D01*
X-654964Y686815D01*
X-651154Y683006D01*
X-647598Y675894D01*
X-647598Y668528D01*
X-651154Y661162D01*
X-654964Y657606D01*
X-665886Y654050D01*
X-698398Y654050D01*
X-672998Y654050D02*
G01*
X-647598Y613918D01*
X-623468Y690372D02*
G01*
X-572668Y613918D01*
X-572668Y690372D02*
G01*
X-623468Y613918D01*
D38*
X-2514600Y1242466D02*
G01*
X-2514600Y1127912D01*
X-2445765Y1242466D02*
G01*
X-2456688Y1236878D01*
X-2467610Y1225956D01*
X-2473197Y1215034D01*
X-2478531Y1198778D01*
X-2478531Y1171600D01*
X-2473197Y1155090D01*
X-2467610Y1144168D01*
X-2456688Y1133246D01*
X-2445765Y1127912D01*
X-2424176Y1127912D01*
X-2413254Y1133246D01*
X-2402331Y1144168D01*
X-2396744Y1155090D01*
X-2391410Y1171600D01*
X-2391410Y1198778D01*
X-2396744Y1215034D01*
X-2402331Y1225956D01*
X-2413254Y1236878D01*
X-2424176Y1242466D01*
X-2445765Y1242466D01*
X-2349754Y1215034D02*
G01*
X-2349754Y1220622D01*
X-2344420Y1231544D01*
X-2339086Y1236878D01*
X-2328164Y1242466D01*
X-2306320Y1242466D01*
X-2295397Y1236878D01*
X-2289810Y1231544D01*
X-2284476Y1220622D01*
X-2284476Y1209700D01*
X-2289810Y1198778D01*
X-2300731Y1182522D01*
X-2355342Y1127912D01*
X-2278888Y1127912D01*
X-2177542Y1225956D02*
G01*
X-2182876Y1236878D01*
X-2199386Y1242466D01*
X-2210308Y1242466D01*
X-2226564Y1236878D01*
X-2237486Y1220622D01*
X-2243074Y1193190D01*
X-2243074Y1166012D01*
X-2237486Y1144168D01*
X-2226564Y1133246D01*
X-2210308Y1127912D01*
X-2204720Y1127912D01*
X-2188464Y1133246D01*
X-2177542Y1144168D01*
X-2171954Y1160678D01*
X-2171954Y1166012D01*
X-2177542Y1182522D01*
X-2188464Y1193190D01*
X-2204720Y1198778D01*
X-2210308Y1198778D01*
X-2226564Y1193190D01*
X-2237486Y1182522D01*
X-2243074Y1166012D01*
X-2514600Y1486306D02*
G01*
X-2514600Y1381404D01*
X-2451608Y1486306D02*
G01*
X-2461514Y1481226D01*
X-2471674Y1471320D01*
X-2476500Y1461414D01*
X-2481580Y1446428D01*
X-2481580Y1421282D01*
X-2476500Y1406296D01*
X-2471674Y1396390D01*
X-2461514Y1386230D01*
X-2451608Y1381404D01*
X-2431542Y1381404D01*
X-2421636Y1386230D01*
X-2411476Y1396390D01*
X-2406650Y1406296D01*
X-2401570Y1421282D01*
X-2401570Y1446428D01*
X-2406650Y1461414D01*
X-2411476Y1471320D01*
X-2421636Y1481226D01*
X-2431542Y1486306D01*
X-2451608Y1486306D01*
X-2363724Y1461414D02*
G01*
X-2363724Y1466240D01*
X-2358644Y1476400D01*
X-2353564Y1481226D01*
X-2343658Y1486306D01*
X-2323592Y1486306D01*
X-2313686Y1481226D01*
X-2308606Y1476400D01*
X-2303526Y1466240D01*
X-2303526Y1456334D01*
X-2308606Y1446428D01*
X-2318512Y1431188D01*
X-2368550Y1381404D01*
X-2298700Y1381404D01*
X-2205481Y1486306D02*
G01*
X-2255520Y1486306D01*
X-2260600Y1441348D01*
X-2255520Y1446428D01*
X-2240534Y1451254D01*
X-2225547Y1451254D01*
X-2210562Y1446428D01*
X-2200656Y1436268D01*
X-2195576Y1421282D01*
X-2195576Y1411376D01*
X-2200656Y1396390D01*
X-2210562Y1386230D01*
X-2225547Y1381404D01*
X-2240534Y1381404D01*
X-2255520Y1386230D01*
X-2260600Y1391310D01*
X-2265680Y1401216D01*
D37*
X-2514600Y2245766D02*
G01*
X-2514600Y2131212D01*
X-2445765Y2245766D02*
G01*
X-2456688Y2240178D01*
X-2467610Y2229256D01*
X-2473197Y2218334D01*
X-2478531Y2202078D01*
X-2478531Y2174900D01*
X-2473197Y2158390D01*
X-2467610Y2147468D01*
X-2456688Y2136546D01*
X-2445765Y2131212D01*
X-2424176Y2131212D01*
X-2413254Y2136546D01*
X-2402331Y2147468D01*
X-2396744Y2158390D01*
X-2391410Y2174900D01*
X-2391410Y2202078D01*
X-2396744Y2218334D01*
X-2402331Y2229256D01*
X-2413254Y2240178D01*
X-2424176Y2245766D01*
X-2445765Y2245766D01*
X-2344420Y2245766D02*
G01*
X-2284476Y2245766D01*
X-2317242Y2202078D01*
X-2300731Y2202078D01*
X-2289810Y2196490D01*
X-2284476Y2191156D01*
X-2278888Y2174900D01*
X-2278888Y2163978D01*
X-2284476Y2147468D01*
X-2295397Y2136546D01*
X-2311654Y2131212D01*
X-2328164Y2131212D01*
X-2344420Y2136546D01*
X-2349754Y2142134D01*
X-2355342Y2153056D01*
X-2188464Y2245766D02*
G01*
X-2243074Y2169312D01*
X-2161031Y2169312D01*
X-2188464Y2245766D02*
G01*
X-2188464Y2131212D01*
D38*
X-2514600Y984757D02*
G01*
X-2514600Y870204D01*
X-2445765Y984757D02*
G01*
X-2456688Y979170D01*
X-2467610Y968248D01*
X-2473197Y957326D01*
X-2478531Y941070D01*
X-2478531Y913892D01*
X-2473197Y897382D01*
X-2467610Y886460D01*
X-2456688Y875538D01*
X-2445765Y870204D01*
X-2424176Y870204D01*
X-2413254Y875538D01*
X-2402331Y886460D01*
X-2396744Y897382D01*
X-2391410Y913892D01*
X-2391410Y941070D01*
X-2396744Y957326D01*
X-2402331Y968248D01*
X-2413254Y979170D01*
X-2424176Y984757D01*
X-2445765Y984757D01*
X-2349754Y957326D02*
G01*
X-2349754Y962914D01*
X-2344420Y973836D01*
X-2339086Y979170D01*
X-2328164Y984757D01*
X-2306320Y984757D01*
X-2295397Y979170D01*
X-2289810Y973836D01*
X-2284476Y962914D01*
X-2284476Y951992D01*
X-2289810Y941070D01*
X-2300731Y924814D01*
X-2355342Y870204D01*
X-2278888Y870204D01*
X-2166620Y984757D02*
G01*
X-2221230Y870204D01*
X-2243074Y984757D02*
G01*
X-2166620Y984757D01*
D37*
X-914298Y690372D02*
G01*
X-914298Y613918D01*
X-939698Y690372D02*
G01*
X-888898Y690372D01*
X-864768Y690372D02*
G01*
X-813968Y613918D01*
X-813968Y690372D02*
G01*
X-864768Y613918D01*
X-2514600Y1737766D02*
G01*
X-2514600Y1623212D01*
X-2445765Y1737766D02*
G01*
X-2456688Y1732178D01*
X-2467610Y1721256D01*
X-2473197Y1710334D01*
X-2478531Y1694078D01*
X-2478531Y1666900D01*
X-2473197Y1650390D01*
X-2467610Y1639468D01*
X-2456688Y1628546D01*
X-2445765Y1623212D01*
X-2424176Y1623212D01*
X-2413254Y1628546D01*
X-2402331Y1639468D01*
X-2396744Y1650390D01*
X-2391410Y1666900D01*
X-2391410Y1694078D01*
X-2396744Y1710334D01*
X-2402331Y1721256D01*
X-2413254Y1732178D01*
X-2424176Y1737766D01*
X-2445765Y1737766D01*
X-2344420Y1737766D02*
G01*
X-2284476Y1737766D01*
X-2317242Y1694078D01*
X-2300731Y1694078D01*
X-2289810Y1688490D01*
X-2284476Y1683156D01*
X-2278888Y1666900D01*
X-2278888Y1655978D01*
X-2284476Y1639468D01*
X-2295397Y1628546D01*
X-2311654Y1623212D01*
X-2328164Y1623212D01*
X-2344420Y1628546D01*
X-2349754Y1634134D01*
X-2355342Y1645056D01*
X-2237486Y1710334D02*
G01*
X-2237486Y1715922D01*
X-2232152Y1726844D01*
X-2226564Y1732178D01*
X-2215642Y1737766D01*
X-2193797Y1737766D01*
X-2182876Y1732178D01*
X-2177542Y1726844D01*
X-2171954Y1715922D01*
X-2171954Y1705000D01*
X-2177542Y1694078D01*
X-2188464Y1677822D01*
X-2243074Y1623212D01*
X-2166620Y1623212D01*
D38*
X-2514600Y1991766D02*
G01*
X-2514600Y1877212D01*
X-2445765Y1991766D02*
G01*
X-2456688Y1986178D01*
X-2467610Y1975256D01*
X-2473197Y1964334D01*
X-2478531Y1948078D01*
X-2478531Y1920900D01*
X-2473197Y1904390D01*
X-2467610Y1893468D01*
X-2456688Y1882546D01*
X-2445765Y1877212D01*
X-2424176Y1877212D01*
X-2413254Y1882546D01*
X-2402331Y1893468D01*
X-2396744Y1904390D01*
X-2391410Y1920900D01*
X-2391410Y1948078D01*
X-2396744Y1964334D01*
X-2402331Y1975256D01*
X-2413254Y1986178D01*
X-2424176Y1991766D01*
X-2445765Y1991766D01*
X-2344420Y1991766D02*
G01*
X-2284476Y1991766D01*
X-2317242Y1948078D01*
X-2300731Y1948078D01*
X-2289810Y1942490D01*
X-2284476Y1937156D01*
X-2278888Y1920900D01*
X-2278888Y1909978D01*
X-2284476Y1893468D01*
X-2295397Y1882546D01*
X-2311654Y1877212D01*
X-2328164Y1877212D01*
X-2344420Y1882546D01*
X-2349754Y1888134D01*
X-2355342Y1899056D01*
X-2177542Y1991766D02*
G01*
X-2232152Y1991766D01*
X-2237486Y1942490D01*
X-2232152Y1948078D01*
X-2215642Y1953412D01*
X-2199386Y1953412D01*
X-2182876Y1948078D01*
X-2171954Y1937156D01*
X-2166620Y1920900D01*
X-2166620Y1909978D01*
X-2171954Y1893468D01*
X-2182876Y1882546D01*
X-2199386Y1877212D01*
X-2215642Y1877212D01*
X-2232152Y1882546D01*
X-2237486Y1888134D01*
X-2243074Y1899056D01*
X-2514600Y2995066D02*
G01*
X-2514600Y2880512D01*
X-2467610Y2995066D02*
G01*
X-2407665Y2995066D01*
X-2440431Y2951378D01*
X-2424176Y2951378D01*
X-2413254Y2945790D01*
X-2407665Y2940456D01*
X-2402331Y2924200D01*
X-2402331Y2913278D01*
X-2407665Y2896768D01*
X-2418588Y2885846D01*
X-2434844Y2880512D01*
X-2451354Y2880512D01*
X-2467610Y2885846D01*
X-2473197Y2891434D01*
X-2478531Y2902356D01*
X-2295397Y2956712D02*
G01*
X-2300731Y2940456D01*
X-2311654Y2929534D01*
X-2328164Y2924200D01*
X-2333497Y2924200D01*
X-2349754Y2929534D01*
X-2360676Y2940456D01*
X-2366264Y2956712D01*
X-2366264Y2962300D01*
X-2360676Y2978556D01*
X-2349754Y2989478D01*
X-2333497Y2995066D01*
X-2328164Y2995066D01*
X-2311654Y2989478D01*
X-2300731Y2978556D01*
X-2295397Y2956712D01*
X-2295397Y2929534D01*
X-2300731Y2902356D01*
X-2311654Y2885846D01*
X-2328164Y2880512D01*
X-2339086Y2880512D01*
X-2355342Y2885846D01*
X-2360676Y2896768D01*
X-2514600Y3261766D02*
G01*
X-2514600Y3147212D01*
X-2467610Y3261766D02*
G01*
X-2407665Y3261766D01*
X-2440431Y3218078D01*
X-2424176Y3218078D01*
X-2413254Y3212490D01*
X-2407665Y3207156D01*
X-2402331Y3190900D01*
X-2402331Y3179978D01*
X-2407665Y3163468D01*
X-2418588Y3152546D01*
X-2434844Y3147212D01*
X-2451354Y3147212D01*
X-2467610Y3152546D01*
X-2473197Y3158134D01*
X-2478531Y3169056D01*
X-2300731Y3245256D02*
G01*
X-2306320Y3256178D01*
X-2322576Y3261766D01*
X-2333497Y3261766D01*
X-2349754Y3256178D01*
X-2360676Y3239922D01*
X-2366264Y3212490D01*
X-2366264Y3185312D01*
X-2360676Y3163468D01*
X-2349754Y3152546D01*
X-2333497Y3147212D01*
X-2328164Y3147212D01*
X-2311654Y3152546D01*
X-2300731Y3163468D01*
X-2295397Y3179978D01*
X-2295397Y3185312D01*
X-2300731Y3201822D01*
X-2311654Y3212490D01*
X-2328164Y3218078D01*
X-2333497Y3218078D01*
X-2349754Y3212490D01*
X-2360676Y3201822D01*
X-2366264Y3185312D01*
X-2186178Y-1839467D02*
G01*
X-2227072Y-1839467D01*
X-2231136Y-1876297D01*
X-2227072Y-1872234D01*
X-2214626Y-1868169D01*
X-2202434Y-1868169D01*
X-2190242Y-1872234D01*
X-2182114Y-1880615D01*
X-2178050Y-1892807D01*
X-2178050Y-1900935D01*
X-2182114Y-1913127D01*
X-2190242Y-1921509D01*
X-2202434Y-1925573D01*
X-2214626Y-1925573D01*
X-2227072Y-1921509D01*
X-2231136Y-1917192D01*
X-2235200Y-1909063D01*
X-2150872Y-1839467D02*
G01*
X-2118106Y-1925573D01*
X-2085594Y-1839467D02*
G01*
X-2118106Y-1925573D01*
X-2603500Y-1839467D02*
G01*
X-2570734Y-1925573D01*
X-2537968Y-1839467D02*
G01*
X-2570734Y-1925573D01*
X-2511044Y-1839467D02*
G01*
X-2511044Y-1925573D01*
X-2511044Y-1839467D02*
G01*
X-2474214Y-1839467D01*
X-2462022Y-1843785D01*
X-2457958Y-1847850D01*
X-2453894Y-1855977D01*
X-2453894Y-1864105D01*
X-2457958Y-1872234D01*
X-2462022Y-1876297D01*
X-2474214Y-1880615D01*
X-2511044Y-1880615D02*
G01*
X-2474214Y-1880615D01*
X-2462022Y-1884679D01*
X-2457958Y-1888743D01*
X-2453894Y-1896871D01*
X-2453894Y-1909063D01*
X-2457958Y-1917192D01*
X-2462022Y-1921509D01*
X-2474214Y-1925573D01*
X-2511044Y-1925573D01*
X-2393950Y-1839467D02*
G01*
X-2426715Y-1925573D01*
X-2393950Y-1839467D02*
G01*
X-2361438Y-1925573D01*
X-2414524Y-1896871D02*
G01*
X-2373630Y-1896871D01*
X-2305558Y-1839467D02*
G01*
X-2305558Y-1925573D01*
X-2334260Y-1839467D02*
G01*
X-2277110Y-1839467D01*
X-2808731Y-1860042D02*
G01*
X-2813050Y-1851913D01*
X-2821178Y-1843785D01*
X-2829306Y-1839467D01*
X-2845562Y-1839467D01*
X-2853944Y-1843785D01*
X-2862072Y-1851913D01*
X-2866136Y-1860042D01*
X-2870200Y-1872234D01*
X-2870200Y-1892807D01*
X-2866136Y-1905000D01*
X-2862072Y-1913127D01*
X-2853944Y-1921509D01*
X-2845562Y-1925573D01*
X-2829306Y-1925573D01*
X-2821178Y-1921509D01*
X-2813050Y-1913127D01*
X-2808731Y-1905000D01*
X-2808731Y-1892807D01*
X-2829306Y-1892807D02*
G01*
X-2808731Y-1892807D01*
X-2781808Y-1839467D02*
G01*
X-2781808Y-1925573D01*
X-2781808Y-1839467D02*
G01*
X-2724658Y-1925573D01*
X-2724658Y-1839467D02*
G01*
X-2724658Y-1925573D01*
X-2697480Y-1839467D02*
G01*
X-2697480Y-1925573D01*
X-2697480Y-1839467D02*
G01*
X-2669031Y-1839467D01*
X-2656586Y-1843785D01*
X-2648458Y-1851913D01*
X-2644394Y-1860042D01*
X-2640330Y-1872234D01*
X-2640330Y-1892807D01*
X-2644394Y-1905000D01*
X-2648458Y-1913127D01*
X-2656586Y-1921509D01*
X-2669031Y-1925573D01*
X-2697480Y-1925573D01*
D37*
X-2438146Y2483256D02*
G01*
X-2449068Y2494178D01*
X-2465578Y2499766D01*
X-2487422Y2499766D01*
X-2503678Y2494178D01*
X-2514600Y2483256D01*
X-2514600Y2472334D01*
X-2509265Y2461412D01*
X-2503678Y2456078D01*
X-2492756Y2450490D01*
X-2459990Y2439822D01*
X-2449068Y2434234D01*
X-2443734Y2428900D01*
X-2438146Y2417978D01*
X-2438146Y2401468D01*
X-2449068Y2390546D01*
X-2465578Y2385212D01*
X-2487422Y2385212D01*
X-2503678Y2390546D01*
X-2514600Y2401468D01*
X-2402331Y2499766D02*
G01*
X-2402331Y2385212D01*
X-2402331Y2499766D02*
G01*
X-2363978Y2499766D01*
X-2347722Y2494178D01*
X-2336800Y2483256D01*
X-2331212Y2472334D01*
X-2325878Y2456078D01*
X-2325878Y2428900D01*
X-2331212Y2412390D01*
X-2336800Y2401468D01*
X-2347722Y2390546D01*
X-2363978Y2385212D01*
X-2402331Y2385212D01*
X-2246122Y2499766D02*
G01*
X-2289810Y2385212D01*
X-2246122Y2499766D02*
G01*
X-2202688Y2385212D01*
X-2273554Y2423312D02*
G01*
X-2218944Y2423312D01*
X-2438146Y2749956D02*
G01*
X-2449068Y2760878D01*
X-2465578Y2766466D01*
X-2487422Y2766466D01*
X-2503678Y2760878D01*
X-2514600Y2749956D01*
X-2514600Y2739034D01*
X-2509265Y2728112D01*
X-2503678Y2722778D01*
X-2492756Y2717190D01*
X-2459990Y2706522D01*
X-2449068Y2700934D01*
X-2443734Y2695600D01*
X-2438146Y2684678D01*
X-2438146Y2668168D01*
X-2449068Y2657246D01*
X-2465578Y2651912D01*
X-2487422Y2651912D01*
X-2503678Y2657246D01*
X-2514600Y2668168D01*
X-2320544Y2739034D02*
G01*
X-2325878Y2749956D01*
X-2336800Y2760878D01*
X-2347722Y2766466D01*
X-2369565Y2766466D01*
X-2380488Y2760878D01*
X-2391410Y2749956D01*
X-2396744Y2739034D01*
X-2402331Y2722778D01*
X-2402331Y2695600D01*
X-2396744Y2679090D01*
X-2391410Y2668168D01*
X-2380488Y2657246D01*
X-2369565Y2651912D01*
X-2347722Y2651912D01*
X-2336800Y2657246D01*
X-2325878Y2668168D01*
X-2320544Y2679090D01*
X-2284476Y2766466D02*
G01*
X-2284476Y2651912D01*
X-2284476Y2651912D02*
G01*
X-2218944Y2651912D01*
D38*
X-2483764Y184556D02*
G01*
X-2527198Y70002D01*
X-2483764Y184556D02*
G01*
X-2440076Y70002D01*
X-2510942Y108102D02*
G01*
X-2456332Y108102D01*
X-2404008Y184556D02*
G01*
X-2404008Y70002D01*
X-2404008Y184556D02*
G01*
X-2365908Y184556D01*
X-2349398Y179222D01*
X-2338476Y168300D01*
X-2333142Y157378D01*
X-2327554Y140868D01*
X-2327554Y113690D01*
X-2333142Y97434D01*
X-2338476Y86512D01*
X-2349398Y75590D01*
X-2365908Y70002D01*
X-2404008Y70002D01*
X-2209952Y157378D02*
G01*
X-2215286Y168300D01*
X-2226208Y179222D01*
X-2237130Y184556D01*
X-2258974Y184556D01*
X-2269896Y179222D01*
X-2280818Y168300D01*
X-2286152Y157378D01*
X-2291740Y140868D01*
X-2291740Y113690D01*
X-2286152Y97434D01*
X-2280818Y86512D01*
X-2269896Y75590D01*
X-2258974Y70002D01*
X-2237130Y70002D01*
X-2226208Y75590D01*
X-2215286Y86512D01*
X-2209952Y97434D01*
X-2527198Y425957D02*
G01*
X-2500020Y311404D01*
X-2472842Y425957D02*
G01*
X-2500020Y311404D01*
X-2472842Y425957D02*
G01*
X-2445410Y311404D01*
X-2418232Y425957D02*
G01*
X-2445410Y311404D01*
X-2382164Y425957D02*
G01*
X-2382164Y344170D01*
X-2376830Y327660D01*
X-2365908Y316738D01*
X-2349398Y311404D01*
X-2338476Y311404D01*
X-2322220Y316738D01*
X-2311298Y327660D01*
X-2305964Y344170D01*
X-2305964Y425957D01*
X-2269896Y425957D02*
G01*
X-2269896Y311404D01*
X-2269896Y425957D02*
G01*
X-2220874Y425957D01*
X-2204364Y420370D01*
X-2199030Y415036D01*
X-2193442Y404114D01*
X-2193442Y387604D01*
X-2199030Y376682D01*
X-2204364Y371348D01*
X-2220874Y366014D01*
X-2269896Y366014D01*
X-2527198Y-69342D02*
G01*
X-2527198Y-183895D01*
X-2527198Y-69342D02*
G01*
X-2478176Y-69342D01*
X-2461920Y-74929D01*
X-2456332Y-80263D01*
X-2450998Y-91185D01*
X-2450998Y-107695D01*
X-2456332Y-118617D01*
X-2461920Y-123951D01*
X-2478176Y-129285D01*
X-2527198Y-129285D01*
X-2414930Y-69342D02*
G01*
X-2414930Y-183895D01*
X-2414930Y-69342D02*
G01*
X-2365908Y-69342D01*
X-2349398Y-74929D01*
X-2344064Y-80263D01*
X-2338476Y-91185D01*
X-2338476Y-102107D01*
X-2344064Y-113029D01*
X-2349398Y-118617D01*
X-2365908Y-123951D01*
X-2414930Y-123951D02*
G01*
X-2365908Y-123951D01*
X-2349398Y-129285D01*
X-2344064Y-134873D01*
X-2338476Y-145795D01*
X-2338476Y-162051D01*
X-2344064Y-172973D01*
X-2349398Y-178561D01*
X-2365908Y-183895D01*
X-2414930Y-183895D01*
X-2302662Y-91185D02*
G01*
X-2291740Y-85851D01*
X-2275230Y-69342D01*
X-2275230Y-183895D01*
X-2206650Y-69342D02*
G01*
X-2222906Y-74929D01*
X-2233828Y-91185D01*
X-2239416Y-118617D01*
X-2239416Y-134873D01*
X-2233828Y-162051D01*
X-2222906Y-178561D01*
X-2206650Y-183895D01*
X-2195728Y-183895D01*
X-2179218Y-178561D01*
X-2168296Y-162051D01*
X-2162962Y-134873D01*
X-2162962Y-118617D01*
X-2168296Y-91185D01*
X-2179218Y-74929D01*
X-2195728Y-69342D01*
X-2206650Y-69342D01*
X-2527198Y-336042D02*
G01*
X-2527198Y-450595D01*
X-2527198Y-336042D02*
G01*
X-2478176Y-336042D01*
X-2461920Y-341629D01*
X-2456332Y-346963D01*
X-2450998Y-357885D01*
X-2450998Y-374395D01*
X-2456332Y-385317D01*
X-2461920Y-390651D01*
X-2478176Y-395985D01*
X-2527198Y-395985D01*
X-2414930Y-336042D02*
G01*
X-2414930Y-450595D01*
X-2414930Y-336042D02*
G01*
X-2365908Y-336042D01*
X-2349398Y-341629D01*
X-2344064Y-346963D01*
X-2338476Y-357885D01*
X-2338476Y-368807D01*
X-2344064Y-379729D01*
X-2349398Y-385317D01*
X-2365908Y-390651D01*
X-2414930Y-390651D02*
G01*
X-2365908Y-390651D01*
X-2349398Y-395985D01*
X-2344064Y-401573D01*
X-2338476Y-412495D01*
X-2338476Y-428751D01*
X-2344064Y-439673D01*
X-2349398Y-445261D01*
X-2365908Y-450595D01*
X-2414930Y-450595D01*
X-2302662Y-357885D02*
G01*
X-2291740Y-352551D01*
X-2275230Y-336042D01*
X-2275230Y-450595D01*
X-2239416Y-357885D02*
G01*
X-2228494Y-352551D01*
X-2211984Y-336042D01*
X-2211984Y-450595D01*
X12801Y3757066D02*
G01*
X12801Y3642512D01*
X12801Y3757066D02*
G01*
X50901Y3757066D01*
X67157Y3751478D01*
X78079Y3740556D01*
X83667Y3729634D01*
X89001Y3713378D01*
X89001Y3686200D01*
X83667Y3669690D01*
X78079Y3658768D01*
X67157Y3647846D01*
X50901Y3642512D01*
X12801Y3642512D01*
X125069Y3757066D02*
G01*
X125069Y3642512D01*
X125069Y3757066D02*
G01*
X195935Y3757066D01*
X125069Y3702456D02*
G01*
X168757Y3702456D01*
X125069Y3642512D02*
G01*
X195935Y3642512D01*
X232003Y3757066D02*
G01*
X275691Y3642512D01*
X319125Y3757066D02*
G01*
X275691Y3642512D01*
X439267Y3757066D02*
G01*
X439267Y3642512D01*
X439267Y3757066D02*
G01*
X488289Y3757066D01*
X504799Y3751478D01*
X510133Y3746144D01*
X515721Y3735222D01*
X515721Y3724300D01*
X510133Y3713378D01*
X504799Y3707790D01*
X488289Y3702456D01*
X439267Y3702456D02*
G01*
X488289Y3702456D01*
X504799Y3697122D01*
X510133Y3691534D01*
X515721Y3680612D01*
X515721Y3664356D01*
X510133Y3653434D01*
X504799Y3647846D01*
X488289Y3642512D01*
X439267Y3642512D01*
X578967Y3718712D02*
G01*
X568045Y3713378D01*
X557123Y3702456D01*
X551535Y3686200D01*
X551535Y3675278D01*
X557123Y3658768D01*
X568045Y3647846D01*
X578967Y3642512D01*
X595223Y3642512D01*
X606145Y3647846D01*
X617067Y3658768D01*
X622401Y3675278D01*
X622401Y3686200D01*
X617067Y3702456D01*
X606145Y3713378D01*
X595223Y3718712D01*
X578967Y3718712D01*
X724001Y3718712D02*
G01*
X724001Y3642512D01*
X724001Y3702456D02*
G01*
X713079Y3713378D01*
X702157Y3718712D01*
X685901Y3718712D01*
X674979Y3713378D01*
X664057Y3702456D01*
X658469Y3686200D01*
X658469Y3675278D01*
X664057Y3658768D01*
X674979Y3647846D01*
X685901Y3642512D01*
X702157Y3642512D01*
X713079Y3647846D01*
X724001Y3658768D01*
X760069Y3718712D02*
G01*
X760069Y3642512D01*
X760069Y3686200D02*
G01*
X765403Y3702456D01*
X776325Y3713378D01*
X787247Y3718712D01*
X803503Y3718712D01*
X905103Y3757066D02*
G01*
X905103Y3642512D01*
X905103Y3702456D02*
G01*
X894181Y3713378D01*
X883259Y3718712D01*
X867003Y3718712D01*
X856081Y3713378D01*
X845159Y3702456D01*
X839571Y3686200D01*
X839571Y3675278D01*
X845159Y3658768D01*
X856081Y3647846D01*
X867003Y3642512D01*
X883259Y3642512D01*
X894181Y3647846D01*
X905103Y3658768D01*
X139801Y4011066D02*
G01*
X183235Y3896512D01*
X226923Y4011066D02*
G01*
X183235Y3896512D01*
X268325Y3983634D02*
G01*
X268325Y3989222D01*
X273913Y4000144D01*
X279247Y4005478D01*
X290169Y4011066D01*
X312013Y4011066D01*
X322935Y4005478D01*
X328523Y4000144D01*
X333857Y3989222D01*
X333857Y3978300D01*
X328523Y3967378D01*
X317601Y3951122D01*
X262991Y3896512D01*
X339445Y3896512D01*
X380847Y3923690D02*
G01*
X375259Y3918356D01*
X380847Y3912768D01*
X386181Y3918356D01*
X380847Y3923690D01*
X455015Y4011066D02*
G01*
X438505Y4005478D01*
X427583Y3989222D01*
X422249Y3961790D01*
X422249Y3945534D01*
X427583Y3918356D01*
X438505Y3901846D01*
X455015Y3896512D01*
X465937Y3896512D01*
X482193Y3901846D01*
X493115Y3918356D01*
X498703Y3945534D01*
X498703Y3961790D01*
X493115Y3989222D01*
X482193Y4005478D01*
X465937Y4011066D01*
X455015Y4011066D01*
D39*
X-2096008Y-1141221D02*
G01*
X-2106422Y-1146555D01*
X-2116836Y-1156969D01*
X-2121915Y-1167129D01*
X-2121915Y-1187957D01*
X-2116836Y-1198371D01*
X-2106422Y-1208785D01*
X-2096008Y-1214119D01*
X-2080260Y-1219200D01*
X-2054352Y-1219200D01*
X-2038858Y-1214119D01*
X-2028444Y-1208785D01*
X-2018030Y-1198371D01*
X-2012950Y-1187957D01*
X-2012950Y-1167129D01*
X-2018030Y-1156969D01*
X-2028444Y-1146555D01*
X-2038858Y-1141221D01*
X-2121915Y-1055115D02*
G01*
X-2049272Y-1106931D01*
X-2049272Y-1028953D01*
X-2121915Y-1055115D02*
G01*
X-2012950Y-1055115D01*
X607568Y-1472692D02*
G01*
X602234Y-1462277D01*
X591819Y-1451863D01*
X581659Y-1446784D01*
X560831Y-1446784D01*
X550418Y-1451863D01*
X540003Y-1462277D01*
X534669Y-1472692D01*
X529589Y-1488439D01*
X529589Y-1514347D01*
X534669Y-1529842D01*
X540003Y-1540255D01*
X550418Y-1550669D01*
X560831Y-1555750D01*
X581659Y-1555750D01*
X591819Y-1550669D01*
X602234Y-1540255D01*
X607568Y-1529842D01*
X641857Y-1467611D02*
G01*
X652271Y-1462277D01*
X667765Y-1446784D01*
X667765Y-1555750D01*
X-1905508Y-1141221D02*
G01*
X-1915922Y-1146555D01*
X-1926336Y-1156969D01*
X-1931415Y-1167129D01*
X-1931415Y-1187957D01*
X-1926336Y-1198371D01*
X-1915922Y-1208785D01*
X-1905508Y-1214119D01*
X-1889760Y-1219200D01*
X-1863852Y-1219200D01*
X-1848358Y-1214119D01*
X-1837944Y-1208785D01*
X-1827530Y-1198371D01*
X-1822450Y-1187957D01*
X-1822450Y-1167129D01*
X-1827530Y-1156969D01*
X-1837944Y-1146555D01*
X-1848358Y-1141221D01*
X-1931415Y-1096517D02*
G01*
X-1931415Y-1039367D01*
X-1889760Y-1070609D01*
X-1889760Y-1055115D01*
X-1884680Y-1044701D01*
X-1879600Y-1039367D01*
X-1863852Y-1034287D01*
X-1853438Y-1034287D01*
X-1837944Y-1039367D01*
X-1827530Y-1049781D01*
X-1822450Y-1065529D01*
X-1822450Y-1081023D01*
X-1827530Y-1096517D01*
X-1832610Y-1101851D01*
X-1843024Y-1106931D01*
X-760978Y-137431D02*
G01*
X-772114Y-133840D01*
X-786841Y-133840D01*
X-797618Y-137431D01*
X-812345Y-152158D01*
X-816117Y-163116D01*
X-816117Y-177843D01*
X-812525Y-188978D01*
X-804981Y-203705D01*
X-786663Y-222026D01*
X-772114Y-229389D01*
X-760978Y-232981D01*
X-746252Y-232981D01*
X-735294Y-229209D01*
X-720567Y-214482D01*
X-716975Y-203705D01*
X-716975Y-188978D01*
X-720567Y-177843D01*
X-681593Y-72773D02*
G01*
X-674408Y-87500D01*
X-674408Y-102229D01*
X-681593Y-116956D01*
X-685185Y-120548D01*
X-700092Y-127911D01*
X-714819Y-127911D01*
X-729368Y-120548D01*
X-732960Y-116956D01*
X-740503Y-102229D01*
X-740503Y-87500D01*
X-732960Y-72773D01*
X-729368Y-69181D01*
X-714819Y-61818D01*
X-700092Y-61818D01*
X-681593Y-72773D01*
X-663272Y-91094D01*
X-648545Y-113365D01*
X-644954Y-131683D01*
X-652317Y-146232D01*
X-659681Y-153596D01*
X-674230Y-160959D01*
X-685365Y-157368D01*
X-2065482Y16758D02*
G01*
X-2076617Y20350D01*
X-2091344Y20350D01*
X-2102121Y16758D01*
X-2116848Y2032D01*
X-2120620Y-8925D01*
X-2120620Y-23652D01*
X-2117029Y-34787D01*
X-2109485Y-49514D01*
X-2091166Y-67835D01*
X-2076617Y-75199D01*
X-2065482Y-78790D01*
X-2050755Y-78790D01*
X-2039797Y-75018D01*
X-2025070Y-60291D01*
X-2021479Y-49514D01*
X-2021479Y-34787D01*
X-2025070Y-23652D01*
X-2044827Y44597D02*
G01*
X-2041235Y55732D01*
X-2041235Y77645D01*
X-1964184Y594D01*
X-1994898Y123982D02*
G01*
X-2002442Y109255D01*
X-1998489Y90937D01*
X-1983940Y68844D01*
X-1972985Y57889D01*
X-1950714Y43159D01*
X-1932574Y39390D01*
X-1917847Y46931D01*
X-1910483Y54297D01*
X-1903120Y68844D01*
X-1906711Y87165D01*
X-1921619Y109255D01*
X-1932574Y120210D01*
X-1954486Y134940D01*
X-1972985Y138711D01*
X-1987534Y131345D01*
X-1994898Y123982D01*
X-897628Y-906327D02*
G01*
X-894036Y-895192D01*
X-894036Y-880465D01*
X-897628Y-869688D01*
X-912355Y-854961D01*
X-923312Y-851189D01*
X-938039Y-851189D01*
X-949175Y-854781D01*
X-963902Y-862324D01*
X-982223Y-880643D01*
X-989586Y-895192D01*
X-993178Y-906327D01*
X-993178Y-921054D01*
X-989406Y-932012D01*
X-974679Y-946739D01*
X-963902Y-950330D01*
X-949175Y-950330D01*
X-938039Y-946739D01*
X-869789Y-926983D02*
G01*
X-858654Y-930574D01*
X-836742Y-930574D01*
X-913792Y-1007625D01*
X-827222Y-969548D02*
G01*
X-816086Y-973140D01*
X-794176Y-973140D01*
X-871227Y-1050190D01*
X-1862272Y689846D02*
G01*
X-1873407Y693437D01*
X-1888134Y693437D01*
X-1898911Y689846D01*
X-1913638Y675119D01*
X-1917410Y664161D01*
X-1917410Y649434D01*
X-1913818Y638299D01*
X-1906275Y623572D01*
X-1887956Y605251D01*
X-1873407Y597888D01*
X-1862272Y594296D01*
X-1847545Y594296D01*
X-1836587Y598068D01*
X-1821860Y612795D01*
X-1818269Y623572D01*
X-1818269Y638299D01*
X-1821860Y649434D01*
X-1841616Y717684D02*
G01*
X-1838025Y728819D01*
X-1838025Y750732D01*
X-1760974Y673681D01*
X-1791688Y760430D02*
G01*
X-1795279Y764024D01*
X-1799051Y774979D01*
X-1799231Y782342D01*
X-1795459Y793297D01*
X-1780730Y808027D01*
X-1769775Y811799D01*
X-1762231Y811799D01*
X-1751276Y808027D01*
X-1743913Y800663D01*
X-1740141Y789706D01*
X-1736549Y771387D01*
X-1736727Y697928D01*
X-1685361Y749294D01*
X-750315Y317510D02*
G01*
X-641350Y317510D01*
X-750315Y317510D02*
G01*
X-750315Y364246D01*
X-745236Y379740D01*
X-739902Y385074D01*
X-729488Y390154D01*
X-719074Y390154D01*
X-708660Y385074D01*
X-703580Y379740D01*
X-698500Y364246D01*
X-698500Y317510D01*
X-698500Y353832D02*
G01*
X-641350Y390154D01*
X-750315Y486928D02*
G01*
X-750315Y434858D01*
X-703580Y429778D01*
X-708660Y434858D01*
X-713994Y450606D01*
X-713994Y466100D01*
X-708660Y481594D01*
X-698500Y492008D01*
X-682752Y497342D01*
X-672338Y497342D01*
X-656844Y492008D01*
X-646430Y481594D01*
X-641350Y466100D01*
X-641350Y450606D01*
X-646430Y434858D01*
X-651510Y429778D01*
X-661924Y424444D01*
X-1245615Y-1282689D02*
G01*
X-1136650Y-1282689D01*
X-1245615Y-1282689D02*
G01*
X-1245615Y-1235953D01*
X-1240536Y-1220459D01*
X-1235202Y-1215125D01*
X-1224788Y-1210045D01*
X-1214374Y-1210045D01*
X-1203960Y-1215125D01*
X-1198880Y-1220459D01*
X-1193800Y-1235953D01*
X-1193800Y-1282689D01*
X-1193800Y-1246367D02*
G01*
X-1136650Y-1210045D01*
X-1245615Y-1149593D02*
G01*
X-1240536Y-1165341D01*
X-1230122Y-1170421D01*
X-1219708Y-1170421D01*
X-1209294Y-1165341D01*
X-1203960Y-1154927D01*
X-1198880Y-1134099D01*
X-1193800Y-1118605D01*
X-1183386Y-1108191D01*
X-1172972Y-1102857D01*
X-1157224Y-1102857D01*
X-1146810Y-1108191D01*
X-1141730Y-1113271D01*
X-1136650Y-1129019D01*
X-1136650Y-1149593D01*
X-1141730Y-1165341D01*
X-1146810Y-1170421D01*
X-1157224Y-1175755D01*
X-1172972Y-1175755D01*
X-1183386Y-1170421D01*
X-1193800Y-1160007D01*
X-1198880Y-1144513D01*
X-1203960Y-1123685D01*
X-1209294Y-1113271D01*
X-1219708Y-1108191D01*
X-1230122Y-1108191D01*
X-1240536Y-1113271D01*
X-1245615Y-1129019D01*
X-1245615Y-1149593D01*
X-366522Y-456692D02*
G01*
X-371856Y-446277D01*
X-382270Y-435863D01*
X-392430Y-430784D01*
X-413258Y-430784D01*
X-423672Y-435863D01*
X-434086Y-446277D01*
X-439420Y-456692D01*
X-444500Y-472439D01*
X-444500Y-498347D01*
X-439420Y-513842D01*
X-434086Y-524255D01*
X-423672Y-534669D01*
X-413258Y-539750D01*
X-392430Y-539750D01*
X-382270Y-534669D01*
X-371856Y-524255D01*
X-366522Y-513842D01*
X-270002Y-430784D02*
G01*
X-321818Y-430784D01*
X-327152Y-477519D01*
X-321818Y-472439D01*
X-306324Y-467105D01*
X-290830Y-467105D01*
X-275081Y-472439D01*
X-264668Y-482600D01*
X-259588Y-498347D01*
X-259588Y-508761D01*
X-264668Y-524255D01*
X-275081Y-534669D01*
X-290830Y-539750D01*
X-306324Y-539750D01*
X-321818Y-534669D01*
X-327152Y-529589D01*
X-332231Y-519175D01*
X-366522Y-659892D02*
G01*
X-371856Y-649477D01*
X-382270Y-639063D01*
X-392430Y-633984D01*
X-413258Y-633984D01*
X-423672Y-639063D01*
X-434086Y-649477D01*
X-439420Y-659892D01*
X-444500Y-675639D01*
X-444500Y-701547D01*
X-439420Y-717042D01*
X-434086Y-727455D01*
X-423672Y-737869D01*
X-413258Y-742950D01*
X-392430Y-742950D01*
X-382270Y-737869D01*
X-371856Y-727455D01*
X-366522Y-717042D01*
X-270002Y-649477D02*
G01*
X-275081Y-639063D01*
X-290830Y-633984D01*
X-300990Y-633984D01*
X-316738Y-639063D01*
X-327152Y-654811D01*
X-332231Y-680719D01*
X-332231Y-706627D01*
X-327152Y-727455D01*
X-316738Y-737869D01*
X-300990Y-742950D01*
X-295910Y-742950D01*
X-280415Y-737869D01*
X-270002Y-727455D01*
X-264668Y-711961D01*
X-264668Y-706627D01*
X-270002Y-691134D01*
X-280415Y-680719D01*
X-295910Y-675639D01*
X-300990Y-675639D01*
X-316738Y-680719D01*
X-327152Y-691134D01*
X-332231Y-706627D01*
X-533908Y90678D02*
G01*
X-544322Y85344D01*
X-554736Y74930D01*
X-559815Y64770D01*
X-559815Y43942D01*
X-554736Y33528D01*
X-544322Y23114D01*
X-533908Y17780D01*
X-518160Y12700D01*
X-492252Y12700D01*
X-476758Y17780D01*
X-466344Y23114D01*
X-455930Y33528D01*
X-450850Y43942D01*
X-450850Y64770D01*
X-455930Y74930D01*
X-466344Y85344D01*
X-476758Y90678D01*
X-559815Y197612D02*
G01*
X-450850Y145796D01*
X-559815Y124968D02*
G01*
X-559815Y197612D01*
X-88392Y544322D02*
G01*
X-77978Y549656D01*
X-67564Y560070D01*
X-62484Y570230D01*
X-62484Y591057D01*
X-67564Y601472D01*
X-77978Y611886D01*
X-88392Y617220D01*
X-104140Y622300D01*
X-130047Y622300D01*
X-145542Y617220D01*
X-155956Y611886D01*
X-166370Y601472D01*
X-171450Y591057D01*
X-171450Y570230D01*
X-166370Y560070D01*
X-155956Y549656D01*
X-145542Y544322D01*
X-62484Y484124D02*
G01*
X-67564Y499618D01*
X-77978Y504952D01*
X-88392Y504952D01*
X-98806Y499618D01*
X-104140Y489204D01*
X-109220Y468630D01*
X-114300Y452882D01*
X-124714Y442468D01*
X-135128Y437388D01*
X-150876Y437388D01*
X-161290Y442468D01*
X-166370Y447802D01*
X-171450Y463296D01*
X-171450Y484124D01*
X-166370Y499618D01*
X-161290Y504952D01*
X-150876Y510032D01*
X-135128Y510032D01*
X-124714Y504952D01*
X-114300Y494538D01*
X-109220Y478790D01*
X-104140Y458215D01*
X-98806Y447802D01*
X-88392Y442468D01*
X-77978Y442468D01*
X-67564Y447802D01*
X-62484Y463296D01*
X-62484Y484124D01*
X-1639214Y-1282598D02*
G01*
X-1530248Y-1282598D01*
X-1639214Y-1282598D02*
G01*
X-1639214Y-1235862D01*
X-1634134Y-1220368D01*
X-1629054Y-1215034D01*
X-1618640Y-1209954D01*
X-1608226Y-1209954D01*
X-1597812Y-1215034D01*
X-1592478Y-1220368D01*
X-1587398Y-1235862D01*
X-1587398Y-1282598D01*
X-1587398Y-1246276D02*
G01*
X-1530248Y-1209954D01*
X-1618640Y-1175664D02*
G01*
X-1623720Y-1165250D01*
X-1639214Y-1149756D01*
X-1530248Y-1149756D01*
X-1448815Y-1282598D02*
G01*
X-1339850Y-1282598D01*
X-1448815Y-1282598D02*
G01*
X-1448815Y-1235862D01*
X-1443736Y-1220368D01*
X-1438402Y-1215034D01*
X-1427988Y-1209954D01*
X-1417574Y-1209954D01*
X-1407160Y-1215034D01*
X-1402080Y-1220368D01*
X-1397000Y-1235862D01*
X-1397000Y-1282598D01*
X-1397000Y-1246276D02*
G01*
X-1339850Y-1209954D01*
X-1422908Y-1170584D02*
G01*
X-1427988Y-1170584D01*
X-1438402Y-1165250D01*
X-1443736Y-1160170D01*
X-1448815Y-1149756D01*
X-1448815Y-1128928D01*
X-1443736Y-1118514D01*
X-1438402Y-1113434D01*
X-1427988Y-1108100D01*
X-1417574Y-1108100D01*
X-1407160Y-1113434D01*
X-1391665Y-1123594D01*
X-1339850Y-1175664D01*
X-1339850Y-1103020D01*
X-1249944Y-121655D02*
G01*
X-1194805Y-176794D01*
X-1180256Y-184157D01*
X-1165529Y-184157D01*
X-1150802Y-176613D01*
X-1143439Y-169250D01*
X-1136073Y-154703D01*
X-1136073Y-139974D01*
X-1143439Y-125427D01*
X-1198577Y-70289D01*
X-1152237Y-60589D02*
G01*
X-1155832Y-56997D01*
X-1159603Y-46042D01*
X-1159603Y-38498D01*
X-1155832Y-27543D01*
X-1141282Y-12994D01*
X-1130327Y-9222D01*
X-1122784Y-9222D01*
X-1111826Y-12994D01*
X-1104463Y-20358D01*
X-1100691Y-31315D01*
X-1097099Y-49634D01*
X-1097280Y-123093D01*
X-1045733Y-71546D01*
X-431800Y-1116584D02*
G01*
X-359156Y-1225550D01*
X-359156Y-1116584D02*
G01*
X-431800Y-1225550D01*
X-324865Y-1137411D02*
G01*
X-314452Y-1132077D01*
X-298704Y-1116584D01*
X-298704Y-1225550D01*
X-2157222Y-1675892D02*
G01*
X-2162556Y-1665477D01*
X-2172970Y-1655063D01*
X-2183130Y-1649984D01*
X-2203958Y-1649984D01*
X-2214372Y-1655063D01*
X-2224786Y-1665477D01*
X-2230120Y-1675892D01*
X-2235200Y-1691639D01*
X-2235200Y-1717547D01*
X-2230120Y-1733042D01*
X-2224786Y-1743455D01*
X-2214372Y-1753869D01*
X-2203958Y-1758950D01*
X-2183130Y-1758950D01*
X-2172970Y-1753869D01*
X-2162556Y-1743455D01*
X-2157222Y-1733042D01*
X-2117852Y-1675892D02*
G01*
X-2117852Y-1670811D01*
X-2112518Y-1660397D01*
X-2107438Y-1655063D01*
X-2097024Y-1649984D01*
X-2076196Y-1649984D01*
X-2065781Y-1655063D01*
X-2060702Y-1660397D01*
X-2055368Y-1670811D01*
X-2055368Y-1681225D01*
X-2060702Y-1691639D01*
X-2071115Y-1707134D01*
X-2122931Y-1758950D01*
X-2050288Y-1758950D01*
X-1600200Y-1827784D02*
G01*
X-1600200Y-1905761D01*
X-1595120Y-1921255D01*
X-1584706Y-1931669D01*
X-1568958Y-1936750D01*
X-1558544Y-1936750D01*
X-1543050Y-1931669D01*
X-1532636Y-1921255D01*
X-1527556Y-1905761D01*
X-1527556Y-1827784D01*
X-1420368Y-1843277D02*
G01*
X-1430781Y-1832863D01*
X-1446530Y-1827784D01*
X-1467104Y-1827784D01*
X-1482852Y-1832863D01*
X-1493265Y-1843277D01*
X-1493265Y-1853692D01*
X-1487931Y-1864105D01*
X-1482852Y-1869439D01*
X-1472438Y-1874519D01*
X-1441196Y-1884934D01*
X-1430781Y-1890013D01*
X-1425702Y-1895347D01*
X-1420368Y-1905761D01*
X-1420368Y-1921255D01*
X-1430781Y-1931669D01*
X-1446530Y-1936750D01*
X-1467104Y-1936750D01*
X-1482852Y-1931669D01*
X-1493265Y-1921255D01*
X-1386078Y-1827784D02*
G01*
X-1386078Y-1936750D01*
X-1386078Y-1827784D02*
G01*
X-1339342Y-1827784D01*
X-1323847Y-1832863D01*
X-1318514Y-1838197D01*
X-1313434Y-1848611D01*
X-1313434Y-1859025D01*
X-1318514Y-1869439D01*
X-1323847Y-1874519D01*
X-1339342Y-1879600D01*
X-1386078Y-1879600D02*
G01*
X-1339342Y-1879600D01*
X-1323847Y-1884934D01*
X-1318514Y-1890013D01*
X-1313434Y-1900427D01*
X-1313434Y-1916175D01*
X-1318514Y-1926589D01*
X-1323847Y-1931669D01*
X-1339342Y-1936750D01*
X-1386078Y-1936750D01*
X-1279144Y-1848611D02*
G01*
X-1268730Y-1843277D01*
X-1253236Y-1827784D01*
X-1253236Y-1936750D01*
X-2362200Y3482746D02*
G01*
X-2362200Y3387242D01*
X-2362200Y3482746D02*
G01*
X-2321306Y3482746D01*
X-2307590Y3478174D01*
X-2303018Y3473602D01*
X-2298446Y3464712D01*
X-2298446Y3455568D01*
X-2303018Y3446424D01*
X-2307590Y3441852D01*
X-2321306Y3437280D01*
X-2362200Y3437280D01*
X-2330450Y3437280D02*
G01*
X-2298446Y3387242D01*
X-2214118Y3469284D02*
G01*
X-2218690Y3478174D01*
X-2232152Y3482746D01*
X-2241296Y3482746D01*
X-2255012Y3478174D01*
X-2263902Y3464712D01*
X-2268474Y3441852D01*
X-2268474Y3419246D01*
X-2263902Y3400958D01*
X-2255012Y3391814D01*
X-2241296Y3387242D01*
X-2236724Y3387242D01*
X-2223008Y3391814D01*
X-2214118Y3400958D01*
X-2209546Y3414674D01*
X-2209546Y3419246D01*
X-2214118Y3432708D01*
X-2223008Y3441852D01*
X-2236724Y3446424D01*
X-2241296Y3446424D01*
X-2255012Y3441852D01*
X-2263902Y3432708D01*
X-2268474Y3419246D01*
X-1048806Y-972512D02*
G01*
X-1125857Y-1049563D01*
X-1048806Y-972512D02*
G01*
X-1015758Y-1005558D01*
X-1008214Y-1020287D01*
X-1008395Y-1027650D01*
X-1011986Y-1038786D01*
X-1019350Y-1046149D01*
X-1030485Y-1049741D01*
X-1037671Y-1049741D01*
X-1052398Y-1042197D01*
X-1085446Y-1009152D01*
X-1059761Y-1034834D02*
G01*
X-1074310Y-1101110D01*
X-965649Y-1055669D02*
G01*
X-925238Y-1096081D01*
X-976784Y-1103444D01*
X-965829Y-1114399D01*
X-962058Y-1125354D01*
X-961877Y-1132720D01*
X-969421Y-1147447D01*
X-976784Y-1154810D01*
X-991334Y-1162174D01*
X-1006060Y-1162174D01*
X-1020787Y-1154630D01*
X-1031742Y-1143675D01*
X-1039108Y-1129126D01*
X-1039286Y-1121763D01*
X-1035514Y-1110808D01*
X-1219200Y3433724D02*
G01*
X-1219200Y3355746D01*
X-1214120Y3340252D01*
X-1203706Y3329838D01*
X-1187958Y3324758D01*
X-1177544Y3324758D01*
X-1162050Y3329838D01*
X-1151636Y3340252D01*
X-1146556Y3355746D01*
X-1146556Y3433724D01*
X-1112265Y3412896D02*
G01*
X-1101852Y3418230D01*
X-1086104Y3433724D01*
X-1086104Y3324758D01*
X-2794000Y-1662684D02*
G01*
X-2794000Y-1771650D01*
X-2794000Y-1662684D02*
G01*
X-2747264Y-1662684D01*
X-2731770Y-1667763D01*
X-2726436Y-1673097D01*
X-2721356Y-1683511D01*
X-2721356Y-1693925D01*
X-2726436Y-1704339D01*
X-2731770Y-1709419D01*
X-2747264Y-1714500D01*
X-2794000Y-1714500D01*
X-2757678Y-1714500D02*
G01*
X-2721356Y-1771650D01*
X-2614168Y-1662684D02*
G01*
X-2666238Y-1771650D01*
X-2687065Y-1662684D02*
G01*
X-2614168Y-1662684D01*
X-2414015Y-1524000D02*
G01*
X-2336038Y-1524000D01*
X-2320544Y-1518919D01*
X-2310130Y-1508505D01*
X-2305050Y-1492757D01*
X-2305050Y-1482343D01*
X-2310130Y-1466850D01*
X-2320544Y-1456435D01*
X-2336038Y-1451355D01*
X-2414015Y-1451355D01*
X-2414015Y-1354581D02*
G01*
X-2414015Y-1406651D01*
X-2367280Y-1411731D01*
X-2372360Y-1406651D01*
X-2377694Y-1390903D01*
X-2377694Y-1375409D01*
X-2372360Y-1359915D01*
X-2362200Y-1349501D01*
X-2346452Y-1344167D01*
X-2336038Y-1344167D01*
X-2320544Y-1349501D01*
X-2310130Y-1359915D01*
X-2305050Y-1375409D01*
X-2305050Y-1390903D01*
X-2310130Y-1406651D01*
X-2315210Y-1411731D01*
X-2325624Y-1417065D01*
X-50698Y382015D02*
G01*
X21945Y273050D01*
X21945Y382015D02*
G01*
X-50698Y273050D01*
X61315Y356107D02*
G01*
X61315Y361188D01*
X66649Y371602D01*
X71729Y376936D01*
X82143Y382015D01*
X102971Y382015D01*
X113385Y376936D01*
X118465Y371602D01*
X123799Y361188D01*
X123799Y350774D01*
X118465Y340360D01*
X108305Y324865D01*
X56235Y273050D01*
X128879Y273050D01*
D33*
X-1959610Y-1369720D02*
G01*
X-1959610Y-1259712D01*
X-1799590Y-1259712D01*
X-1799590Y-1369720D01*
X-1959610Y-1449704D02*
G01*
X-1959610Y-1559712D01*
X-1859610Y-1559712D01*
X-1799590Y-1559712D01*
X-1799590Y-1449704D01*
X573379Y-1609089D02*
G01*
X683386Y-1609089D01*
X683386Y-1769109D01*
X573379Y-1769109D01*
X493394Y-1609089D02*
G01*
X383387Y-1609089D01*
X383387Y-1709089D01*
X383387Y-1769109D01*
X493394Y-1769109D01*
X-1990090Y-1449679D02*
G01*
X-1990090Y-1559686D01*
X-2150110Y-1559686D01*
X-2150110Y-1449679D01*
X-1990090Y-1369694D02*
G01*
X-1990090Y-1259687D01*
X-2090089Y-1259687D01*
X-2150110Y-1259687D01*
X-2150110Y-1369694D01*
X-688705Y-258053D02*
G01*
X-610918Y-180266D01*
X-497766Y-293418D01*
X-575553Y-371205D01*
X-745263Y-314612D02*
G01*
X-823051Y-392399D01*
X-752340Y-463110D01*
X-709899Y-505551D01*
X-632112Y-427763D01*
X-1907905Y-16753D02*
G01*
X-1830118Y61033D01*
X-1716966Y-52118D01*
X-1794753Y-129905D01*
X-1964463Y-73312D02*
G01*
X-2042251Y-151099D01*
X-1971540Y-221810D01*
X-1929099Y-264251D01*
X-1851312Y-186463D01*
X-1189746Y-777605D02*
G01*
X-1267533Y-699818D01*
X-1154381Y-586666D01*
X-1076594Y-664453D01*
X-1133187Y-834163D02*
G01*
X-1055400Y-911951D01*
X-984689Y-841240D01*
X-942248Y-798799D01*
X-1020036Y-721012D01*
X-1704705Y669046D02*
G01*
X-1626918Y746833D01*
X-1513766Y633681D01*
X-1591553Y555894D01*
X-1761263Y612487D02*
G01*
X-1839051Y534700D01*
X-1768340Y463989D01*
X-1725899Y421548D01*
X-1648112Y499336D01*
D10*
X-600702Y251404D02*
G01*
X-440697Y251404D01*
X-441208Y436465D02*
G01*
X-441208Y561461D01*
X-601212Y436465D02*
G01*
X-601212Y561461D01*
X-440697Y376407D02*
G01*
X-440697Y251404D01*
X-600702Y376407D02*
G01*
X-600702Y251404D01*
X-601212Y561461D02*
G01*
X-441208Y561461D01*
X-1101097Y-1330904D02*
G01*
X-1261102Y-1330904D01*
X-1260591Y-1515965D02*
G01*
X-1260591Y-1640961D01*
X-1100587Y-1515965D02*
G01*
X-1100587Y-1640961D01*
X-1261102Y-1455907D02*
G01*
X-1261102Y-1330904D01*
X-1101097Y-1455907D02*
G01*
X-1101097Y-1330904D01*
X-1100587Y-1640961D02*
G01*
X-1260591Y-1640961D01*
X101500Y-422597D02*
G01*
X101500Y-542599D01*
X-103497Y-402597D02*
G01*
X-203499Y-402597D01*
X-103497Y-562602D02*
G01*
X-203499Y-562602D01*
X-23489Y-402597D02*
G01*
X76499Y-402597D01*
X-23489Y-562602D02*
G01*
X76499Y-562602D01*
X-228500Y-422597D02*
G01*
X-228500Y-542599D01*
X-208500Y-402597D02*
G01*
X-203499Y-402597D01*
X-208498Y-562602D02*
G01*
X-203499Y-562602D01*
X81500Y-402597D02*
G01*
X76499Y-402597D01*
X81498Y-562602D02*
G01*
X76499Y-562602D01*
X-228500Y-745802D02*
G01*
X-228500Y-625800D01*
X-23502Y-765802D02*
G01*
X76499Y-765802D01*
X-23502Y-605797D02*
G01*
X76499Y-605797D01*
X-103510Y-765802D02*
G01*
X-203499Y-765802D01*
X-103510Y-605797D02*
G01*
X-203499Y-605797D01*
X101500Y-745802D02*
G01*
X101500Y-625800D01*
X81500Y-765802D02*
G01*
X76499Y-765802D01*
X81498Y-605797D02*
G01*
X76499Y-605797D01*
X-208500Y-765802D02*
G01*
X-203499Y-765802D01*
X-208498Y-605797D02*
G01*
X-203499Y-605797D01*
X-377502Y279300D02*
G01*
X-257500Y279300D01*
X-397502Y74302D02*
G01*
X-397502Y-25699D01*
X-237497Y74302D02*
G01*
X-237497Y-25699D01*
X-397502Y154310D02*
G01*
X-397502Y254299D01*
X-237497Y154310D02*
G01*
X-237497Y254299D01*
X-377502Y-50700D02*
G01*
X-257500Y-50700D01*
X-397502Y-30700D02*
G01*
X-397502Y-25699D01*
X-237497Y-30698D02*
G01*
X-237497Y-25699D01*
X-397502Y259300D02*
G01*
X-397502Y254299D01*
X-237497Y259298D02*
G01*
X-237497Y254299D01*
X-257497Y368399D02*
G01*
X-377499Y368399D01*
X-237497Y573397D02*
G01*
X-237497Y673399D01*
X-397502Y573397D02*
G01*
X-397502Y673399D01*
X-237497Y493389D02*
G01*
X-237497Y393400D01*
X-397502Y493389D02*
G01*
X-397502Y393400D01*
X-257497Y698400D02*
G01*
X-377499Y698400D01*
X-237497Y678400D02*
G01*
X-237497Y673399D01*
X-397502Y678398D02*
G01*
X-397502Y673399D01*
X-237497Y388399D02*
G01*
X-237497Y393400D01*
X-397502Y388401D02*
G01*
X-397502Y393400D01*
X-1507497Y-1330904D02*
G01*
X-1667502Y-1330904D01*
X-1666991Y-1515965D02*
G01*
X-1666991Y-1640961D01*
X-1506987Y-1515965D02*
G01*
X-1506987Y-1640961D01*
X-1667502Y-1455907D02*
G01*
X-1667502Y-1330904D01*
X-1507497Y-1455907D02*
G01*
X-1507497Y-1330904D01*
X-1506987Y-1640961D02*
G01*
X-1666991Y-1640961D01*
X-1304297Y-1330904D02*
G01*
X-1464302Y-1330904D01*
X-1463791Y-1515965D02*
G01*
X-1463791Y-1640961D01*
X-1303787Y-1515965D02*
G01*
X-1303787Y-1640961D01*
X-1464302Y-1455907D02*
G01*
X-1464302Y-1330904D01*
X-1304297Y-1455907D02*
G01*
X-1304297Y-1330904D01*
X-1303787Y-1640961D02*
G01*
X-1463791Y-1640961D01*
X-2578100Y-1282700D02*
G01*
X-2832100Y-1282700D01*
X-2832100Y495300D01*
X-2578100Y495300D01*
X-2578100Y-1282700D01*
D33*
X-1231900Y-439709D02*
G01*
X-1620809Y-50800D01*
X-1231900Y338109D01*
X-842990Y-50800D01*
X-1231900Y-439709D01*
D10*
X169999Y-1602790D02*
G01*
X-169999Y-1602790D01*
X169999Y-802792D02*
G01*
X-169999Y-802792D01*
X169999Y-802792D02*
G01*
X169999Y-839680D01*
X169999Y-1015908D02*
G01*
X169999Y-1389679D01*
X169999Y-1565907D02*
G01*
X169999Y-1602790D01*
X-169999Y-802792D02*
G01*
X-169999Y-839680D01*
X-169999Y-1015908D02*
G01*
X-169999Y-1389679D01*
X-169999Y-1565907D02*
G01*
X-169999Y-1602790D01*
X381000Y-1968500D02*
G01*
X381000Y-2222500D01*
X-889000Y-2222500D01*
X-889000Y-1968500D01*
X381000Y-1968500D01*
D33*
X-2398420Y-1634489D02*
G01*
X-2288413Y-1634489D01*
X-2288413Y-1794509D01*
X-2398420Y-1794509D01*
X-2478405Y-1634489D02*
G01*
X-2588412Y-1634489D01*
X-2588412Y-1734489D01*
X-2588412Y-1794509D01*
X-2478405Y-1794509D01*
D10*
X-2070100Y3526688D02*
G01*
X-2730500Y3526688D01*
X-2730500Y3526688D02*
G01*
X-2730500Y4126128D01*
X-2730500Y4126128D02*
G01*
X-2070100Y4126128D01*
X-2070100Y4126128D02*
G01*
X-2070100Y3526688D01*
X-1485900Y727608D02*
G01*
X-1485900Y981608D01*
X-215900Y981608D01*
X-215900Y727608D01*
X-1485900Y727608D01*
X-2832100Y3331108D02*
G01*
X-2578100Y3331108D01*
X-2578100Y791108D01*
X-2832100Y791108D01*
X-2832100Y3331108D01*
X-2882900Y-2209800D02*
G01*
X-2882900Y-1955800D01*
X-2120900Y-1955800D01*
X-2120900Y-2209800D01*
X-2882900Y-2209800D01*
D34*
X-1841703Y-2228707D02*
G01*
X-1841703Y-2202799D01*
X-1841703Y-1974707D02*
G01*
X-1841703Y-1783699D01*
X-1790903Y-1783699D01*
X-1053795Y-2202799D02*
G01*
X-1053795Y-2228707D01*
X-1053795Y-1974707D02*
G01*
X-1053795Y-1783699D01*
X-1104849Y-1783699D01*
D10*
X-2410404Y3365406D02*
G01*
X-2410404Y3525410D01*
X-2595465Y3524900D02*
G01*
X-2720461Y3524900D01*
X-2595465Y3364895D02*
G01*
X-2720461Y3364895D01*
X-2535407Y3525410D02*
G01*
X-2410404Y3525410D01*
X-2535407Y3365406D02*
G01*
X-2410404Y3365406D01*
X-2720461Y3364895D02*
G01*
X-2720461Y3524900D01*
X-1178872Y-1042469D02*
G01*
X-1065730Y-929327D01*
X-1196949Y-798829D02*
G01*
X-1285336Y-710445D01*
X-1310091Y-911971D02*
G01*
X-1398475Y-823584D01*
X-1154122Y-840938D02*
G01*
X-1065730Y-929327D01*
X-1267261Y-954077D02*
G01*
X-1178872Y-1042469D01*
X-1398475Y-823584D02*
G01*
X-1285336Y-710445D01*
X-1865200Y998606D02*
G01*
X-65199Y998608D01*
X-65199Y4141607D02*
G01*
X-1865200Y4141607D01*
X-1727200Y3521608D02*
G01*
X-711200Y3521608D01*
X-711200Y3013608D01*
X-203200Y3013608D01*
X-203200Y1108608D01*
X-1727200Y1108608D01*
X-1727200Y3521608D01*
X-1689100Y3394608D02*
G01*
X-1536700Y3445408D01*
X-1536700Y3343808D01*
X-1689100Y3394608D01*
X-1865200Y4141607D02*
G01*
X-1865200Y3462723D01*
X-1865200Y1040493D02*
G01*
X-1865200Y998606D01*
X-65199Y998608D02*
G01*
X-65199Y1040493D01*
X-65199Y3462723D02*
G01*
X-65199Y4141607D01*
D33*
X-2785110Y-1433220D02*
G01*
X-2785110Y-1323212D01*
X-2625090Y-1323212D01*
X-2625090Y-1433220D01*
X-2785110Y-1513204D02*
G01*
X-2785110Y-1623212D01*
X-2685110Y-1623212D01*
X-2625090Y-1623212D01*
X-2625090Y-1513204D01*
X-2294897Y-1270099D02*
G01*
X-2454902Y-1270101D01*
X-2294897Y-1600100D02*
G01*
X-2454902Y-1600103D01*
D10*
X285597Y-1545691D02*
G01*
X793597Y-1545691D01*
X793597Y3534308D01*
X285597Y3534308D01*
X285597Y-1545691D01*
X539597Y-1291691D02*
G01*
X539597Y-1545691D01*
X793597Y-1291691D02*
G01*
X539597Y-1291691D01*
X250189Y2540D02*
G01*
X250189Y632460D01*
X-199390Y2540D02*
G01*
X-199390Y632460D01*
G75*
G01*
X-228501Y-422598D02*
G02*
X-208501Y-402598I20000J0D01*
G75*
G01*
X-228501Y-542600D02*
G03*
X-208498Y-562602I20003J0D01*
G75*
G01*
X101501Y-422598D02*
G03*
X81501Y-402598I-20000J0D01*
G75*
G01*
X101501Y-542600D02*
G02*
X81498Y-562602I-20003J0D01*
G75*
G01*
X101501Y-745802D02*
G02*
X81501Y-765802I-20000J0D01*
G75*
G01*
X101501Y-625800D02*
G03*
X81498Y-605798I-20003J0D01*
G75*
G01*
X-228501Y-745802D02*
G03*
X-208501Y-765802I20000J0D01*
G75*
G01*
X-228501Y-625800D02*
G02*
X-208498Y-605798I20003J0D01*
G75*
G01*
X-377502Y-50701D02*
G02*
X-397502Y-30701I0J20000D01*
G75*
G01*
X-257500Y-50701D02*
G03*
X-237498Y-30698I0J20003D01*
G75*
G01*
X-377502Y279301D02*
G03*
X-397502Y259301I0J-20000D01*
G75*
G01*
X-257500Y279301D02*
G02*
X-237498Y259298I0J-20003D01*
G75*
G01*
X-257498Y698401D02*
G02*
X-237498Y678401I0J-20000D01*
G75*
G01*
X-377500Y698401D02*
G03*
X-397502Y678398I0J-20003D01*
G75*
G01*
X-257498Y368399D02*
G03*
X-237498Y388399I0J20000D01*
G75*
G01*
X-377500Y368399D02*
G02*
X-397502Y388402I0J20003D01*
D35*
G75*
G01*
X-696318Y-3025D02*
G03*
X-696496Y-2845I10593J10622D01*
D12*
G75*
G01*
X-959620Y-64808D02*
G03*
X-959797Y-64630I14053J14231D01*
D36*
G75*
G01*
X-2612400Y-1340099D02*
G03*
X-2612400Y-1339845I12445J127D01*
D10*
G75*
G01*
X-199390Y2540D02*
G03*
X250190Y2540I224790J0D01*
G75*
G01*
X250190Y632460D02*
G03*
X-199390Y632460I-224790J0D01*
G75*
G01
X-201701Y-821792D02*
G03X-201701Y-821792I-14199J0D01*
G75*
G01
X-2250440Y3826408D02*
G03X-2250440Y3826408I-149860J0D01*
G75*
G01
X-2301240Y3826408D02*
G03X-2301240Y3826408I-99060J0D01*
G75*
G01
X869798Y-1418692D02*
G03X869798Y-1418692I-12700J0D01*
M02*
