G04 Layer: TopPasteMaskLayer*
G04 EasyEDA v6.4.20.6, 2021-08-18T22:46:37+02:00*
G04 e60a8e21afaf4db98b740634109285cb,0ed378226b2144edad32923a29bf2ba1,10*
G04 Gerber Generator version 0.2*
G04 Scale: 100 percent, Rotated: No, Reflected: No *
G04 Dimensions in millimeters *
G04 leading zeros omitted , absolute positions ,4 integer and 5 decimal *
%FSLAX45Y45*%
%MOMM*%

%ADD14C,0.2800*%
%ADD17R,1.1000X1.0000*%
%ADD18R,1.0000X1.1000*%
%ADD19R,1.9000X1.3000*%
%ADD20R,3.2004X1.1989*%
%ADD21R,0.4500X1.3800*%
%ADD22R,1.4750X2.1000*%
%ADD23R,2.3750X1.9000*%
%ADD24R,1.1750X1.9000*%
%ADD25R,2.0000X0.9000*%
%ADD26R,6.0000X6.0000*%
%ADD27R,1.0000X0.8000*%
%ADD28R,1.0000X0.6000*%

%LPD*%
D14*
X-697313Y94861D02*
G01*
X-804791Y-12616D01*
X-732696Y130218D02*
G01*
X-840173Y22740D01*
X-768027Y165574D02*
G01*
X-875504Y58097D01*
X-803409Y200931D02*
G01*
X-910887Y93454D01*
X-838741Y236288D02*
G01*
X-946218Y128811D01*
X-874097Y271645D02*
G01*
X-981575Y164167D01*
X-909454Y307002D02*
G01*
X-1016932Y199524D01*
X-944811Y342358D02*
G01*
X-1052288Y234881D01*
X-980168Y377690D02*
G01*
X-1087645Y270212D01*
X-1015525Y413072D02*
G01*
X-1123002Y305595D01*
X-1050881Y448403D02*
G01*
X-1158359Y340926D01*
X-1086238Y483786D02*
G01*
X-1193716Y376308D01*
X-1270083Y376308D02*
G01*
X-1377561Y483786D01*
X-1305440Y340926D02*
G01*
X-1412918Y448403D01*
X-1340797Y305595D02*
G01*
X-1448274Y413072D01*
X-1376154Y270212D02*
G01*
X-1483631Y377690D01*
X-1411511Y234881D02*
G01*
X-1518988Y342358D01*
X-1446867Y199524D02*
G01*
X-1554345Y307002D01*
X-1482224Y164167D02*
G01*
X-1589702Y271645D01*
X-1517581Y128811D02*
G01*
X-1625058Y236288D01*
X-1552938Y93454D02*
G01*
X-1660415Y200931D01*
X-1588295Y58097D02*
G01*
X-1695772Y165574D01*
X-1623626Y22740D02*
G01*
X-1731103Y130218D01*
X-1659008Y-12616D02*
G01*
X-1766486Y94861D01*
X-1659008Y-88983D02*
G01*
X-1766486Y-196461D01*
X-1623626Y-124340D02*
G01*
X-1731103Y-231818D01*
X-1588295Y-159697D02*
G01*
X-1695772Y-267174D01*
X-1552938Y-195054D02*
G01*
X-1660415Y-302531D01*
X-1517581Y-230411D02*
G01*
X-1625058Y-337888D01*
X-1482224Y-265767D02*
G01*
X-1589702Y-373245D01*
X-1446867Y-301124D02*
G01*
X-1554345Y-408602D01*
X-1411511Y-336481D02*
G01*
X-1518988Y-443958D01*
X-1376154Y-371838D02*
G01*
X-1483631Y-479315D01*
X-1340797Y-407195D02*
G01*
X-1448274Y-514672D01*
X-1305440Y-442526D02*
G01*
X-1412918Y-550003D01*
X-1270083Y-477908D02*
G01*
X-1377561Y-585386D01*
X-1086238Y-585386D02*
G01*
X-1193716Y-477908D01*
X-1050881Y-550003D02*
G01*
X-1158359Y-442526D01*
X-1015525Y-514672D02*
G01*
X-1123002Y-407195D01*
X-980168Y-479315D02*
G01*
X-1087645Y-371838D01*
X-944811Y-443958D02*
G01*
X-1052288Y-336481D01*
X-909454Y-408602D02*
G01*
X-1016932Y-301124D01*
X-874097Y-373245D02*
G01*
X-981575Y-265767D01*
X-838741Y-337888D02*
G01*
X-946218Y-230411D01*
X-803409Y-302531D02*
G01*
X-910887Y-195054D01*
X-768027Y-267174D02*
G01*
X-875504Y-159697D01*
X-732696Y-231818D02*
G01*
X-840173Y-124340D01*
X-697313Y-196461D02*
G01*
X-804791Y-88983D01*
D17*
G01*
X-1879600Y-1479702D03*
G01*
X-1879600Y-1339722D03*
G36*
X413390Y-1634101D02*
G01*
X513389Y-1634101D01*
X513389Y-1744101D01*
X413390Y-1744101D01*
G37*
G36*
X553389Y-1634101D02*
G01*
X653389Y-1634101D01*
X653389Y-1744101D01*
X553389Y-1744101D01*
G37*
G01*
X-2070100Y-1339697D03*
G01*
X-2070100Y-1479702D03*
G36*
X-784148Y-388868D02*
G01*
X-713440Y-318160D01*
X-635657Y-395940D01*
X-706368Y-466651D01*
G37*
G36*
X-685154Y-289874D02*
G01*
X-614443Y-219163D01*
X-536663Y-296946D01*
X-607372Y-367657D01*
G37*
G36*
X-2003348Y-147568D02*
G01*
X-1932640Y-76860D01*
X-1854857Y-154640D01*
X-1925568Y-225351D01*
G37*
G36*
X-1904354Y-48574D02*
G01*
X-1833643Y22136D01*
X-1755863Y-55646D01*
X-1826572Y-126357D01*
G37*
G36*
X-1058931Y-873048D02*
G01*
X-1129639Y-802340D01*
X-1051859Y-724557D01*
X-981148Y-795268D01*
G37*
G36*
X-1157925Y-774054D02*
G01*
X-1228636Y-703343D01*
X-1150853Y-625563D01*
X-1080142Y-696272D01*
G37*
G36*
X-1800148Y538231D02*
G01*
X-1729440Y608939D01*
X-1651657Y531159D01*
X-1722368Y460448D01*
G37*
G36*
X-1701154Y637225D02*
G01*
X-1630443Y707936D01*
X-1552663Y630153D01*
X-1623372Y559442D01*
G37*
G01*
X-520700Y486410D03*
G01*
X-520700Y326415D03*
G01*
X-1181100Y-1565909D03*
G01*
X-1181100Y-1405915D03*
G36*
X-203497Y-427598D02*
G01*
X-103497Y-427598D01*
X-103497Y-537601D01*
X-203497Y-537601D01*
G37*
G36*
X-23487Y-427598D02*
G01*
X76512Y-427598D01*
X76512Y-537601D01*
X-23487Y-537601D01*
G37*
D18*
G01*
X26492Y-685800D03*
G01*
X-153517Y-685800D03*
D17*
G01*
X-317500Y24307D03*
G01*
X-317500Y204317D03*
G01*
X-317500Y623392D03*
G01*
X-317500Y443382D03*
G01*
X-1587500Y-1565909D03*
G01*
X-1587500Y-1405915D03*
G01*
X-1384300Y-1565909D03*
G01*
X-1384300Y-1405915D03*
D19*
G01*
X-159994Y-927785D03*
G01*
X-159994Y-1477797D03*
G01*
X159994Y-1477797D03*
G01*
X159994Y-927785D03*
G36*
X-2558409Y-1659501D02*
G01*
X-2458410Y-1659501D01*
X-2458410Y-1769501D01*
X-2558409Y-1769501D01*
G37*
G36*
X-2418410Y-1659501D02*
G01*
X-2318410Y-1659501D01*
X-2318410Y-1769501D01*
X-2418410Y-1769501D01*
G37*
D20*
G01*
X-2059940Y3625748D03*
G01*
X-2740660Y3625748D03*
G01*
X-2740660Y4027068D03*
G01*
X-2059940Y4027068D03*
D21*
G01*
X-1577797Y-1822805D03*
G01*
X-1512798Y-1822805D03*
G01*
X-1447800Y-1822856D03*
G01*
X-1382801Y-1822805D03*
G01*
X-1317802Y-1822805D03*
D22*
G01*
X-1694053Y-1858797D03*
G01*
X-1201547Y-1858797D03*
D23*
G01*
X-1738807Y-2088794D03*
G01*
X-1156792Y-2088794D03*
D24*
G01*
X-1531797Y-2088794D03*
G01*
X-1363802Y-2088794D03*
D18*
G01*
X-2645410Y3445408D03*
G01*
X-2485415Y3445408D03*
G36*
X-1292009Y-893973D02*
G01*
X-1362720Y-823262D01*
X-1284937Y-745479D01*
X-1214226Y-816190D01*
G37*
G36*
X-1178872Y-1007109D02*
G01*
X-1249583Y-936398D01*
X-1171801Y-858616D01*
X-1101090Y-929327D01*
G37*
D25*
G01*
X-1865198Y3394608D03*
G01*
X-1865198Y3267608D03*
G01*
X-1865198Y3140608D03*
G01*
X-1865198Y3013608D03*
G01*
X-1865198Y2886608D03*
G01*
X-1865198Y2759608D03*
G01*
X-1865198Y2632608D03*
G01*
X-1865198Y2505608D03*
G01*
X-1865198Y2378608D03*
G01*
X-1865198Y2251608D03*
G01*
X-1865198Y2124608D03*
G01*
X-1865198Y1997608D03*
G01*
X-1865198Y1870608D03*
G01*
X-1865198Y1743608D03*
G01*
X-1865198Y1616608D03*
G01*
X-1865198Y1489608D03*
G01*
X-1865198Y1362608D03*
G01*
X-1865198Y1235608D03*
G01*
X-1865198Y1108608D03*
G01*
X-65201Y1108608D03*
G01*
X-65201Y1235608D03*
G01*
X-65201Y1362608D03*
G01*
X-65201Y1489608D03*
G01*
X-65201Y1616608D03*
G01*
X-65201Y1743608D03*
G01*
X-65201Y1870608D03*
G01*
X-65201Y1997608D03*
G01*
X-65201Y2124608D03*
G01*
X-65201Y2251608D03*
G01*
X-65201Y2378608D03*
G01*
X-65201Y2505608D03*
G01*
X-65201Y2632608D03*
G01*
X-65201Y2759608D03*
G01*
X-65201Y2886608D03*
G01*
X-65201Y3013608D03*
G01*
X-65201Y3140608D03*
G01*
X-65201Y3267608D03*
G01*
X-65201Y3394608D03*
D26*
G01*
X-1103198Y2615615D03*
D17*
G01*
X-2705100Y-1543202D03*
G01*
X-2705100Y-1403222D03*
D27*
G01*
X-2254910Y-1340103D03*
G01*
X-2254910Y-1530095D03*
G01*
X-2494889Y-1530095D03*
D28*
G01*
X-2494889Y-1435100D03*
D27*
G01*
X-2494889Y-1340103D03*
M02*
