G04 Layer: BottomSolderMaskLayer*
G04 EasyEDA v6.4.20.6, 2021-08-18T22:46:37+02:00*
G04 e60a8e21afaf4db98b740634109285cb,0ed378226b2144edad32923a29bf2ba1,10*
G04 Gerber Generator version 0.2*
G04 Scale: 100 percent, Rotated: No, Reflected: No *
G04 Dimensions in millimeters *
G04 leading zeros omitted , absolute positions ,4 integer and 5 decimal *
%FSLAX45Y45*%
%MOMM*%

%ADD44C,1.8542*%
%ADD55R,1.8032X1.8032*%
%ADD56C,1.8032*%

%LPD*%
G36*
X-2797708Y-1248511D02*
G01*
X-2797708Y-1063091D01*
X-2612288Y-1063091D01*
X-2612288Y-1248511D01*
G37*
D44*
G01*
X-2705100Y-901700D03*
G01*
X-2705100Y-647700D03*
G01*
X-2705100Y-393700D03*
G01*
X-2705100Y-139700D03*
G01*
X-2705100Y114300D03*
G01*
X-2705100Y368300D03*
G36*
X161391Y-2188311D02*
G01*
X161391Y-2002891D01*
X346811Y-2002891D01*
X346811Y-2188311D01*
G37*
G01*
X0Y-2095500D03*
G01*
X-254000Y-2095500D03*
G01*
X-508000Y-2095500D03*
G01*
X-762000Y-2095500D03*
G36*
X-1451508Y761898D02*
G01*
X-1451508Y947318D01*
X-1266088Y947318D01*
X-1266088Y761898D01*
G37*
G01*
X-1104900Y854608D03*
G01*
X-850900Y854608D03*
G01*
X-596900Y854608D03*
G01*
X-342900Y854608D03*
G36*
X-2797708Y3111398D02*
G01*
X-2797708Y3296818D01*
X-2612288Y3296818D01*
X-2612288Y3111398D01*
G37*
G01*
X-2705100Y2950108D03*
G01*
X-2705100Y2696108D03*
G01*
X-2705100Y2442108D03*
G01*
X-2705100Y2188108D03*
G01*
X-2705100Y1934108D03*
G01*
X-2705100Y1680108D03*
G01*
X-2705100Y1426108D03*
G01*
X-2705100Y1172108D03*
G01*
X-2705100Y918108D03*
G36*
X-2848508Y-2175611D02*
G01*
X-2848508Y-1990191D01*
X-2663088Y-1990191D01*
X-2663088Y-2175611D01*
G37*
G01*
X-2501900Y-2082800D03*
G01*
X-2247900Y-2082800D03*
D55*
G01*
X666597Y-1418691D03*
D56*
G01*
X412597Y-1418691D03*
G01*
X666597Y-1164691D03*
G01*
X412597Y-1164691D03*
G01*
X666597Y-910691D03*
G01*
X412597Y-910691D03*
G01*
X666597Y-656691D03*
G01*
X412597Y-656691D03*
G01*
X666597Y-402691D03*
G01*
X412597Y-402691D03*
G01*
X666597Y-148691D03*
G01*
X412597Y-148691D03*
G01*
X666597Y105308D03*
G01*
X412597Y105308D03*
G01*
X666597Y359308D03*
G01*
X412597Y359308D03*
G01*
X666597Y613308D03*
G01*
X412597Y613308D03*
G01*
X666597Y867308D03*
G01*
X412597Y867308D03*
G01*
X666597Y1121308D03*
G01*
X412597Y1121308D03*
G01*
X666597Y1375308D03*
G01*
X412597Y1375308D03*
G01*
X666597Y1629308D03*
G01*
X412597Y1629308D03*
G01*
X666597Y1883308D03*
G01*
X412597Y1883308D03*
G01*
X666597Y2137308D03*
G01*
X412597Y2137308D03*
G01*
X666597Y2391308D03*
G01*
X412597Y2391308D03*
G01*
X666597Y2645308D03*
G01*
X412597Y2645308D03*
G01*
X666597Y2899308D03*
G01*
X412597Y2899308D03*
G01*
X666597Y3153308D03*
G01*
X412597Y3153308D03*
G01*
X666597Y3407308D03*
G01*
X412597Y3407308D03*
G01*
X25400Y72491D03*
G01*
X25400Y562508D03*
M02*
