M48
METRIC,LZ,000.000
;FILE_FORMAT=3:3
;TYPE=PLATED
;Layer: Drill PTH
;EasyEDA v6.4.20.6, 2021-08-18T22:46:37+02:00
;e60a8e21afaf4db98b740634109285cb,0ed378226b2144edad32923a29bf2ba1,10
;Gerber Generator version 0.2
;Holesize 1 = 0.305 mm
T01C0.305
;Holesize 2 = 0.701 mm
T02C0.701
;Holesize 3 = 0.889 mm
T03C0.889
;Holesize 4 = 1.000 mm
T04C1.000
%
G05
G90
T01
X-007747Y-010414
X-009525Y-012192
X-022352Y008001
X-004064Y010668
X-020955Y001143
X-018669Y001143
X-001016Y008509
X-001778Y007747
X-005588Y029337
X-008128Y010541
X-013589Y018415
X-016383Y026797
X-016383Y030734
X-006096Y-000508
X-004953Y-001651
X-003048Y-002921
X-007874Y-005334
X-003556Y-008001
X-003556Y-013208
X-005969Y-012573
X-003556Y-018923
X-006604Y-016256
X-009398Y-014986
X-020701Y-009017
X-017145Y-004191
X-020955Y-001270
X-016129Y008255
X-021209Y005715
X-016510Y004064
X002667Y005842
X002667Y003175
X002667Y002286
X002667Y001397
X002667Y000508
X002667Y-000381
X002667Y004064
X002667Y004953
X002667Y006731
X002286Y007620
X001778Y008255
X001016Y008636
X-000127Y008763
X-002159Y006858
X-002159Y005715
X-002159Y003175
X-002159Y000127
X002413Y-001270
X001778Y-001905
X001016Y-002286
X000127Y-002413
X-000762Y-002159
X-001524Y-001651
X-002032Y-000889
X-014351Y000508
X-010795Y-001905
X-015113Y-000508
X-012319Y-003175
X-010033Y-009779
X-008382Y020320
X-008382Y011557
X-012065Y002032
X-009779Y020320
X008763Y024638
X-012446Y000635
X000762Y022516
X-011811Y001270
X-018923Y-018796
X-009652Y-021082
X008636Y-016891
X-018542Y-006731
X-018415Y-009017
X-006604Y-008001
X-018669Y004445
X-012065Y002794
X-013843Y-009144
X-017907Y-011303
X-012827Y-017018
X-015748Y-017018
X-005080Y-006096
X-012319Y-006096
X-013716Y-001524
X-005080Y-013716
X-015621Y007112
X-009271Y004826
X-016383Y024892
X-016383Y028702
X-013589Y021627
X-013208Y011721
X-016637Y011721
X-013589Y025691
X-012573Y025691
X-011557Y025691
X-010541Y025691
X-009525Y025691
X-008509Y025691
X-008509Y024675
X-009525Y024675
X-010541Y024675
X-011557Y024675
X-012573Y024675
X-013589Y024675
X-008509Y023659
X-009525Y023659
X-010541Y023659
X-011557Y023659
X-013589Y023659
X-012573Y023659
X-008509Y026707
X-009525Y026707
X-010541Y026707
X-011557Y026707
X-013589Y026707
X-012573Y026707
X-008509Y027723
X-009525Y027723
X-010541Y027723
X-011557Y027723
X-013589Y027723
X-012573Y027723
X-008509Y028739
X-009525Y028739
X-010541Y028739
X-011557Y028739
X-012573Y028739
X-013589Y028739
X-008001Y034327
X-011684Y034327
X-011684Y032422
X-008001Y032422
X-016383Y032422
X-004826Y011684
X-020574Y035216
X-020574Y031406
X-022225Y-010160
X002159Y016039
X-012446Y016039
X001778Y030644
X002159Y018706
X-016637Y013626
X-011049Y018669
X-016383Y034327
X-002667Y027559
X000889Y025056
X002413Y023786
X000889Y023786
X-016764Y014896
X-012319Y013843
X-012319Y012954
X-024765Y032676
X-021209Y027178
X-021209Y028067
X-018542Y-016129
X-009398Y-018669
X002159Y-010795
X002159Y-011684
X002159Y-012573
X002159Y-013462
X-002159Y-010795
X-002159Y-011684
X-002159Y-012573
X-002159Y-013462
X-020955Y-003810
X-022225Y-000127
X-020701Y-017145
X-019177Y009779
X-020193Y008128
T02
X000254Y000725
X000254Y005625
T03
X-027051Y-011557
X-027051Y-009017
X-027051Y-006477
X-027051Y-003937
X-027051Y-001397
X-027051Y001143
X-027051Y003683
X002540Y-020955
X000000Y-020955
X-002540Y-020955
X-005080Y-020955
X-007620Y-020955
X-013589Y008546
X-011049Y008546
X-008509Y008546
X-005969Y008546
X-003429Y008546
X-027051Y032041
X-027051Y029501
X-027051Y026961
X-027051Y024421
X-027051Y021881
X-027051Y019341
X-027051Y016801
X-027051Y014261
X-027051Y011721
X-027051Y009181
X-027559Y-020828
X-025019Y-020828
X-022479Y-020828
T04
X006666Y-014187
X004126Y-014187
X006666Y-011647
X004126Y-011647
X006666Y-009107
X004126Y-009107
X006666Y-006567
X004126Y-006567
X006666Y-004027
X004126Y-004027
X006666Y-001487
X004126Y-001487
X006666Y001053
X004126Y001053
X006666Y003593
X004126Y003593
X006666Y006133
X004126Y006133
X006666Y008673
X004126Y008673
X006666Y011213
X004126Y011213
X006666Y013753
X004126Y013753
X006666Y016293
X004126Y016293
X006666Y018833
X004126Y018833
X006666Y021373
X004126Y021373
X006666Y023913
X004126Y023913
X006666Y026453
X004126Y026453
X006666Y028993
X004126Y028993
X006666Y031533
X004126Y031533
X006666Y034073
X004126Y034073
M30
