G04 Layer: BottomLayer*
G04 EasyEDA v6.4.20.6, 2021-08-18T22:46:37+02:00*
G04 e60a8e21afaf4db98b740634109285cb,0ed378226b2144edad32923a29bf2ba1,10*
G04 Gerber Generator version 0.2*
G04 Scale: 100 percent, Rotated: No, Reflected: No *
G04 Dimensions in millimeters *
G04 leading zeros omitted , absolute positions ,4 integer and 5 decimal *
%FSLAX45Y45*%
%MOMM*%

%ADD11C,0.2560*%
%ADD12C,0.4000*%
%ADD15C,0.6100*%
%ADD16C,0.6096*%
%ADD29R,1.6510X1.6510*%
%ADD30C,1.6510*%
%ADD31R,1.6000X1.6000*%
%ADD32C,1.6000*%

%LPD*%
G36*
X-2179370Y2827731D02*
G01*
X-2180844Y2827832D01*
X-2183587Y2828696D01*
X-2186025Y2830220D01*
X-2187956Y2832404D01*
X-2189124Y2835046D01*
X-2189530Y2837891D01*
X-2189530Y3026308D01*
X-2189988Y3032810D01*
X-2191410Y3039160D01*
X-2192426Y3042259D01*
X-2195118Y3048203D01*
X-2198674Y3053689D01*
X-2202942Y3058566D01*
X-2265730Y3121406D01*
X-2267610Y3123946D01*
X-2268220Y3125419D01*
X-2268677Y3128568D01*
X-2268575Y3276803D01*
X-2268220Y3278327D01*
X-2266797Y3281121D01*
X-2265832Y3282340D01*
X-2112111Y3397605D01*
X-2109216Y3399129D01*
X-2107641Y3399536D01*
X-2104593Y3399536D01*
X-2101799Y3398723D01*
X-2099360Y3397148D01*
X-2097481Y3394964D01*
X-2096262Y3392373D01*
X-2095855Y3389477D01*
X-2095957Y3184144D01*
X-2096871Y3181248D01*
X-2098548Y3178759D01*
X-2100884Y3176117D01*
X-2104948Y3170478D01*
X-2108301Y3164332D01*
X-2110841Y3157829D01*
X-2112568Y3151022D01*
X-2113432Y3144113D01*
X-2113432Y3137204D01*
X-2112619Y3130499D01*
X-2110994Y3123895D01*
X-2108606Y3117545D01*
X-2105456Y3111550D01*
X-2101596Y3106013D01*
X-2097074Y3100933D01*
X-2091994Y3096412D01*
X-2086457Y3092551D01*
X-2080463Y3089402D01*
X-2074113Y3087014D01*
X-2067509Y3085388D01*
X-2060803Y3084576D01*
X-2053996Y3084576D01*
X-2047290Y3085388D01*
X-2040686Y3087014D01*
X-2034336Y3089402D01*
X-2028342Y3092551D01*
X-2022805Y3096412D01*
X-2017725Y3100933D01*
X-2013204Y3106013D01*
X-2009343Y3111550D01*
X-2006193Y3117545D01*
X-2003806Y3123895D01*
X-2002180Y3130499D01*
X-2001367Y3137204D01*
X-2001367Y3144113D01*
X-2002231Y3151022D01*
X-2003958Y3157829D01*
X-2006498Y3164332D01*
X-2009851Y3170478D01*
X-2013966Y3176117D01*
X-2017166Y3179978D01*
X-2018487Y3182670D01*
X-2018944Y3185668D01*
X-2018842Y3463899D01*
X-2018487Y3465423D01*
X-2017064Y3468217D01*
X-2014880Y3470452D01*
X-1969820Y3504082D01*
X-1966772Y3505098D01*
X-1965198Y3505250D01*
X-721512Y3517798D01*
X-718667Y3517392D01*
X-716026Y3516172D01*
X-713841Y3514293D01*
X-712266Y3511854D01*
X-711454Y3509060D01*
X-711454Y3064408D01*
X-711200Y3058515D01*
X-711606Y3055670D01*
X-712825Y3053029D01*
X-714705Y3050844D01*
X-717143Y3049270D01*
X-719937Y3048457D01*
X-1832406Y3048355D01*
X-1838452Y3047898D01*
X-1844293Y3046476D01*
X-1849882Y3044139D01*
X-1855012Y3040989D01*
X-1857400Y3039160D01*
X-2049780Y2847086D01*
X-2052624Y2845663D01*
X-2054148Y2845257D01*
X-2077364Y2845257D01*
X-2080209Y2846171D01*
X-2082749Y2847848D01*
X-2085390Y2850184D01*
X-2091029Y2854248D01*
X-2097176Y2857601D01*
X-2103678Y2860141D01*
X-2110486Y2861868D01*
X-2117394Y2862732D01*
X-2124456Y2862732D01*
X-2131517Y2861818D01*
X-2138426Y2860040D01*
X-2141778Y2858820D01*
X-2148230Y2855722D01*
X-2154224Y2851861D01*
X-2159660Y2847289D01*
X-2164537Y2842056D01*
X-2168652Y2836214D01*
X-2171242Y2831795D01*
X-2173528Y2829610D01*
X-2176322Y2828239D01*
G37*

%LPD*%
G36*
X922883Y2500833D02*
G01*
X921308Y2500934D01*
X919784Y2501290D01*
X916940Y2502712D01*
X913079Y2506218D01*
X907287Y2510637D01*
X900937Y2514244D01*
X894181Y2516987D01*
X890727Y2518054D01*
X883564Y2519476D01*
X879957Y2519832D01*
X872642Y2519832D01*
X868984Y2519476D01*
X861821Y2518054D01*
X854913Y2515717D01*
X848360Y2512466D01*
X845261Y2510586D01*
X840892Y2507538D01*
X839368Y2506878D01*
X836117Y2506370D01*
X833272Y2506776D01*
X830630Y2507996D01*
X828446Y2509875D01*
X826871Y2512314D01*
X826058Y2515057D01*
X825957Y2778404D01*
X825500Y2784398D01*
X824077Y2790291D01*
X821740Y2795879D01*
X818591Y2801010D01*
X816762Y2803398D01*
X768096Y2852166D01*
X766267Y2854756D01*
X765251Y2857754D01*
X765302Y2861157D01*
X767283Y2867253D01*
X769721Y2876245D01*
X771347Y2885389D01*
X772160Y2894634D01*
X772160Y2904032D01*
X771296Y2913481D01*
X769620Y2922828D01*
X767080Y2931972D01*
X763727Y2940812D01*
X759612Y2949397D01*
X754786Y2957525D01*
X749198Y2965196D01*
X742950Y2972308D01*
X736092Y2978861D01*
X728675Y2984804D01*
X720801Y2989986D01*
X712419Y2994507D01*
X703732Y2998216D01*
X694690Y3001162D01*
X690118Y3002330D01*
X680770Y3004007D01*
X671322Y3004870D01*
X661873Y3004870D01*
X652424Y3004007D01*
X643077Y3002330D01*
X633933Y2999790D01*
X625094Y2996438D01*
X616508Y2992323D01*
X608380Y2987497D01*
X600710Y2981909D01*
X593598Y2975660D01*
X587044Y2968802D01*
X581101Y2961386D01*
X575919Y2953512D01*
X571398Y2945130D01*
X567690Y2936443D01*
X564743Y2927400D01*
X563575Y2922828D01*
X561898Y2913481D01*
X561035Y2904032D01*
X561035Y2894584D01*
X561898Y2885135D01*
X563575Y2875788D01*
X566115Y2866644D01*
X569468Y2857804D01*
X573582Y2849219D01*
X578408Y2841091D01*
X583996Y2833420D01*
X590245Y2826308D01*
X597103Y2819755D01*
X604520Y2813812D01*
X612394Y2808630D01*
X620776Y2804109D01*
X629462Y2800400D01*
X638505Y2797454D01*
X643077Y2796286D01*
X652424Y2794609D01*
X661873Y2793746D01*
X671271Y2793746D01*
X680516Y2794558D01*
X689660Y2796184D01*
X698652Y2798622D01*
X704748Y2800604D01*
X708152Y2800654D01*
X711149Y2799638D01*
X713740Y2797810D01*
X747115Y2764231D01*
X748538Y2761386D01*
X748944Y2759862D01*
X749046Y2735783D01*
X748639Y2732938D01*
X747420Y2730296D01*
X745540Y2728112D01*
X743102Y2726537D01*
X740308Y2725724D01*
X737158Y2725775D01*
X735533Y2726182D01*
X733958Y2726893D01*
X728776Y2730754D01*
X720852Y2735986D01*
X712520Y2740456D01*
X703783Y2744216D01*
X694740Y2747162D01*
X685495Y2749245D01*
X680821Y2750007D01*
X671322Y2750870D01*
X661924Y2750870D01*
X652576Y2750007D01*
X643331Y2748381D01*
X634288Y2745892D01*
X625500Y2742641D01*
X617016Y2738628D01*
X608939Y2733852D01*
X601319Y2728417D01*
X594207Y2722270D01*
X587705Y2715564D01*
X585012Y2713431D01*
X583438Y2712720D01*
X581812Y2712313D01*
X578662Y2712262D01*
X575868Y2713075D01*
X573430Y2714650D01*
X571550Y2716834D01*
X570331Y2719476D01*
X569315Y2722575D01*
X568045Y2725521D01*
X566521Y2728366D01*
X562762Y2733649D01*
X511301Y2785160D01*
X506425Y2788666D01*
X501040Y2791409D01*
X498195Y2792476D01*
X492302Y2793898D01*
X486308Y2794355D01*
X477672Y2794457D01*
X474929Y2795270D01*
X472490Y2796844D01*
X470560Y2799029D01*
X469392Y2801670D01*
X468985Y2804515D01*
X469087Y2806141D01*
X470103Y2809189D01*
X472033Y2811780D01*
X477164Y2815691D01*
X484530Y2821940D01*
X491286Y2828798D01*
X497382Y2836265D01*
X502767Y2844292D01*
X507441Y2852724D01*
X511301Y2861564D01*
X514299Y2870708D01*
X515518Y2875381D01*
X517245Y2884881D01*
X518159Y2894482D01*
X518159Y2904032D01*
X517296Y2913481D01*
X515620Y2922828D01*
X513080Y2931972D01*
X509727Y2940812D01*
X505612Y2949397D01*
X500786Y2957525D01*
X495198Y2965196D01*
X488950Y2972308D01*
X482092Y2978861D01*
X474675Y2984804D01*
X466801Y2989986D01*
X458419Y2994507D01*
X449732Y2998216D01*
X440690Y3001162D01*
X436118Y3002330D01*
X426770Y3004007D01*
X417322Y3004870D01*
X407873Y3004870D01*
X398424Y3004007D01*
X389077Y3002330D01*
X379933Y2999790D01*
X371094Y2996438D01*
X362508Y2992323D01*
X354380Y2987497D01*
X346710Y2981909D01*
X339598Y2975660D01*
X333044Y2968802D01*
X327101Y2961386D01*
X321919Y2953512D01*
X317398Y2945130D01*
X313690Y2936443D01*
X310743Y2927400D01*
X309575Y2922828D01*
X307898Y2913481D01*
X307035Y2904032D01*
X307035Y2894482D01*
X307949Y2884881D01*
X309676Y2875381D01*
X312318Y2866136D01*
X313893Y2861564D01*
X317754Y2852724D01*
X322427Y2844292D01*
X327812Y2836265D01*
X333908Y2828798D01*
X340664Y2821940D01*
X348030Y2815691D01*
X353161Y2811780D01*
X355092Y2809189D01*
X356108Y2806141D01*
X356108Y2803093D01*
X355295Y2800299D01*
X354634Y2799029D01*
X352704Y2796844D01*
X350266Y2795270D01*
X347522Y2794457D01*
X-223164Y2794457D01*
X-226009Y2795371D01*
X-228549Y2797048D01*
X-231190Y2799384D01*
X-236829Y2803448D01*
X-242976Y2806801D01*
X-249478Y2809341D01*
X-256286Y2811068D01*
X-263194Y2811932D01*
X-270205Y2811932D01*
X-277114Y2811068D01*
X-283921Y2809341D01*
X-290423Y2806801D01*
X-296570Y2803448D01*
X-302209Y2799384D01*
X-306070Y2796133D01*
X-308762Y2794812D01*
X-310235Y2794457D01*
X-540258Y2794457D01*
X-543255Y2795473D01*
X-544626Y2796286D01*
X-703681Y2955290D01*
X-705104Y2958134D01*
X-705612Y2961284D01*
X-705205Y2964129D01*
X-703986Y2966770D01*
X-702106Y2968955D01*
X-699668Y2970530D01*
X-696874Y2971342D01*
X123393Y2971444D01*
X129387Y2971901D01*
X135280Y2973324D01*
X140868Y2975660D01*
X145999Y2978810D01*
X148386Y2980639D01*
X174345Y3006344D01*
X177038Y3007766D01*
X179984Y3008325D01*
X186842Y3008985D01*
X193548Y3010509D01*
X199999Y3012846D01*
X206146Y3015945D01*
X211836Y3019806D01*
X217068Y3024276D01*
X221640Y3029356D01*
X225602Y3034995D01*
X228854Y3041091D01*
X231343Y3047492D01*
X232968Y3054146D01*
X233832Y3060954D01*
X233832Y3067812D01*
X233019Y3074517D01*
X231394Y3081121D01*
X229006Y3087471D01*
X225856Y3093466D01*
X221996Y3099003D01*
X217474Y3104083D01*
X212394Y3108604D01*
X206857Y3112465D01*
X200863Y3115614D01*
X194513Y3118002D01*
X187909Y3119628D01*
X181203Y3120440D01*
X174345Y3120440D01*
X167538Y3119577D01*
X164134Y3118866D01*
X157581Y3116783D01*
X151333Y3113887D01*
X148336Y3112211D01*
X142697Y3108248D01*
X137617Y3103575D01*
X133096Y3098393D01*
X129285Y3092653D01*
X126187Y3086506D01*
X124917Y3083306D01*
X123037Y3076702D01*
X121920Y3069894D01*
X121513Y3064916D01*
X121158Y3063443D01*
X119735Y3060801D01*
X109220Y3050286D01*
X106375Y3048863D01*
X104851Y3048457D01*
X-154940Y3048355D01*
X-157835Y3048762D01*
X-160426Y3049981D01*
X-162610Y3051860D01*
X-163525Y3053029D01*
X-164693Y3055670D01*
X-165100Y3058515D01*
X-164744Y3064205D01*
X-164642Y3449116D01*
X-163830Y3451910D01*
X-162255Y3454298D01*
X-160070Y3456228D01*
X-157429Y3457397D01*
X-154584Y3457803D01*
X-60502Y3457854D01*
X-54864Y3458718D01*
X-49326Y3460394D01*
X-44145Y3462883D01*
X-39420Y3466134D01*
X-35204Y3470046D01*
X-31648Y3474567D01*
X-30073Y3476955D01*
X-27584Y3482136D01*
X-25908Y3487674D01*
X-25349Y3490468D01*
X-24942Y3496208D01*
X-24841Y4147616D01*
X-24028Y4150410D01*
X-22453Y4152849D01*
X-20269Y4154728D01*
X-17627Y4155948D01*
X-14782Y4156354D01*
X924306Y4156252D01*
X927100Y4155440D01*
X929538Y4153865D01*
X931418Y4151680D01*
X932637Y4149039D01*
X933043Y4146194D01*
X932942Y2509520D01*
X932129Y2506726D01*
X930554Y2504338D01*
X928369Y2502408D01*
X925728Y2501239D01*
G37*

%LPC*%
G36*
X666597Y3047644D02*
G01*
X676046Y3048101D01*
X680770Y3048609D01*
X690118Y3050286D01*
X699262Y3052826D01*
X708101Y3056178D01*
X716686Y3060293D01*
X724814Y3065119D01*
X732485Y3070707D01*
X739597Y3076956D01*
X746150Y3083814D01*
X752094Y3091230D01*
X757275Y3099104D01*
X761796Y3107486D01*
X765505Y3116173D01*
X768451Y3125216D01*
X769620Y3129788D01*
X771296Y3139135D01*
X772160Y3148584D01*
X772160Y3158032D01*
X771296Y3167481D01*
X769620Y3176828D01*
X767080Y3185972D01*
X763727Y3194812D01*
X759612Y3203397D01*
X754786Y3211525D01*
X749198Y3219196D01*
X742950Y3226308D01*
X736092Y3232861D01*
X728675Y3238804D01*
X720801Y3243986D01*
X712419Y3248507D01*
X703732Y3252215D01*
X694690Y3255162D01*
X690118Y3256330D01*
X680770Y3258007D01*
X671322Y3258870D01*
X661873Y3258870D01*
X652424Y3258007D01*
X643077Y3256330D01*
X633933Y3253790D01*
X625094Y3250438D01*
X616508Y3246323D01*
X608380Y3241497D01*
X600710Y3235909D01*
X593598Y3229660D01*
X587044Y3222802D01*
X581101Y3215386D01*
X575919Y3207512D01*
X571398Y3199130D01*
X567690Y3190443D01*
X564743Y3181400D01*
X563575Y3176828D01*
X561898Y3167481D01*
X561035Y3158032D01*
X561035Y3148584D01*
X561898Y3139135D01*
X563575Y3129788D01*
X566115Y3120644D01*
X569468Y3111804D01*
X573582Y3103219D01*
X578408Y3095091D01*
X583996Y3087420D01*
X590245Y3080308D01*
X597103Y3073755D01*
X604520Y3067812D01*
X612394Y3062630D01*
X620776Y3058109D01*
X629462Y3054400D01*
X638505Y3051454D01*
X643077Y3050286D01*
X652424Y3048609D01*
X661873Y3047746D01*
G37*
G36*
X412597Y3047644D02*
G01*
X422046Y3048101D01*
X426770Y3048609D01*
X436118Y3050286D01*
X445262Y3052826D01*
X454101Y3056178D01*
X462686Y3060293D01*
X470814Y3065119D01*
X478485Y3070707D01*
X485597Y3076956D01*
X492150Y3083814D01*
X498093Y3091230D01*
X503275Y3099104D01*
X507796Y3107486D01*
X511505Y3116173D01*
X514451Y3125216D01*
X515620Y3129788D01*
X517296Y3139135D01*
X518159Y3148584D01*
X518159Y3158032D01*
X517296Y3167481D01*
X515620Y3176828D01*
X513080Y3185972D01*
X509727Y3194812D01*
X505612Y3203397D01*
X500786Y3211525D01*
X495198Y3219196D01*
X488950Y3226308D01*
X482092Y3232861D01*
X474675Y3238804D01*
X466801Y3243986D01*
X458419Y3248507D01*
X449732Y3252215D01*
X440690Y3255162D01*
X436118Y3256330D01*
X426770Y3258007D01*
X417322Y3258870D01*
X407873Y3258870D01*
X398424Y3258007D01*
X389077Y3256330D01*
X379933Y3253790D01*
X371094Y3250438D01*
X362508Y3246323D01*
X354380Y3241497D01*
X346710Y3235909D01*
X339598Y3229660D01*
X333044Y3222802D01*
X327101Y3215386D01*
X321919Y3207512D01*
X317398Y3199130D01*
X313690Y3190443D01*
X310743Y3181400D01*
X309575Y3176828D01*
X307898Y3167481D01*
X307035Y3158032D01*
X307035Y3148584D01*
X307898Y3139135D01*
X309575Y3129788D01*
X312115Y3120644D01*
X315468Y3111804D01*
X319582Y3103219D01*
X324408Y3095091D01*
X329996Y3087420D01*
X336245Y3080308D01*
X343103Y3073755D01*
X350520Y3067812D01*
X358394Y3062630D01*
X366776Y3058109D01*
X375462Y3054400D01*
X384505Y3051454D01*
X389077Y3050286D01*
X398424Y3048609D01*
X407873Y3047746D01*
G37*
G36*
X666597Y3301644D02*
G01*
X676046Y3302101D01*
X680770Y3302609D01*
X690118Y3304286D01*
X699262Y3306826D01*
X708101Y3310178D01*
X716686Y3314293D01*
X724814Y3319119D01*
X732485Y3324707D01*
X739597Y3330956D01*
X746150Y3337814D01*
X752094Y3345230D01*
X757275Y3353104D01*
X761796Y3361486D01*
X765505Y3370173D01*
X768451Y3379215D01*
X769620Y3383787D01*
X771296Y3393135D01*
X772160Y3402584D01*
X772160Y3412032D01*
X771296Y3421481D01*
X769620Y3430828D01*
X767080Y3439972D01*
X763727Y3448812D01*
X759612Y3457397D01*
X754786Y3465525D01*
X749198Y3473196D01*
X742950Y3480308D01*
X736092Y3486861D01*
X728675Y3492804D01*
X720801Y3497986D01*
X712419Y3502507D01*
X703732Y3506215D01*
X694690Y3509162D01*
X690118Y3510330D01*
X680770Y3512007D01*
X671322Y3512870D01*
X661873Y3512870D01*
X652424Y3512007D01*
X643077Y3510330D01*
X633933Y3507790D01*
X625094Y3504437D01*
X616508Y3500323D01*
X608380Y3495497D01*
X600710Y3489909D01*
X593598Y3483660D01*
X587044Y3476802D01*
X581101Y3469386D01*
X575919Y3461512D01*
X571398Y3453129D01*
X567690Y3444443D01*
X564743Y3435400D01*
X563575Y3430828D01*
X561898Y3421481D01*
X561035Y3412032D01*
X561035Y3402584D01*
X561898Y3393135D01*
X563575Y3383787D01*
X566115Y3374644D01*
X569468Y3365804D01*
X573582Y3357219D01*
X578408Y3349091D01*
X583996Y3341420D01*
X590245Y3334308D01*
X597103Y3327755D01*
X604520Y3321812D01*
X612394Y3316630D01*
X620776Y3312109D01*
X629462Y3308400D01*
X638505Y3305454D01*
X643077Y3304286D01*
X652424Y3302609D01*
X661873Y3301746D01*
G37*
G36*
X458927Y3312363D02*
G01*
X467156Y3316833D01*
X474929Y3321964D01*
X482193Y3327806D01*
X488950Y3334258D01*
X495096Y3341268D01*
X500583Y3348837D01*
X505409Y3356813D01*
X507542Y3360978D01*
X458927Y3360978D01*
G37*
G36*
X366268Y3312363D02*
G01*
X366268Y3360978D01*
X317652Y3360978D01*
X322122Y3352749D01*
X327253Y3344976D01*
X333095Y3337712D01*
X339547Y3330956D01*
X346557Y3324809D01*
X354126Y3319322D01*
X362102Y3314496D01*
G37*
G36*
X458927Y3453637D02*
G01*
X507542Y3453637D01*
X503072Y3461867D01*
X497941Y3469640D01*
X492099Y3476904D01*
X485648Y3483660D01*
X478637Y3489807D01*
X471068Y3495294D01*
X463092Y3500120D01*
X458927Y3502253D01*
G37*
G36*
X317652Y3453637D02*
G01*
X366268Y3453637D01*
X366268Y3502253D01*
X358038Y3497783D01*
X350266Y3492652D01*
X343001Y3486810D01*
X336245Y3480358D01*
X330098Y3473348D01*
X324612Y3465779D01*
X319786Y3457803D01*
G37*
G36*
X749300Y3838854D02*
G01*
X759561Y3839260D01*
X769721Y3840479D01*
X779729Y3842562D01*
X789584Y3845407D01*
X799185Y3849014D01*
X808431Y3853434D01*
X817321Y3858564D01*
X825753Y3864356D01*
X833678Y3870858D01*
X841095Y3877970D01*
X847852Y3885641D01*
X854049Y3893820D01*
X859485Y3902506D01*
X864260Y3911549D01*
X866394Y3916222D01*
X870000Y3925824D01*
X872845Y3935679D01*
X874928Y3945686D01*
X876147Y3955846D01*
X876553Y3966108D01*
X876147Y3976370D01*
X874928Y3986529D01*
X872845Y3996537D01*
X870000Y4006392D01*
X866394Y4015994D01*
X861974Y4025239D01*
X856843Y4034129D01*
X851052Y4042562D01*
X844550Y4050487D01*
X837437Y4057904D01*
X829767Y4064660D01*
X821588Y4070858D01*
X812952Y4076293D01*
X803859Y4081068D01*
X799185Y4083202D01*
X789584Y4086809D01*
X779729Y4089654D01*
X769721Y4091736D01*
X759561Y4092956D01*
X749300Y4093362D01*
X739038Y4092956D01*
X728878Y4091736D01*
X718870Y4089654D01*
X709015Y4086809D01*
X699414Y4083202D01*
X690168Y4078782D01*
X681278Y4073651D01*
X672846Y4067860D01*
X664921Y4061358D01*
X657504Y4054246D01*
X650748Y4046575D01*
X644550Y4038396D01*
X639114Y4029710D01*
X634339Y4020667D01*
X632206Y4015994D01*
X628599Y4006392D01*
X625754Y3996537D01*
X623671Y3986529D01*
X622452Y3976370D01*
X622046Y3966108D01*
X622452Y3955846D01*
X623671Y3945686D01*
X625754Y3935679D01*
X628599Y3925824D01*
X632206Y3916222D01*
X636625Y3906977D01*
X641756Y3898087D01*
X647547Y3889654D01*
X654050Y3881729D01*
X661162Y3874312D01*
X668832Y3867556D01*
X677011Y3861358D01*
X685698Y3855923D01*
X694740Y3851148D01*
X699414Y3849014D01*
X709015Y3845407D01*
X718870Y3842562D01*
X728878Y3840479D01*
X739038Y3839260D01*
G37*

%LPD*%
G36*
X-682244Y-2193137D02*
G01*
X-685139Y-2192731D01*
X-687781Y-2191512D01*
X-689965Y-2189632D01*
X-691489Y-2187194D01*
X-692302Y-2184400D01*
X-692302Y-2181301D01*
X-691184Y-2178100D01*
X-690270Y-2176729D01*
X-685698Y-2172208D01*
X-679246Y-2165248D01*
X-673506Y-2157730D01*
X-668375Y-2149754D01*
X-664006Y-2141372D01*
X-660349Y-2132634D01*
X-657504Y-2123592D01*
X-655472Y-2114346D01*
X-654710Y-2109673D01*
X-653897Y-2100224D01*
X-653897Y-2090724D01*
X-654202Y-2085949D01*
X-655472Y-2076500D01*
X-657555Y-2067153D01*
X-660450Y-2058060D01*
X-664159Y-2049272D01*
X-668629Y-2040839D01*
X-673811Y-2032812D01*
X-679653Y-2025294D01*
X-686206Y-2018284D01*
X-693267Y-2011934D01*
X-700938Y-2006193D01*
X-704900Y-2003552D01*
X-713232Y-1998878D01*
X-718820Y-1996135D01*
X-721055Y-1994255D01*
X-722630Y-1991817D01*
X-723442Y-1989023D01*
X-723544Y-1219200D01*
X-724001Y-1213205D01*
X-725424Y-1207312D01*
X-727760Y-1201724D01*
X-730910Y-1196594D01*
X-732739Y-1194206D01*
X-944219Y-982573D01*
X-946048Y-980135D01*
X-946658Y-978763D01*
X-947216Y-975766D01*
X-947928Y-968806D01*
X-949452Y-961999D01*
X-951839Y-955446D01*
X-955040Y-949198D01*
X-959002Y-943457D01*
X-963625Y-938225D01*
X-968857Y-933602D01*
X-974598Y-929640D01*
X-980846Y-926439D01*
X-987399Y-924052D01*
X-994206Y-922528D01*
X-1001166Y-921816D01*
X-1004163Y-921258D01*
X-1006805Y-919835D01*
X-1243939Y-682904D01*
X-1245768Y-680313D01*
X-1246784Y-677316D01*
X-1246784Y-674268D01*
X-1245971Y-671474D01*
X-1244396Y-669086D01*
X-1242212Y-667156D01*
X-1239570Y-665988D01*
X-1236726Y-665581D01*
X-1231900Y-665734D01*
X-1224788Y-665276D01*
X-1217828Y-663956D01*
X-1211072Y-661720D01*
X-1204671Y-658672D01*
X-1200353Y-656183D01*
X-1197559Y-655370D01*
X-563829Y-655269D01*
X-560933Y-655675D01*
X-558342Y-656844D01*
X-556158Y-658774D01*
X-555244Y-659942D01*
X-554075Y-662533D01*
X-553669Y-665429D01*
X-553770Y-1337259D01*
X-554583Y-1340053D01*
X-557072Y-1344371D01*
X-560120Y-1350772D01*
X-562356Y-1357528D01*
X-563676Y-1364488D01*
X-564134Y-1371600D01*
X-563676Y-1378712D01*
X-562356Y-1385671D01*
X-560120Y-1392428D01*
X-557072Y-1398828D01*
X-554583Y-1403146D01*
X-553770Y-1405940D01*
X-553770Y-1992680D01*
X-554126Y-1994204D01*
X-555548Y-1996998D01*
X-556514Y-1998218D01*
X-559003Y-2000097D01*
X-567385Y-2005075D01*
X-575259Y-2010765D01*
X-582625Y-2017166D01*
X-589381Y-2024176D01*
X-595426Y-2031746D01*
X-600811Y-2039874D01*
X-605434Y-2048459D01*
X-609295Y-2057400D01*
X-612292Y-2066645D01*
X-614476Y-2076145D01*
X-615238Y-2080920D01*
X-616102Y-2090623D01*
X-616102Y-2100224D01*
X-615289Y-2109673D01*
X-613613Y-2118969D01*
X-611174Y-2128113D01*
X-607923Y-2137054D01*
X-603910Y-2145588D01*
X-599135Y-2153818D01*
X-593699Y-2161540D01*
X-587603Y-2168804D01*
X-579729Y-2176729D01*
X-578815Y-2178100D01*
X-577697Y-2181301D01*
X-577697Y-2184400D01*
X-578510Y-2187194D01*
X-580034Y-2189632D01*
X-582218Y-2191512D01*
X-584860Y-2192731D01*
X-587756Y-2193137D01*
G37*

%LPD*%
G36*
X-1882190Y-2193137D02*
G01*
X-1885035Y-2192731D01*
X-1887677Y-2191512D01*
X-1889861Y-2189632D01*
X-1891436Y-2187194D01*
X-1892249Y-2184450D01*
X-1893925Y-1150772D01*
X-2259990Y-1150670D01*
X-2262784Y-1149858D01*
X-2265172Y-1148334D01*
X-2267102Y-1146149D01*
X-2268270Y-1143508D01*
X-2268677Y-1140612D01*
X-2268575Y-1070203D01*
X-2267762Y-1067409D01*
X-2266238Y-1064971D01*
X-2264054Y-1063091D01*
X-2261412Y-1061872D01*
X-2258517Y-1061466D01*
X-2255672Y-1061923D01*
X-2253030Y-1063091D01*
X-2246782Y-1066596D01*
X-2243480Y-1068070D01*
X-2236673Y-1070305D01*
X-2229662Y-1071676D01*
X-2226106Y-1072032D01*
X-2219096Y-1072032D01*
X-2212390Y-1071219D01*
X-2205786Y-1069594D01*
X-2199436Y-1067206D01*
X-2193442Y-1064056D01*
X-2187905Y-1060196D01*
X-2182825Y-1055674D01*
X-2178304Y-1050594D01*
X-2174443Y-1045057D01*
X-2171293Y-1039063D01*
X-2168906Y-1032713D01*
X-2167280Y-1026109D01*
X-2166467Y-1019403D01*
X-2166467Y-1012545D01*
X-2166772Y-1009091D01*
X-2168042Y-1002284D01*
X-2170176Y-995730D01*
X-2171496Y-992530D01*
X-2174798Y-986434D01*
X-2178761Y-980795D01*
X-2183434Y-975664D01*
X-2187041Y-972312D01*
X-2188616Y-969873D01*
X-2189429Y-967079D01*
X-2189530Y-63042D01*
X-2189124Y-60198D01*
X-2187905Y-57556D01*
X-2185974Y-55321D01*
X-2181047Y-50546D01*
X-2176678Y-45161D01*
X-2173071Y-39268D01*
X-2171496Y-36169D01*
X-2169007Y-29718D01*
X-2168042Y-26416D01*
X-2166772Y-19608D01*
X-2166366Y-12700D01*
X-2166772Y-5791D01*
X-2168042Y1016D01*
X-2170176Y7569D01*
X-2171496Y10769D01*
X-2174798Y16865D01*
X-2178761Y22504D01*
X-2183434Y27635D01*
X-2187041Y30988D01*
X-2188616Y33426D01*
X-2189429Y36220D01*
X-2189530Y764286D01*
X-2189124Y767130D01*
X-2187956Y769772D01*
X-2184501Y775970D01*
X-2181860Y782624D01*
X-2180844Y786028D01*
X-2179472Y792988D01*
X-2179066Y800100D01*
X-2179472Y807212D01*
X-2180844Y814171D01*
X-2183079Y820928D01*
X-2186127Y827379D01*
X-2188616Y831697D01*
X-2189429Y834491D01*
X-2189530Y2686608D01*
X-2189124Y2689453D01*
X-2187956Y2692095D01*
X-2186025Y2694279D01*
X-2183587Y2695803D01*
X-2180844Y2696667D01*
X-2177846Y2696616D01*
X-2176322Y2696260D01*
X-2173528Y2694889D01*
X-2171242Y2692704D01*
X-2168652Y2688285D01*
X-2164537Y2682443D01*
X-2159660Y2677210D01*
X-2154224Y2672638D01*
X-2148230Y2668778D01*
X-2141778Y2665679D01*
X-2138426Y2664460D01*
X-2131517Y2662682D01*
X-2124456Y2661767D01*
X-2117394Y2661767D01*
X-2110486Y2662631D01*
X-2103678Y2664358D01*
X-2097176Y2666898D01*
X-2091029Y2670251D01*
X-2085390Y2674315D01*
X-2081530Y2677566D01*
X-2078837Y2678887D01*
X-2077364Y2679242D01*
X-2009597Y2679344D01*
X-2003552Y2679801D01*
X-1997710Y2681224D01*
X-1992122Y2683560D01*
X-1986991Y2686710D01*
X-1984603Y2688539D01*
X-1754124Y2918714D01*
X-1751279Y2920136D01*
X-1749755Y2920542D01*
X-780542Y2920542D01*
X-777544Y2919526D01*
X-776173Y2918714D01*
X-583793Y2726639D01*
X-578916Y2723134D01*
X-573532Y2720390D01*
X-570687Y2719324D01*
X-564794Y2717901D01*
X-558800Y2717444D01*
X-310235Y2717342D01*
X-307390Y2716428D01*
X-304850Y2714752D01*
X-302209Y2712415D01*
X-296570Y2708351D01*
X-290423Y2704998D01*
X-283921Y2702458D01*
X-277114Y2700731D01*
X-270205Y2699867D01*
X-263194Y2699867D01*
X-256286Y2700731D01*
X-249478Y2702458D01*
X-242976Y2704998D01*
X-236829Y2708351D01*
X-231190Y2712415D01*
X-227329Y2715666D01*
X-224637Y2716987D01*
X-223164Y2717342D01*
X314756Y2717444D01*
X317601Y2717038D01*
X320243Y2715818D01*
X322427Y2713939D01*
X324002Y2711500D01*
X324815Y2708706D01*
X324764Y2705404D01*
X324205Y2703525D01*
X318414Y2693212D01*
X314350Y2684170D01*
X312623Y2679496D01*
X309880Y2669946D01*
X308000Y2660192D01*
X307390Y2655214D01*
X306933Y2645308D01*
X307390Y2635859D01*
X307898Y2631135D01*
X309575Y2621788D01*
X312115Y2612644D01*
X315468Y2603804D01*
X319582Y2595219D01*
X324408Y2587091D01*
X329996Y2579420D01*
X336245Y2572308D01*
X343103Y2565755D01*
X350520Y2559812D01*
X358394Y2554630D01*
X366776Y2550109D01*
X375462Y2546400D01*
X384505Y2543454D01*
X389077Y2542286D01*
X398424Y2540609D01*
X407873Y2539746D01*
X417322Y2539746D01*
X426770Y2540609D01*
X436118Y2542286D01*
X445211Y2544826D01*
X454101Y2548128D01*
X462635Y2552242D01*
X470763Y2557119D01*
X478434Y2562707D01*
X481431Y2564333D01*
X483057Y2564739D01*
X486206Y2564790D01*
X489000Y2563977D01*
X491439Y2562402D01*
X493318Y2560218D01*
X494538Y2557627D01*
X494944Y2554732D01*
X495046Y2521508D01*
X496011Y2515514D01*
X496824Y2512618D01*
X499109Y2507030D01*
X502310Y2501900D01*
X504139Y2499512D01*
X565099Y2438450D01*
X566928Y2435860D01*
X567944Y2432862D01*
X567893Y2429459D01*
X565912Y2423363D01*
X563473Y2414371D01*
X561848Y2405227D01*
X561035Y2395982D01*
X561035Y2386533D01*
X561898Y2377033D01*
X563626Y2367584D01*
X564794Y2362962D01*
X567791Y2353868D01*
X569569Y2349449D01*
X573786Y2340864D01*
X576122Y2336698D01*
X581456Y2328773D01*
X587451Y2321306D01*
X594106Y2314448D01*
X602488Y2307183D01*
X604215Y2304643D01*
X605129Y2301748D01*
X605129Y2298801D01*
X604316Y2296007D01*
X602742Y2293569D01*
X600557Y2291689D01*
X597916Y2290470D01*
X595071Y2290064D01*
X482701Y2290165D01*
X479907Y2290978D01*
X477469Y2292553D01*
X475589Y2294737D01*
X474370Y2297379D01*
X473964Y2300224D01*
X474065Y2301748D01*
X474980Y2304643D01*
X476707Y2307183D01*
X481533Y2311247D01*
X488492Y2317800D01*
X494842Y2324963D01*
X500481Y2332685D01*
X503072Y2336698D01*
X507593Y2345131D01*
X509625Y2349449D01*
X512978Y2358390D01*
X514400Y2362962D01*
X516534Y2372309D01*
X517804Y2381758D01*
X518261Y2391308D01*
X517804Y2400757D01*
X517296Y2405481D01*
X515620Y2414828D01*
X513080Y2423972D01*
X509727Y2432812D01*
X505612Y2441397D01*
X500786Y2449525D01*
X495198Y2457196D01*
X488950Y2464308D01*
X482092Y2470861D01*
X474675Y2476804D01*
X466801Y2481986D01*
X458419Y2486507D01*
X449732Y2490216D01*
X440690Y2493162D01*
X436118Y2494330D01*
X426770Y2496007D01*
X417322Y2496870D01*
X407924Y2496870D01*
X398678Y2496058D01*
X389534Y2494432D01*
X380542Y2491994D01*
X374446Y2490012D01*
X371043Y2489962D01*
X368046Y2490978D01*
X365455Y2492806D01*
X323291Y2534869D01*
X318414Y2538374D01*
X313029Y2541117D01*
X310184Y2542184D01*
X304292Y2543606D01*
X298297Y2544064D01*
X132435Y2544165D01*
X129590Y2545080D01*
X127050Y2546756D01*
X124409Y2549093D01*
X118770Y2553157D01*
X112623Y2556510D01*
X106121Y2559050D01*
X99314Y2560777D01*
X92405Y2561640D01*
X85496Y2561640D01*
X78790Y2560828D01*
X72186Y2559202D01*
X65836Y2556814D01*
X59842Y2553665D01*
X54305Y2549804D01*
X49225Y2545283D01*
X44704Y2540203D01*
X40843Y2534666D01*
X37693Y2528671D01*
X35306Y2522321D01*
X33680Y2515717D01*
X32867Y2509012D01*
X32867Y2502204D01*
X33680Y2495397D01*
X35356Y2488793D01*
X37795Y2482392D01*
X40995Y2476347D01*
X44907Y2470759D01*
X49479Y2465628D01*
X54610Y2461158D01*
X60299Y2457297D01*
X66344Y2454198D01*
X72796Y2451862D01*
X75387Y2450642D01*
X77571Y2448712D01*
X79095Y2446324D01*
X79908Y2443530D01*
X79908Y2440686D01*
X79095Y2437892D01*
X77571Y2435504D01*
X75387Y2433574D01*
X72796Y2432354D01*
X69291Y2431237D01*
X62636Y2428240D01*
X56388Y2424379D01*
X49530Y2418842D01*
X46837Y2417521D01*
X45364Y2417165D01*
X-631291Y2417064D01*
X-637286Y2416606D01*
X-643178Y2415184D01*
X-648766Y2412847D01*
X-653897Y2409698D01*
X-656285Y2407869D01*
X-973226Y2091080D01*
X-975664Y2089251D01*
X-977036Y2088642D01*
X-980033Y2088083D01*
X-986891Y2087422D01*
X-993597Y2085898D01*
X-1000048Y2083562D01*
X-1003198Y2082139D01*
X-1009091Y2078634D01*
X-1011936Y2076653D01*
X-1017117Y2072132D01*
X-1021740Y2067052D01*
X-1025702Y2061413D01*
X-1028953Y2055368D01*
X-1031392Y2048967D01*
X-1033068Y2042261D01*
X-1033932Y2035454D01*
X-1033932Y2028596D01*
X-1033119Y2021890D01*
X-1031494Y2015286D01*
X-1029106Y2008936D01*
X-1025956Y2002942D01*
X-1022096Y1997405D01*
X-1017574Y1992325D01*
X-1012494Y1987804D01*
X-1006957Y1983943D01*
X-1000963Y1980793D01*
X-994613Y1978406D01*
X-988009Y1976780D01*
X-981303Y1975967D01*
X-974445Y1975967D01*
X-967638Y1976831D01*
X-960932Y1978507D01*
X-954532Y1980946D01*
X-948486Y1984197D01*
X-942848Y1988159D01*
X-937768Y1992782D01*
X-933246Y1997964D01*
X-929436Y2003704D01*
X-927760Y2006701D01*
X-925068Y2013051D01*
X-923137Y2019655D01*
X-922019Y2026462D01*
X-921613Y2031390D01*
X-921258Y2032863D01*
X-919835Y2035505D01*
X-911504Y2044039D01*
X-908913Y2045868D01*
X-905916Y2046884D01*
X-902868Y2046884D01*
X-900074Y2046071D01*
X-897686Y2044496D01*
X-895756Y2042312D01*
X-894587Y2039670D01*
X-894181Y2036825D01*
X-894334Y2032000D01*
X-893927Y2025243D01*
X-892708Y2018588D01*
X-890676Y2012086D01*
X-889406Y2008936D01*
X-886256Y2002942D01*
X-882396Y1997405D01*
X-877874Y1992325D01*
X-872794Y1987804D01*
X-867257Y1983943D01*
X-861263Y1980793D01*
X-854913Y1978406D01*
X-848309Y1976780D01*
X-841603Y1975967D01*
X-834745Y1975967D01*
X-827938Y1976831D01*
X-821232Y1978507D01*
X-814832Y1980946D01*
X-808786Y1984197D01*
X-803148Y1988159D01*
X-798068Y1992782D01*
X-793546Y1997964D01*
X-789736Y2003704D01*
X-788060Y2006701D01*
X-785368Y2013051D01*
X-783437Y2019655D01*
X-782320Y2026462D01*
X-781913Y2031390D01*
X-781558Y2032863D01*
X-780135Y2035505D01*
X-604418Y2211222D01*
X-601573Y2212644D01*
X-600049Y2213051D01*
X32664Y2213051D01*
X35509Y2212136D01*
X38049Y2210460D01*
X40690Y2208123D01*
X46329Y2204059D01*
X52476Y2200706D01*
X58978Y2198166D01*
X65786Y2196439D01*
X72694Y2195576D01*
X79705Y2195576D01*
X86614Y2196439D01*
X93421Y2198166D01*
X99923Y2200706D01*
X106070Y2204059D01*
X111709Y2208123D01*
X115570Y2211374D01*
X118262Y2212695D01*
X119735Y2213051D01*
X317195Y2213152D01*
X320090Y2212746D01*
X322681Y2211527D01*
X324866Y2209647D01*
X325780Y2208479D01*
X326948Y2205837D01*
X327355Y2202992D01*
X327253Y2201468D01*
X326339Y2198573D01*
X322884Y2193137D01*
X318109Y2184603D01*
X314147Y2175611D01*
X310997Y2166315D01*
X308762Y2156815D01*
X307949Y2151989D01*
X307035Y2142185D01*
X307035Y2132533D01*
X307898Y2123033D01*
X309626Y2113686D01*
X312166Y2104491D01*
X315518Y2095601D01*
X319684Y2087016D01*
X324561Y2078837D01*
X330200Y2071166D01*
X336499Y2064004D01*
X340969Y2059432D01*
X341884Y2058060D01*
X342900Y2054910D01*
X343052Y2053285D01*
X342544Y2050186D01*
X341985Y2048713D01*
X340156Y2046173D01*
X337616Y2044293D01*
X332790Y2041245D01*
X330504Y2039467D01*
X220573Y1929688D01*
X218135Y1927860D01*
X216763Y1927250D01*
X213766Y1926691D01*
X206908Y1926031D01*
X200202Y1924507D01*
X193751Y1922170D01*
X190601Y1920748D01*
X184708Y1917242D01*
X181864Y1915261D01*
X176682Y1910740D01*
X172059Y1905660D01*
X168097Y1900021D01*
X164846Y1893976D01*
X162407Y1887575D01*
X160731Y1880870D01*
X159867Y1874062D01*
X159867Y1867204D01*
X160680Y1860499D01*
X162306Y1853895D01*
X164693Y1847545D01*
X167843Y1841550D01*
X171704Y1836013D01*
X176225Y1830933D01*
X181305Y1826412D01*
X186842Y1822551D01*
X192836Y1819402D01*
X199186Y1817014D01*
X205790Y1815388D01*
X212496Y1814575D01*
X219354Y1814575D01*
X226161Y1815439D01*
X232867Y1817116D01*
X239267Y1819554D01*
X245313Y1822805D01*
X250952Y1826768D01*
X256032Y1831390D01*
X260553Y1836572D01*
X264363Y1842312D01*
X266039Y1845310D01*
X268732Y1851660D01*
X270662Y1858264D01*
X271780Y1865071D01*
X272186Y1869998D01*
X272542Y1871472D01*
X273964Y1874113D01*
X290830Y1890979D01*
X293624Y1892401D01*
X296773Y1892909D01*
X299618Y1892503D01*
X302260Y1891284D01*
X304444Y1889404D01*
X306019Y1887016D01*
X306832Y1884222D01*
X307390Y1873351D01*
X308711Y1864004D01*
X310845Y1854809D01*
X313842Y1845818D01*
X317550Y1837131D01*
X322072Y1828850D01*
X327304Y1820976D01*
X333197Y1813560D01*
X339750Y1806752D01*
X346913Y1800555D01*
X354533Y1795018D01*
X362661Y1790192D01*
X371195Y1786128D01*
X380034Y1782775D01*
X389178Y1780286D01*
X393801Y1779320D01*
X403148Y1778101D01*
X412597Y1777644D01*
X422046Y1778101D01*
X426770Y1778609D01*
X436118Y1780286D01*
X445262Y1782825D01*
X454101Y1786178D01*
X462686Y1790293D01*
X470814Y1795119D01*
X478485Y1800707D01*
X485597Y1806956D01*
X492150Y1813814D01*
X498093Y1821230D01*
X503275Y1829104D01*
X507796Y1837486D01*
X511505Y1846173D01*
X514451Y1855216D01*
X515620Y1859788D01*
X517296Y1869135D01*
X518159Y1878584D01*
X518159Y1888236D01*
X517245Y1897989D01*
X515416Y1907641D01*
X512724Y1917090D01*
X509168Y1926234D01*
X504748Y1934972D01*
X499567Y1943303D01*
X493623Y1951126D01*
X489458Y1956003D01*
X488137Y1958695D01*
X487781Y1960168D01*
X487781Y1963115D01*
X488594Y1965909D01*
X490169Y1968347D01*
X492353Y1970227D01*
X494995Y1971446D01*
X497840Y1971852D01*
X542594Y1971954D01*
X548589Y1972919D01*
X551484Y1973732D01*
X557072Y1976069D01*
X562203Y1979218D01*
X564591Y1981047D01*
X619455Y2035810D01*
X622046Y2037638D01*
X625043Y2038654D01*
X628446Y2038604D01*
X634542Y2036622D01*
X643534Y2034184D01*
X652678Y2032558D01*
X661924Y2031746D01*
X671322Y2031746D01*
X680770Y2032609D01*
X690118Y2034286D01*
X699262Y2036825D01*
X708101Y2040178D01*
X716686Y2044293D01*
X724814Y2049119D01*
X732485Y2054707D01*
X739597Y2060956D01*
X746150Y2067814D01*
X752094Y2075230D01*
X757275Y2083104D01*
X761796Y2091486D01*
X765505Y2100173D01*
X768451Y2109216D01*
X769620Y2113788D01*
X771296Y2123135D01*
X772160Y2132584D01*
X772160Y2142032D01*
X771296Y2151380D01*
X770585Y2156053D01*
X768502Y2165197D01*
X767181Y2169718D01*
X763879Y2178558D01*
X759815Y2187041D01*
X755040Y2195118D01*
X749554Y2202738D01*
X743356Y2209901D01*
X736600Y2216404D01*
X734466Y2219096D01*
X733755Y2220671D01*
X733348Y2222296D01*
X733298Y2225649D01*
X734314Y2228646D01*
X735126Y2230018D01*
X814628Y2309469D01*
X817118Y2312162D01*
X820318Y2316327D01*
X821537Y2317445D01*
X824433Y2318969D01*
X826058Y2319375D01*
X829106Y2319375D01*
X831900Y2318562D01*
X833170Y2317902D01*
X835355Y2315972D01*
X836930Y2313533D01*
X837742Y2310790D01*
X837742Y1148842D01*
X836726Y1145844D01*
X835914Y1144473D01*
X788263Y1096670D01*
X785723Y1094790D01*
X784250Y1094181D01*
X781100Y1093673D01*
X778205Y1094079D01*
X775614Y1095298D01*
X773430Y1097178D01*
X772515Y1098346D01*
X771347Y1100988D01*
X770940Y1103833D01*
X772109Y1115974D01*
X772160Y1126032D01*
X771296Y1135481D01*
X769620Y1144828D01*
X767080Y1153972D01*
X763727Y1162812D01*
X759612Y1171397D01*
X754786Y1179525D01*
X749198Y1187196D01*
X742950Y1194308D01*
X736092Y1200861D01*
X728675Y1206804D01*
X720801Y1211986D01*
X712419Y1216507D01*
X703732Y1220216D01*
X694690Y1223162D01*
X690118Y1224330D01*
X680770Y1226007D01*
X671322Y1226870D01*
X661924Y1226870D01*
X652678Y1226058D01*
X643534Y1224432D01*
X634542Y1221994D01*
X628446Y1220012D01*
X625043Y1219962D01*
X622046Y1220978D01*
X619455Y1222806D01*
X580999Y1261160D01*
X576122Y1264666D01*
X570738Y1267409D01*
X567893Y1268476D01*
X562000Y1269898D01*
X556006Y1270355D01*
X477672Y1270457D01*
X474929Y1271270D01*
X472490Y1272844D01*
X470560Y1275029D01*
X469392Y1277670D01*
X468985Y1280515D01*
X469087Y1282141D01*
X470103Y1285189D01*
X472033Y1287780D01*
X477164Y1291691D01*
X484530Y1297940D01*
X491286Y1304798D01*
X497382Y1312265D01*
X502767Y1320292D01*
X507441Y1328724D01*
X511301Y1337564D01*
X514299Y1346708D01*
X515518Y1351381D01*
X517245Y1360881D01*
X518159Y1370482D01*
X518159Y1380032D01*
X517296Y1389481D01*
X516585Y1394155D01*
X514451Y1403350D01*
X511556Y1412341D01*
X507847Y1421079D01*
X503377Y1429410D01*
X498144Y1437284D01*
X492251Y1444701D01*
X490677Y1447139D01*
X489864Y1449933D01*
X489864Y1452880D01*
X490778Y1455826D01*
X492506Y1458315D01*
X497078Y1462430D01*
X575259Y1540764D01*
X577088Y1542999D01*
X580136Y1547926D01*
X582015Y1550466D01*
X584555Y1552295D01*
X586028Y1552905D01*
X587552Y1553260D01*
X590600Y1553260D01*
X592074Y1552956D01*
X594766Y1551686D01*
X599592Y1547622D01*
X607364Y1541830D01*
X615594Y1536750D01*
X624281Y1532483D01*
X633323Y1529029D01*
X642620Y1526387D01*
X652119Y1524660D01*
X661771Y1523746D01*
X671322Y1523746D01*
X680770Y1524609D01*
X690118Y1526286D01*
X699262Y1528826D01*
X708101Y1532178D01*
X716686Y1536293D01*
X724814Y1541119D01*
X732485Y1546707D01*
X739597Y1552956D01*
X746150Y1559814D01*
X752094Y1567230D01*
X757275Y1575104D01*
X761796Y1583486D01*
X765505Y1592173D01*
X768451Y1601216D01*
X769620Y1605788D01*
X771296Y1615135D01*
X772160Y1624584D01*
X772160Y1634032D01*
X771296Y1643481D01*
X769620Y1652828D01*
X767080Y1661972D01*
X763727Y1670812D01*
X759612Y1679397D01*
X754786Y1687525D01*
X749198Y1695196D01*
X742950Y1702307D01*
X736092Y1708861D01*
X728675Y1714804D01*
X720801Y1719986D01*
X712419Y1724507D01*
X703732Y1728216D01*
X694690Y1731162D01*
X690118Y1732330D01*
X680770Y1734007D01*
X671322Y1734870D01*
X661873Y1734870D01*
X652475Y1734007D01*
X643229Y1732330D01*
X638657Y1731213D01*
X629666Y1728317D01*
X620979Y1724609D01*
X612648Y1720138D01*
X604774Y1715007D01*
X599592Y1711198D01*
X596392Y1710080D01*
X594715Y1709928D01*
X591870Y1710385D01*
X589229Y1711553D01*
X587044Y1713433D01*
X585470Y1715871D01*
X584657Y1718665D01*
X584657Y1744268D01*
X585673Y1747266D01*
X586486Y1748637D01*
X619455Y1781810D01*
X622046Y1783638D01*
X625043Y1784654D01*
X628446Y1784604D01*
X634542Y1782622D01*
X643534Y1780184D01*
X652678Y1778558D01*
X661924Y1777746D01*
X671322Y1777746D01*
X680770Y1778609D01*
X690118Y1780286D01*
X699262Y1782825D01*
X708101Y1786178D01*
X716686Y1790293D01*
X724814Y1795119D01*
X732485Y1800707D01*
X739597Y1806956D01*
X746150Y1813814D01*
X752094Y1821230D01*
X757275Y1829104D01*
X761796Y1837486D01*
X765505Y1846173D01*
X768451Y1855216D01*
X769620Y1859788D01*
X771296Y1869135D01*
X772160Y1878584D01*
X772160Y1888032D01*
X771296Y1897481D01*
X769620Y1906828D01*
X767080Y1915972D01*
X763727Y1924812D01*
X759612Y1933397D01*
X754786Y1941525D01*
X749198Y1949196D01*
X742950Y1956307D01*
X736092Y1962861D01*
X728675Y1968804D01*
X720801Y1973986D01*
X712419Y1978507D01*
X703732Y1982216D01*
X694690Y1985162D01*
X690118Y1986330D01*
X680770Y1988007D01*
X671322Y1988870D01*
X661873Y1988870D01*
X652424Y1988007D01*
X643077Y1986330D01*
X633933Y1983790D01*
X625094Y1980438D01*
X616508Y1976323D01*
X608380Y1971497D01*
X600710Y1965909D01*
X593598Y1959660D01*
X587044Y1952802D01*
X581101Y1945386D01*
X575919Y1937512D01*
X571398Y1929130D01*
X567690Y1920443D01*
X564743Y1911400D01*
X563575Y1906828D01*
X561898Y1897481D01*
X561035Y1888032D01*
X561035Y1878634D01*
X561848Y1869389D01*
X563473Y1860245D01*
X565912Y1851253D01*
X567893Y1845157D01*
X567944Y1841754D01*
X566928Y1838756D01*
X565099Y1836166D01*
X516839Y1787804D01*
X513334Y1782927D01*
X511809Y1780286D01*
X509524Y1774698D01*
X508101Y1768805D01*
X507644Y1762810D01*
X507542Y1706625D01*
X506730Y1703882D01*
X505155Y1701444D01*
X502970Y1699564D01*
X500329Y1698345D01*
X497484Y1697939D01*
X495808Y1698091D01*
X494182Y1698498D01*
X492658Y1699158D01*
X490016Y1701190D01*
X483158Y1707946D01*
X475691Y1714042D01*
X467664Y1719478D01*
X459232Y1724101D01*
X450392Y1727962D01*
X441198Y1731010D01*
X436524Y1732229D01*
X427024Y1733956D01*
X417423Y1734870D01*
X407873Y1734870D01*
X398424Y1734007D01*
X389077Y1732330D01*
X379933Y1729790D01*
X371094Y1726438D01*
X362508Y1722323D01*
X354380Y1717497D01*
X346710Y1711909D01*
X339598Y1705660D01*
X333044Y1698802D01*
X327101Y1691386D01*
X321919Y1683512D01*
X317398Y1675130D01*
X313690Y1666443D01*
X310743Y1657400D01*
X309575Y1652828D01*
X307898Y1643481D01*
X307035Y1634032D01*
X307035Y1624533D01*
X307898Y1615033D01*
X309626Y1605584D01*
X310794Y1600962D01*
X313791Y1591868D01*
X315569Y1587449D01*
X319786Y1578864D01*
X322122Y1574698D01*
X327456Y1566773D01*
X333451Y1559306D01*
X340106Y1552448D01*
X348488Y1545183D01*
X350215Y1542643D01*
X351129Y1539748D01*
X351129Y1536801D01*
X350316Y1534007D01*
X348742Y1531569D01*
X346557Y1529689D01*
X343916Y1528470D01*
X341071Y1528064D01*
X223316Y1528165D01*
X221792Y1528521D01*
X218998Y1529943D01*
X216763Y1532128D01*
X215900Y1533448D01*
X214020Y1530959D01*
X211480Y1529130D01*
X210007Y1528521D01*
X206959Y1528064D01*
X-1237183Y1528165D01*
X-1238707Y1528521D01*
X-1241501Y1529943D01*
X-1243736Y1532128D01*
X-1244600Y1533448D01*
X-1246479Y1530959D01*
X-1249019Y1529130D01*
X-1250492Y1528521D01*
X-1253540Y1528064D01*
X-1632864Y1528165D01*
X-1635709Y1529080D01*
X-1638249Y1530756D01*
X-1640890Y1533093D01*
X-1646529Y1537157D01*
X-1652676Y1540510D01*
X-1659178Y1543050D01*
X-1665986Y1544777D01*
X-1672894Y1545640D01*
X-1679803Y1545640D01*
X-1686509Y1544828D01*
X-1693113Y1543202D01*
X-1699463Y1540814D01*
X-1705457Y1537665D01*
X-1710994Y1533804D01*
X-1716074Y1529283D01*
X-1720596Y1524203D01*
X-1724456Y1518666D01*
X-1727606Y1512671D01*
X-1729993Y1506321D01*
X-1731619Y1499717D01*
X-1732432Y1493012D01*
X-1732432Y1486204D01*
X-1731619Y1479499D01*
X-1729993Y1472895D01*
X-1727606Y1466545D01*
X-1724456Y1460550D01*
X-1720596Y1455013D01*
X-1716074Y1449933D01*
X-1710994Y1445412D01*
X-1705457Y1441551D01*
X-1699463Y1438402D01*
X-1693113Y1436014D01*
X-1686509Y1434388D01*
X-1679803Y1433576D01*
X-1672894Y1433576D01*
X-1665986Y1434439D01*
X-1659178Y1436166D01*
X-1652676Y1438706D01*
X-1646529Y1442059D01*
X-1640890Y1446123D01*
X-1637030Y1449374D01*
X-1634337Y1450695D01*
X-1632864Y1451051D01*
X-1266240Y1451152D01*
X-1263396Y1450746D01*
X-1260754Y1449527D01*
X-1258570Y1447647D01*
X-1256995Y1445209D01*
X-1256182Y1442415D01*
X-1256233Y1439519D01*
X-1257046Y1436674D01*
X-1258722Y1434185D01*
X-1261008Y1432306D01*
X-1266545Y1428445D01*
X-1271625Y1423974D01*
X-1276096Y1418894D01*
X-1279956Y1413306D01*
X-1283106Y1407312D01*
X-1285494Y1400962D01*
X-1287119Y1394409D01*
X-1287932Y1387703D01*
X-1287932Y1380845D01*
X-1287068Y1374038D01*
X-1285443Y1367383D01*
X-1282954Y1360982D01*
X-1279702Y1354886D01*
X-1275791Y1349298D01*
X-1272641Y1345488D01*
X-1271371Y1342796D01*
X-1270914Y1339850D01*
X-1271371Y1336903D01*
X-1272641Y1334211D01*
X-1275791Y1330401D01*
X-1279702Y1324813D01*
X-1282954Y1318717D01*
X-1285443Y1312316D01*
X-1287068Y1305661D01*
X-1287932Y1298854D01*
X-1287932Y1291996D01*
X-1287119Y1285290D01*
X-1285494Y1278686D01*
X-1283106Y1272336D01*
X-1279956Y1266342D01*
X-1276096Y1260805D01*
X-1271574Y1255725D01*
X-1266494Y1251204D01*
X-1260957Y1247343D01*
X-1254963Y1244193D01*
X-1248613Y1241806D01*
X-1242009Y1240180D01*
X-1235303Y1239367D01*
X-1228394Y1239367D01*
X-1221486Y1240231D01*
X-1214678Y1241958D01*
X-1208176Y1244498D01*
X-1202029Y1247851D01*
X-1196390Y1251915D01*
X-1192530Y1255166D01*
X-1189837Y1256487D01*
X-1188364Y1256842D01*
X210058Y1256842D01*
X213055Y1255826D01*
X214426Y1255014D01*
X267106Y1202639D01*
X271983Y1199134D01*
X277368Y1196390D01*
X280212Y1195324D01*
X286105Y1193901D01*
X292100Y1193444D01*
X316230Y1193342D01*
X318973Y1192530D01*
X321411Y1190955D01*
X323291Y1188770D01*
X324510Y1186129D01*
X324916Y1183284D01*
X324764Y1181404D01*
X324205Y1179525D01*
X318414Y1169212D01*
X314350Y1160170D01*
X312623Y1155496D01*
X309880Y1145946D01*
X308000Y1136192D01*
X307390Y1131214D01*
X306933Y1121308D01*
X307390Y1111554D01*
X307949Y1106678D01*
X309778Y1097026D01*
X310997Y1092301D01*
X314147Y1083005D01*
X318109Y1074064D01*
X322884Y1065530D01*
X325526Y1061415D01*
X331470Y1053642D01*
X339090Y1045210D01*
X339953Y1043838D01*
X340563Y1042365D01*
X341071Y1039215D01*
X340664Y1036370D01*
X339445Y1033729D01*
X337566Y1031544D01*
X335127Y1029969D01*
X332333Y1029157D01*
X-406400Y1029055D01*
X-412394Y1028598D01*
X-418287Y1027176D01*
X-423875Y1024839D01*
X-429006Y1021689D01*
X-431393Y1019860D01*
X-499211Y951992D01*
X-502869Y946912D01*
X-505612Y941324D01*
X-507187Y937056D01*
X-508762Y934669D01*
X-510946Y932789D01*
X-513537Y931621D01*
X-516382Y931214D01*
X-517906Y931316D01*
X-520801Y932230D01*
X-522122Y932942D01*
X-526846Y937056D01*
X-534365Y942898D01*
X-542391Y948080D01*
X-550824Y952500D01*
X-559562Y956157D01*
X-564083Y957732D01*
X-573278Y960221D01*
X-582676Y961847D01*
X-592124Y962710D01*
X-602894Y962660D01*
X-610006Y962101D01*
X-612851Y962507D01*
X-615492Y963676D01*
X-617677Y965606D01*
X-619252Y968044D01*
X-620064Y970787D01*
X-620064Y973836D01*
X-619048Y976833D01*
X-618236Y978204D01*
X-486156Y1110335D01*
X-483463Y1111758D01*
X-480466Y1112316D01*
X-473659Y1112977D01*
X-466902Y1114501D01*
X-460451Y1116838D01*
X-454304Y1119936D01*
X-448564Y1123746D01*
X-443382Y1128217D01*
X-438759Y1133348D01*
X-434797Y1138986D01*
X-431546Y1145032D01*
X-429107Y1151432D01*
X-427431Y1158138D01*
X-426567Y1164945D01*
X-426567Y1171803D01*
X-427380Y1178509D01*
X-429006Y1185113D01*
X-431393Y1191463D01*
X-434543Y1197457D01*
X-438404Y1202994D01*
X-442925Y1208074D01*
X-448005Y1212596D01*
X-453542Y1216456D01*
X-459536Y1219606D01*
X-465886Y1221994D01*
X-472490Y1223619D01*
X-479196Y1224432D01*
X-486054Y1224432D01*
X-492861Y1223568D01*
X-499567Y1221892D01*
X-505968Y1219454D01*
X-512013Y1216202D01*
X-517651Y1212240D01*
X-522732Y1207617D01*
X-527253Y1202436D01*
X-531063Y1196695D01*
X-532739Y1193698D01*
X-535432Y1187348D01*
X-537362Y1180744D01*
X-538480Y1173937D01*
X-538886Y1169009D01*
X-539242Y1167536D01*
X-540664Y1164894D01*
X-751078Y954278D01*
X-755142Y949553D01*
X-756869Y946912D01*
X-759612Y941324D01*
X-761187Y937056D01*
X-762762Y934669D01*
X-764946Y932789D01*
X-767537Y931621D01*
X-770382Y931214D01*
X-771906Y931316D01*
X-774801Y932230D01*
X-777290Y933907D01*
X-784555Y940053D01*
X-792327Y945591D01*
X-800557Y950366D01*
X-809142Y954430D01*
X-818083Y957732D01*
X-827278Y960221D01*
X-836676Y961847D01*
X-846124Y962710D01*
X-855776Y962710D01*
X-865530Y961796D01*
X-875182Y960069D01*
X-884580Y957427D01*
X-893724Y953973D01*
X-902563Y949706D01*
X-910945Y944626D01*
X-918819Y938834D01*
X-923747Y934770D01*
X-926388Y933551D01*
X-929284Y933145D01*
X-932129Y933551D01*
X-934770Y934770D01*
X-936955Y936650D01*
X-938530Y939088D01*
X-939342Y941832D01*
X-939342Y997458D01*
X-938326Y1000455D01*
X-937514Y1001826D01*
X-841756Y1097635D01*
X-839063Y1099058D01*
X-836066Y1099616D01*
X-829259Y1100277D01*
X-822502Y1101801D01*
X-816051Y1104138D01*
X-809904Y1107236D01*
X-804164Y1111046D01*
X-798982Y1115517D01*
X-794359Y1120648D01*
X-790397Y1126286D01*
X-787146Y1132332D01*
X-784707Y1138732D01*
X-783031Y1145438D01*
X-782167Y1152245D01*
X-782167Y1159103D01*
X-782980Y1165809D01*
X-784606Y1172413D01*
X-786993Y1178763D01*
X-790143Y1184757D01*
X-794004Y1190294D01*
X-798525Y1195374D01*
X-803605Y1199896D01*
X-809142Y1203756D01*
X-815136Y1206906D01*
X-821486Y1209294D01*
X-828090Y1210919D01*
X-834796Y1211732D01*
X-841654Y1211732D01*
X-848461Y1210868D01*
X-855167Y1209192D01*
X-861568Y1206754D01*
X-867613Y1203502D01*
X-873252Y1199540D01*
X-878332Y1194917D01*
X-882853Y1189736D01*
X-886663Y1183995D01*
X-888339Y1180998D01*
X-891032Y1174648D01*
X-892962Y1168044D01*
X-894080Y1161237D01*
X-894486Y1156309D01*
X-894842Y1154836D01*
X-896264Y1152194D01*
X-1007160Y1040993D01*
X-1010666Y1036116D01*
X-1012190Y1033475D01*
X-1014476Y1027887D01*
X-1015898Y1021994D01*
X-1016355Y1016000D01*
X-1016457Y941832D01*
X-1017269Y939088D01*
X-1018844Y936650D01*
X-1021029Y934770D01*
X-1023670Y933551D01*
X-1026515Y933145D01*
X-1029411Y933551D01*
X-1032052Y934770D01*
X-1036980Y938834D01*
X-1044854Y944626D01*
X-1053236Y949706D01*
X-1062075Y953973D01*
X-1071219Y957427D01*
X-1080617Y960069D01*
X-1090269Y961796D01*
X-1100023Y962710D01*
X-1109624Y962710D01*
X-1119022Y961898D01*
X-1128318Y960272D01*
X-1137462Y957783D01*
X-1141933Y956310D01*
X-1150620Y952652D01*
X-1159002Y948334D01*
X-1166977Y943254D01*
X-1174445Y937514D01*
X-1181404Y931113D01*
X-1187805Y924153D01*
X-1193546Y916686D01*
X-1198626Y908710D01*
X-1202944Y900328D01*
X-1206601Y891641D01*
X-1209395Y882599D01*
X-1210564Y878027D01*
X-1212189Y868730D01*
X-1213002Y859332D01*
X-1213002Y849833D01*
X-1212189Y840384D01*
X-1210513Y831037D01*
X-1208024Y821842D01*
X-1204772Y812952D01*
X-1200708Y804367D01*
X-1195933Y796137D01*
X-1190447Y788365D01*
X-1184300Y781100D01*
X-1176426Y773226D01*
X-1175461Y771804D01*
X-1174800Y770229D01*
X-1174394Y768604D01*
X-1174343Y765454D01*
X-1175156Y762711D01*
X-1176731Y760272D01*
X-1178915Y758342D01*
X-1181557Y757174D01*
X-1184402Y756767D01*
X-1242364Y756869D01*
X-1245108Y757682D01*
X-1246378Y758342D01*
X-1248562Y760272D01*
X-1249476Y761441D01*
X-1250645Y764032D01*
X-1251051Y766927D01*
X-1250696Y772058D01*
X-1250696Y806958D01*
X-1311249Y806958D01*
X-1311249Y766927D01*
X-1311706Y764032D01*
X-1312875Y761441D01*
X-1314805Y759256D01*
X-1315923Y758342D01*
X-1318564Y757174D01*
X-1321409Y756767D01*
X-1397812Y756869D01*
X-1400606Y757682D01*
X-1401876Y758342D01*
X-1404061Y760272D01*
X-1405585Y762711D01*
X-1406398Y765454D01*
X-1406499Y806958D01*
X-1467104Y806958D01*
X-1467104Y772058D01*
X-1466748Y766927D01*
X-1467154Y764032D01*
X-1468323Y761441D01*
X-1470253Y759256D01*
X-1471422Y758342D01*
X-1474012Y757174D01*
X-1476908Y756767D01*
X-1527606Y756869D01*
X-1530400Y757682D01*
X-1534718Y760222D01*
X-1541170Y763270D01*
X-1544523Y764540D01*
X-1551432Y766318D01*
X-1558544Y767232D01*
X-1565503Y767232D01*
X-1572209Y766419D01*
X-1578813Y764794D01*
X-1585163Y762406D01*
X-1591157Y759256D01*
X-1596694Y755396D01*
X-1601774Y750874D01*
X-1606296Y745794D01*
X-1610156Y740257D01*
X-1613306Y734263D01*
X-1615694Y727913D01*
X-1617319Y721309D01*
X-1618132Y714603D01*
X-1618132Y707796D01*
X-1617319Y701090D01*
X-1615694Y694486D01*
X-1613306Y688136D01*
X-1610156Y682142D01*
X-1606296Y676605D01*
X-1601774Y671525D01*
X-1596694Y667004D01*
X-1591157Y663143D01*
X-1585163Y659993D01*
X-1578813Y657606D01*
X-1572209Y655980D01*
X-1565503Y655167D01*
X-1558544Y655167D01*
X-1551533Y656082D01*
X-1544726Y657809D01*
X-1538122Y660450D01*
X-1530654Y664514D01*
X-1527911Y665327D01*
X-1178712Y665429D01*
X-1175562Y664972D01*
X-1174089Y664362D01*
X-1171549Y662482D01*
X-983742Y474522D01*
X-982929Y473303D01*
X-981913Y470611D01*
X-979982Y463753D01*
X-977188Y457250D01*
X-973582Y451104D01*
X-969213Y445465D01*
X-964184Y440435D01*
X-958545Y436118D01*
X-955548Y434187D01*
X-949198Y430987D01*
X-941120Y428142D01*
X-938682Y426567D01*
X-936752Y424383D01*
X-935532Y421741D01*
X-935126Y418846D01*
X-935634Y415696D01*
X-937056Y412902D01*
X-1106373Y243586D01*
X-1109218Y242163D01*
X-1110742Y241757D01*
X-1146200Y241655D01*
X-1149096Y242062D01*
X-1151686Y243281D01*
X-1153871Y245160D01*
X-1154785Y246329D01*
X-1155954Y248970D01*
X-1156360Y251815D01*
X-1155954Y254660D01*
X-1154125Y259232D01*
X-1152042Y265785D01*
X-1150772Y272542D01*
X-1150366Y279400D01*
X-1150772Y286156D01*
X-1151991Y292811D01*
X-1154023Y299313D01*
X-1155293Y302463D01*
X-1158443Y308457D01*
X-1162304Y313994D01*
X-1166825Y319074D01*
X-1171905Y323596D01*
X-1177442Y327456D01*
X-1183436Y330606D01*
X-1189786Y332994D01*
X-1196390Y334619D01*
X-1203096Y335432D01*
X-1210005Y335432D01*
X-1216914Y334568D01*
X-1223721Y332841D01*
X-1230223Y330301D01*
X-1236370Y326948D01*
X-1242009Y322884D01*
X-1245870Y319633D01*
X-1248562Y318312D01*
X-1250035Y317957D01*
X-1683257Y317957D01*
X-1686255Y318973D01*
X-1687626Y319786D01*
X-1808835Y440943D01*
X-1810257Y443636D01*
X-1810816Y446633D01*
X-1811477Y453440D01*
X-1813001Y460197D01*
X-1815338Y466648D01*
X-1818436Y472795D01*
X-1822246Y478535D01*
X-1826717Y483717D01*
X-1831848Y488340D01*
X-1837486Y492302D01*
X-1843532Y495554D01*
X-1849932Y497992D01*
X-1856638Y499668D01*
X-1863445Y500532D01*
X-1870303Y500532D01*
X-1877009Y499719D01*
X-1883613Y498093D01*
X-1889963Y495706D01*
X-1895957Y492556D01*
X-1901494Y488696D01*
X-1906574Y484174D01*
X-1911096Y479094D01*
X-1914956Y473557D01*
X-1918106Y467563D01*
X-1920493Y461213D01*
X-1922119Y454609D01*
X-1922932Y447903D01*
X-1922932Y441045D01*
X-1922068Y434238D01*
X-1920392Y427532D01*
X-1917954Y421132D01*
X-1914702Y415086D01*
X-1910740Y409448D01*
X-1906117Y404368D01*
X-1900936Y399846D01*
X-1895195Y396036D01*
X-1892198Y394360D01*
X-1885848Y391668D01*
X-1879244Y389737D01*
X-1872437Y388620D01*
X-1867509Y388213D01*
X-1866036Y387858D01*
X-1863394Y386435D01*
X-1726793Y250139D01*
X-1721916Y246634D01*
X-1716532Y243890D01*
X-1713687Y242824D01*
X-1707794Y241401D01*
X-1701800Y240944D01*
X-1265326Y240842D01*
X-1262583Y240029D01*
X-1260144Y238455D01*
X-1258214Y236270D01*
X-1257046Y233629D01*
X-1256639Y230784D01*
X-1257046Y227939D01*
X-1258874Y223367D01*
X-1260957Y216814D01*
X-1262227Y210058D01*
X-1262634Y203200D01*
X-1262227Y196392D01*
X-1261008Y189687D01*
X-1258925Y183184D01*
X-1256131Y176987D01*
X-1252575Y171145D01*
X-1248359Y165811D01*
X-1243482Y160985D01*
X-1240891Y158800D01*
X-1236827Y155803D01*
X-1234846Y153162D01*
X-1234186Y151638D01*
X-1233678Y148437D01*
X-1233830Y146761D01*
X-1235405Y141274D01*
X-1236878Y133350D01*
X-1237335Y127812D01*
X-1238351Y124968D01*
X-1240129Y122529D01*
X-1242568Y120751D01*
X-1245412Y119735D01*
X-1250340Y119329D01*
X-1257096Y118211D01*
X-1263700Y116281D01*
X-1270000Y113537D01*
X-1275943Y110083D01*
X-1281379Y105918D01*
X-1286256Y101092D01*
X-1290574Y95758D01*
X-1294130Y89865D01*
X-1296974Y83667D01*
X-1298143Y80416D01*
X-1299768Y73761D01*
X-1300632Y66954D01*
X-1300632Y60096D01*
X-1299819Y53390D01*
X-1298194Y46786D01*
X-1295806Y40436D01*
X-1292656Y34442D01*
X-1288796Y28905D01*
X-1284274Y23825D01*
X-1279194Y19304D01*
X-1273657Y15443D01*
X-1267663Y12293D01*
X-1261313Y9906D01*
X-1254709Y8280D01*
X-1248003Y7467D01*
X-1241094Y7467D01*
X-1234186Y8331D01*
X-1227378Y10058D01*
X-1220876Y12598D01*
X-1214729Y15951D01*
X-1209090Y20015D01*
X-1205230Y23266D01*
X-1202537Y24587D01*
X-1201064Y24942D01*
X-1003300Y25044D01*
X-997305Y25501D01*
X-991412Y26924D01*
X-985824Y29260D01*
X-980694Y32410D01*
X-978306Y34239D01*
X-631139Y381406D01*
X-627634Y386283D01*
X-624890Y391668D01*
X-623824Y394512D01*
X-622401Y400405D01*
X-621944Y406400D01*
X-621842Y552958D01*
X-620826Y555955D01*
X-620014Y557326D01*
X-440639Y737006D01*
X-437134Y741883D01*
X-434390Y747268D01*
X-433324Y750112D01*
X-431901Y756005D01*
X-431444Y762000D01*
X-431342Y767384D01*
X-430530Y770128D01*
X-428955Y772566D01*
X-426770Y774446D01*
X-424129Y775665D01*
X-421284Y776071D01*
X-418388Y775665D01*
X-415747Y774446D01*
X-410819Y770382D01*
X-402945Y764590D01*
X-394563Y759510D01*
X-385724Y755243D01*
X-376580Y751789D01*
X-367182Y749147D01*
X-357530Y747420D01*
X-347776Y746506D01*
X-338175Y746506D01*
X-328777Y747318D01*
X-319481Y748944D01*
X-310337Y751433D01*
X-305866Y752906D01*
X-297180Y756564D01*
X-288798Y760882D01*
X-280822Y765962D01*
X-273354Y771702D01*
X-266395Y778103D01*
X-259994Y785063D01*
X-254254Y792530D01*
X-249174Y800506D01*
X-244856Y808888D01*
X-241198Y817575D01*
X-238404Y826617D01*
X-237236Y831189D01*
X-235610Y840486D01*
X-234797Y849884D01*
X-234797Y859332D01*
X-235610Y868730D01*
X-237286Y878078D01*
X-239725Y887221D01*
X-242976Y896061D01*
X-246938Y904646D01*
X-251714Y912825D01*
X-257149Y920597D01*
X-263194Y927811D01*
X-271068Y935736D01*
X-271983Y937107D01*
X-272643Y938682D01*
X-273050Y940308D01*
X-273100Y943406D01*
X-272288Y946200D01*
X-270713Y948639D01*
X-268528Y950518D01*
X-265938Y951737D01*
X-263042Y952144D01*
X325526Y952042D01*
X328320Y951230D01*
X330708Y949655D01*
X332638Y947470D01*
X333806Y944829D01*
X334213Y941984D01*
X334060Y940206D01*
X333603Y938479D01*
X332841Y936904D01*
X328726Y931570D01*
X323138Y923493D01*
X318262Y914908D01*
X316128Y910437D01*
X312521Y901242D01*
X311048Y896518D01*
X308762Y886917D01*
X307390Y877163D01*
X306933Y867308D01*
X307390Y857859D01*
X307898Y853135D01*
X309575Y843787D01*
X312115Y834644D01*
X315468Y825804D01*
X319582Y817219D01*
X324408Y809091D01*
X329996Y801420D01*
X336245Y794308D01*
X343103Y787755D01*
X350520Y781812D01*
X358394Y776630D01*
X366776Y772109D01*
X375462Y768400D01*
X384505Y765454D01*
X389077Y764286D01*
X398424Y762609D01*
X407873Y761746D01*
X417322Y761746D01*
X426770Y762609D01*
X436118Y764286D01*
X445262Y766826D01*
X454101Y770178D01*
X462686Y774293D01*
X470814Y779119D01*
X478485Y784707D01*
X485597Y790956D01*
X492150Y797814D01*
X498093Y805230D01*
X503275Y813104D01*
X507796Y821486D01*
X511505Y830173D01*
X514451Y839216D01*
X515620Y843787D01*
X517296Y853135D01*
X518159Y862584D01*
X518159Y872236D01*
X517194Y882091D01*
X516432Y886917D01*
X514146Y896518D01*
X512673Y901242D01*
X509066Y910437D01*
X504596Y919226D01*
X499364Y927608D01*
X492353Y936904D01*
X491591Y938479D01*
X491134Y940206D01*
X491083Y943406D01*
X491896Y946200D01*
X493420Y948639D01*
X495604Y950518D01*
X498246Y951737D01*
X501142Y952144D01*
X579526Y952042D01*
X582320Y951230D01*
X584708Y949655D01*
X586638Y947470D01*
X587806Y944829D01*
X588213Y941984D01*
X588060Y940206D01*
X587603Y938479D01*
X586841Y936904D01*
X582726Y931570D01*
X577138Y923493D01*
X572262Y914908D01*
X570128Y910437D01*
X566521Y901242D01*
X565048Y896518D01*
X562762Y886917D01*
X561390Y877163D01*
X560933Y867308D01*
X561390Y857859D01*
X561898Y853135D01*
X563575Y843787D01*
X566115Y834644D01*
X569468Y825804D01*
X573582Y817219D01*
X578408Y809091D01*
X583996Y801420D01*
X590245Y794308D01*
X597103Y787755D01*
X604520Y781812D01*
X612394Y776630D01*
X620776Y772109D01*
X629462Y768400D01*
X638505Y765454D01*
X643077Y764286D01*
X652424Y762609D01*
X661873Y761746D01*
X671322Y761746D01*
X680770Y762609D01*
X690118Y764286D01*
X699262Y766826D01*
X708101Y770178D01*
X716686Y774293D01*
X724814Y779119D01*
X732485Y784707D01*
X739597Y790956D01*
X746150Y797814D01*
X752094Y805230D01*
X757275Y813104D01*
X761796Y821486D01*
X765505Y830173D01*
X768451Y839216D01*
X769620Y843787D01*
X771296Y853135D01*
X772160Y862584D01*
X772160Y872134D01*
X771245Y881786D01*
X769518Y891286D01*
X766876Y900582D01*
X763422Y909624D01*
X759155Y918260D01*
X754075Y926541D01*
X748334Y934262D01*
X744270Y939139D01*
X743508Y940409D01*
X742645Y943254D01*
X742696Y946302D01*
X743610Y949248D01*
X745439Y951839D01*
X747928Y953719D01*
X751992Y955395D01*
X757072Y958037D01*
X761695Y961440D01*
X905662Y1105458D01*
X909319Y1110589D01*
X910844Y1113383D01*
X912114Y1116330D01*
X913637Y1120648D01*
X915212Y1123086D01*
X917397Y1124966D01*
X920038Y1126185D01*
X922883Y1126591D01*
X925728Y1126134D01*
X928369Y1124966D01*
X930554Y1123086D01*
X932129Y1120648D01*
X932942Y1117854D01*
X933043Y-2182977D01*
X932637Y-2185822D01*
X931418Y-2188464D01*
X929538Y-2190648D01*
X927100Y-2192223D01*
X924306Y-2193036D01*
X372008Y-2193137D01*
X369163Y-2192731D01*
X366522Y-2191512D01*
X364337Y-2189632D01*
X362762Y-2187194D01*
X361950Y-2184400D01*
X362204Y-2178050D01*
X362204Y-2143150D01*
X301650Y-2143150D01*
X301650Y-2182977D01*
X301193Y-2185822D01*
X300024Y-2188464D01*
X298094Y-2190648D01*
X295706Y-2192223D01*
X292912Y-2193036D01*
X216560Y-2193137D01*
X213664Y-2192731D01*
X211023Y-2191512D01*
X208838Y-2189632D01*
X207314Y-2187194D01*
X206502Y-2184400D01*
X206400Y-2143150D01*
X145796Y-2143150D01*
X145796Y-2178050D01*
X146151Y-2182977D01*
X145745Y-2185822D01*
X144526Y-2188464D01*
X142646Y-2190648D01*
X140208Y-2192223D01*
X137414Y-2193036D01*
X79756Y-2193137D01*
X76860Y-2192731D01*
X74218Y-2191512D01*
X72034Y-2189632D01*
X70510Y-2187194D01*
X69697Y-2184400D01*
X69697Y-2181301D01*
X70815Y-2178100D01*
X71729Y-2176729D01*
X76301Y-2172208D01*
X82753Y-2165248D01*
X88493Y-2157730D01*
X93624Y-2149754D01*
X97993Y-2141372D01*
X101650Y-2132634D01*
X104495Y-2123592D01*
X106527Y-2114346D01*
X107289Y-2109673D01*
X108102Y-2100224D01*
X108102Y-2090775D01*
X107289Y-2081377D01*
X105664Y-2072081D01*
X103174Y-2062937D01*
X101701Y-2058466D01*
X98044Y-2049780D01*
X93726Y-2041398D01*
X88646Y-2033422D01*
X82905Y-2025954D01*
X76504Y-2018995D01*
X69545Y-2012594D01*
X62077Y-2006854D01*
X54102Y-2001774D01*
X45720Y-1997456D01*
X37033Y-1993798D01*
X27990Y-1991004D01*
X23418Y-1989836D01*
X14122Y-1988210D01*
X4724Y-1987397D01*
X-4724Y-1987397D01*
X-14122Y-1988210D01*
X-23418Y-1989836D01*
X-32562Y-1992325D01*
X-37033Y-1993798D01*
X-45720Y-1997456D01*
X-54102Y-2001774D01*
X-62077Y-2006854D01*
X-69545Y-2012594D01*
X-76504Y-2018995D01*
X-82905Y-2025954D01*
X-88646Y-2033422D01*
X-93726Y-2041398D01*
X-98044Y-2049780D01*
X-101701Y-2058466D01*
X-104495Y-2067509D01*
X-105664Y-2072081D01*
X-107289Y-2081377D01*
X-108102Y-2090775D01*
X-108102Y-2100224D01*
X-107289Y-2109673D01*
X-105613Y-2118969D01*
X-103174Y-2128113D01*
X-99923Y-2137054D01*
X-95910Y-2145588D01*
X-91135Y-2153818D01*
X-85699Y-2161540D01*
X-79603Y-2168804D01*
X-71729Y-2176729D01*
X-70815Y-2178100D01*
X-69697Y-2181301D01*
X-69697Y-2184400D01*
X-70510Y-2187194D01*
X-72034Y-2189632D01*
X-74218Y-2191512D01*
X-76860Y-2192731D01*
X-79756Y-2193137D01*
X-175717Y-2193036D01*
X-178460Y-2192223D01*
X-180898Y-2190648D01*
X-182829Y-2188464D01*
X-183997Y-2185822D01*
X-184404Y-2182977D01*
X-184302Y-2181301D01*
X-183184Y-2178100D01*
X-182270Y-2176729D01*
X-177698Y-2172208D01*
X-171246Y-2165248D01*
X-165506Y-2157730D01*
X-160375Y-2149754D01*
X-156006Y-2141372D01*
X-152349Y-2132634D01*
X-149504Y-2123592D01*
X-147472Y-2114346D01*
X-146710Y-2109673D01*
X-145897Y-2100224D01*
X-145897Y-2090775D01*
X-146710Y-2081377D01*
X-148336Y-2072081D01*
X-150825Y-2062937D01*
X-152298Y-2058466D01*
X-155956Y-2049780D01*
X-160274Y-2041398D01*
X-165354Y-2033422D01*
X-171094Y-2025954D01*
X-177495Y-2018995D01*
X-184454Y-2012594D01*
X-191922Y-2006854D01*
X-199898Y-2001774D01*
X-208279Y-1997456D01*
X-216966Y-1993798D01*
X-226009Y-1991004D01*
X-230581Y-1989836D01*
X-239877Y-1988210D01*
X-249275Y-1987397D01*
X-258724Y-1987397D01*
X-268122Y-1988210D01*
X-277418Y-1989836D01*
X-286562Y-1992325D01*
X-291033Y-1993798D01*
X-299720Y-1997456D01*
X-308102Y-2001774D01*
X-316077Y-2006854D01*
X-323545Y-2012594D01*
X-330504Y-2018995D01*
X-336905Y-2025954D01*
X-342646Y-2033422D01*
X-347726Y-2041398D01*
X-352044Y-2049780D01*
X-355701Y-2058466D01*
X-358495Y-2067509D01*
X-359664Y-2072081D01*
X-361289Y-2081377D01*
X-362102Y-2090775D01*
X-362102Y-2100224D01*
X-361289Y-2109673D01*
X-359613Y-2118969D01*
X-357174Y-2128113D01*
X-353923Y-2137054D01*
X-349910Y-2145588D01*
X-345135Y-2153818D01*
X-339699Y-2161540D01*
X-333603Y-2168804D01*
X-325729Y-2176729D01*
X-324815Y-2178100D01*
X-323697Y-2181301D01*
X-323697Y-2184400D01*
X-324510Y-2187194D01*
X-326034Y-2189632D01*
X-328218Y-2191512D01*
X-330860Y-2192731D01*
X-333756Y-2193137D01*
X-429717Y-2193036D01*
X-432460Y-2192223D01*
X-434898Y-2190648D01*
X-436829Y-2188464D01*
X-437997Y-2185822D01*
X-438404Y-2182977D01*
X-438302Y-2181301D01*
X-437184Y-2178100D01*
X-436270Y-2176729D01*
X-431698Y-2172208D01*
X-425246Y-2165248D01*
X-419506Y-2157730D01*
X-414375Y-2149754D01*
X-410006Y-2141372D01*
X-406349Y-2132634D01*
X-403504Y-2123592D01*
X-401472Y-2114346D01*
X-400710Y-2109673D01*
X-399897Y-2100224D01*
X-399897Y-2090623D01*
X-400761Y-2080920D01*
X-402539Y-2071370D01*
X-403707Y-2066645D01*
X-406704Y-2057400D01*
X-410565Y-2048459D01*
X-415188Y-2039874D01*
X-420573Y-2031746D01*
X-426618Y-2024176D01*
X-433374Y-2017166D01*
X-440740Y-2010765D01*
X-448614Y-2005025D01*
X-456996Y-2000097D01*
X-459485Y-1998218D01*
X-461264Y-1995678D01*
X-461873Y-1994204D01*
X-462229Y-1992680D01*
X-462330Y-1407363D01*
X-461924Y-1404518D01*
X-460756Y-1401876D01*
X-457301Y-1395679D01*
X-454659Y-1389075D01*
X-453643Y-1385671D01*
X-452323Y-1378712D01*
X-451866Y-1371600D01*
X-452323Y-1364488D01*
X-453643Y-1357528D01*
X-455879Y-1350772D01*
X-458927Y-1344371D01*
X-461416Y-1340053D01*
X-462229Y-1337259D01*
X-462330Y-645363D01*
X-461924Y-642518D01*
X-460756Y-639876D01*
X-457301Y-633679D01*
X-454659Y-627075D01*
X-453643Y-623671D01*
X-452323Y-616712D01*
X-451866Y-609600D01*
X-452272Y-602843D01*
X-453491Y-596188D01*
X-455523Y-589686D01*
X-456793Y-586536D01*
X-459943Y-580542D01*
X-463804Y-575005D01*
X-468325Y-569925D01*
X-473405Y-565404D01*
X-478942Y-561543D01*
X-484936Y-558393D01*
X-491286Y-556006D01*
X-497890Y-554380D01*
X-504596Y-553567D01*
X-511556Y-553567D01*
X-518617Y-554482D01*
X-522071Y-555244D01*
X-528828Y-557479D01*
X-535228Y-560527D01*
X-539546Y-563016D01*
X-542340Y-563829D01*
X-1196136Y-563930D01*
X-1198981Y-563524D01*
X-1201623Y-562356D01*
X-1207820Y-558901D01*
X-1214424Y-556260D01*
X-1217828Y-555244D01*
X-1224788Y-553923D01*
X-1231900Y-553466D01*
X-1238656Y-553872D01*
X-1245311Y-555091D01*
X-1251813Y-557123D01*
X-1254963Y-558393D01*
X-1260957Y-561543D01*
X-1266494Y-565404D01*
X-1271574Y-569925D01*
X-1276096Y-575005D01*
X-1279956Y-580542D01*
X-1283106Y-586536D01*
X-1285494Y-592886D01*
X-1287119Y-599490D01*
X-1287932Y-606196D01*
X-1287983Y-615899D01*
X-1288796Y-618642D01*
X-1290320Y-621080D01*
X-1292504Y-622960D01*
X-1295146Y-624179D01*
X-1298041Y-624586D01*
X-1299616Y-624484D01*
X-1302613Y-623468D01*
X-1305204Y-621639D01*
X-1331214Y-595426D01*
X-1332636Y-592582D01*
X-1333042Y-591058D01*
X-1333042Y-195935D01*
X-1332128Y-193090D01*
X-1330452Y-190550D01*
X-1328115Y-187909D01*
X-1324051Y-182270D01*
X-1320698Y-176123D01*
X-1318158Y-169621D01*
X-1316431Y-162814D01*
X-1315567Y-155905D01*
X-1315567Y-148996D01*
X-1316380Y-142290D01*
X-1318006Y-135686D01*
X-1320393Y-129336D01*
X-1323543Y-123342D01*
X-1327404Y-117805D01*
X-1331925Y-112725D01*
X-1337005Y-108204D01*
X-1342542Y-104343D01*
X-1348536Y-101193D01*
X-1354886Y-98806D01*
X-1361490Y-97180D01*
X-1368196Y-96367D01*
X-1375003Y-96367D01*
X-1381709Y-97180D01*
X-1388313Y-98806D01*
X-1394663Y-101193D01*
X-1400657Y-104343D01*
X-1406194Y-108204D01*
X-1411274Y-112725D01*
X-1415796Y-117805D01*
X-1419656Y-123342D01*
X-1422806Y-129336D01*
X-1425194Y-135686D01*
X-1426819Y-142290D01*
X-1427632Y-148996D01*
X-1427632Y-155905D01*
X-1426768Y-162814D01*
X-1425041Y-169621D01*
X-1422501Y-176123D01*
X-1419148Y-182270D01*
X-1415084Y-187909D01*
X-1411833Y-191770D01*
X-1410512Y-194462D01*
X-1410157Y-195935D01*
X-1410055Y-609600D01*
X-1409598Y-615594D01*
X-1408176Y-621487D01*
X-1405890Y-627075D01*
X-1402689Y-632206D01*
X-1400860Y-634593D01*
X-1062380Y-973226D01*
X-1060551Y-975664D01*
X-1059942Y-977036D01*
X-1059383Y-980033D01*
X-1058672Y-986993D01*
X-1057148Y-993800D01*
X-1054760Y-1000353D01*
X-1051560Y-1006602D01*
X-1047597Y-1012342D01*
X-1042974Y-1017574D01*
X-1037742Y-1022197D01*
X-1032002Y-1026160D01*
X-1025753Y-1029360D01*
X-1019200Y-1031748D01*
X-1012393Y-1033271D01*
X-1005433Y-1033983D01*
X-1002436Y-1034542D01*
X-999794Y-1035964D01*
X-802386Y-1233373D01*
X-800963Y-1236218D01*
X-800557Y-1237742D01*
X-800455Y-1987600D01*
X-800862Y-1990445D01*
X-802081Y-1993087D01*
X-804011Y-1995271D01*
X-806450Y-1996846D01*
X-810768Y-1998878D01*
X-819099Y-2003552D01*
X-826973Y-2008987D01*
X-834339Y-2015032D01*
X-841146Y-2021738D01*
X-847344Y-2029002D01*
X-852881Y-2036775D01*
X-857707Y-2045004D01*
X-861771Y-2053640D01*
X-863549Y-2058060D01*
X-866444Y-2067204D01*
X-868527Y-2076500D01*
X-869797Y-2085949D01*
X-870203Y-2095500D01*
X-869797Y-2104948D01*
X-869289Y-2109673D01*
X-867613Y-2118969D01*
X-865174Y-2128113D01*
X-861923Y-2137054D01*
X-857910Y-2145588D01*
X-853135Y-2153818D01*
X-847699Y-2161540D01*
X-841603Y-2168804D01*
X-833729Y-2176729D01*
X-832815Y-2178100D01*
X-831697Y-2181301D01*
X-831697Y-2184400D01*
X-832510Y-2187194D01*
X-834034Y-2189632D01*
X-836218Y-2191512D01*
X-838860Y-2192731D01*
X-841756Y-2193137D01*
G37*

%LPC*%
G36*
X751332Y-2142845D02*
G01*
X761542Y-2142439D01*
X771702Y-2141220D01*
X781761Y-2139137D01*
X791616Y-2136292D01*
X801166Y-2132685D01*
X810463Y-2128266D01*
X819302Y-2123135D01*
X823620Y-2120341D01*
X831799Y-2114143D01*
X839469Y-2107387D01*
X846582Y-2099970D01*
X853033Y-2092045D01*
X858875Y-2083612D01*
X864006Y-2074722D01*
X868375Y-2065477D01*
X872032Y-2055875D01*
X874877Y-2046020D01*
X876909Y-2036013D01*
X878128Y-2025853D01*
X878586Y-2015591D01*
X878128Y-2005330D01*
X876909Y-1995170D01*
X874877Y-1985162D01*
X872032Y-1975307D01*
X868375Y-1965706D01*
X864006Y-1956460D01*
X858875Y-1947570D01*
X853033Y-1939137D01*
X846582Y-1931212D01*
X839469Y-1923796D01*
X831799Y-1917039D01*
X823620Y-1910842D01*
X814933Y-1905406D01*
X805840Y-1900631D01*
X796442Y-1896618D01*
X786688Y-1893366D01*
X776782Y-1890928D01*
X766622Y-1889252D01*
X756412Y-1888439D01*
X746201Y-1888439D01*
X735990Y-1889252D01*
X725830Y-1890928D01*
X715924Y-1893366D01*
X706170Y-1896618D01*
X696772Y-1900631D01*
X687679Y-1905406D01*
X678992Y-1910842D01*
X670814Y-1917039D01*
X663143Y-1923796D01*
X656031Y-1931212D01*
X649579Y-1939137D01*
X643737Y-1947570D01*
X638606Y-1956460D01*
X634238Y-1965706D01*
X630580Y-1975307D01*
X627735Y-1985162D01*
X625703Y-1995170D01*
X624484Y-2005330D01*
X624078Y-2015591D01*
X624484Y-2025853D01*
X625703Y-2036013D01*
X627735Y-2046020D01*
X630580Y-2055875D01*
X634238Y-2065477D01*
X638606Y-2074722D01*
X643737Y-2083612D01*
X649579Y-2092045D01*
X656031Y-2099970D01*
X663143Y-2107387D01*
X670814Y-2114143D01*
X678992Y-2120341D01*
X687679Y-2125776D01*
X696772Y-2130552D01*
X706170Y-2134565D01*
X715924Y-2137816D01*
X725830Y-2140254D01*
X735990Y-2141931D01*
X746201Y-2142744D01*
G37*
G36*
X145796Y-2047900D02*
G01*
X206400Y-2047900D01*
X206400Y-1987296D01*
X169062Y-1987397D01*
X164439Y-1988261D01*
X160020Y-1989988D01*
X156006Y-1992477D01*
X152501Y-1995678D01*
X149656Y-1999437D01*
X147523Y-2003704D01*
X146761Y-2005939D01*
X145897Y-2010562D01*
G37*
G36*
X301650Y-2047900D02*
G01*
X362204Y-2047900D01*
X362102Y-2010562D01*
X361238Y-2005939D01*
X359511Y-2001520D01*
X357022Y-1997506D01*
X353822Y-1994001D01*
X350062Y-1991156D01*
X345795Y-1989023D01*
X343560Y-1988261D01*
X338937Y-1987397D01*
X301650Y-1987296D01*
G37*
G36*
X-1574800Y-1757934D02*
G01*
X-1567688Y-1757476D01*
X-1560728Y-1756156D01*
X-1553972Y-1753920D01*
X-1547571Y-1750872D01*
X-1543253Y-1748383D01*
X-1540459Y-1747570D01*
X-1318514Y-1747469D01*
X-1315669Y-1747875D01*
X-1313027Y-1749043D01*
X-1306830Y-1752498D01*
X-1300175Y-1755139D01*
X-1296771Y-1756156D01*
X-1289812Y-1757527D01*
X-1282700Y-1757934D01*
X-1275943Y-1757527D01*
X-1269238Y-1756308D01*
X-1262786Y-1754327D01*
X-1256588Y-1751533D01*
X-1250797Y-1748028D01*
X-1245463Y-1743811D01*
X-1242974Y-1741525D01*
X-1238504Y-1736445D01*
X-1234643Y-1730857D01*
X-1231493Y-1724863D01*
X-1230172Y-1721713D01*
X-1228191Y-1715262D01*
X-1226972Y-1708556D01*
X-1226566Y-1701800D01*
X-1226972Y-1695043D01*
X-1228191Y-1688338D01*
X-1230172Y-1681886D01*
X-1232966Y-1675688D01*
X-1236472Y-1669897D01*
X-1240688Y-1664563D01*
X-1242974Y-1662074D01*
X-1248054Y-1657604D01*
X-1253642Y-1653743D01*
X-1259636Y-1650593D01*
X-1262786Y-1649272D01*
X-1269238Y-1647291D01*
X-1275943Y-1646072D01*
X-1282700Y-1645666D01*
X-1289812Y-1646072D01*
X-1296771Y-1647443D01*
X-1303528Y-1649679D01*
X-1309979Y-1652727D01*
X-1314297Y-1655216D01*
X-1317091Y-1656029D01*
X-1539036Y-1656130D01*
X-1541881Y-1655724D01*
X-1544523Y-1654556D01*
X-1550720Y-1651101D01*
X-1557324Y-1648460D01*
X-1560728Y-1647443D01*
X-1567688Y-1646123D01*
X-1574800Y-1645666D01*
X-1581556Y-1646072D01*
X-1588211Y-1647291D01*
X-1594713Y-1649323D01*
X-1597863Y-1650593D01*
X-1603857Y-1653743D01*
X-1609394Y-1657604D01*
X-1614474Y-1662125D01*
X-1618996Y-1667205D01*
X-1622856Y-1672742D01*
X-1626006Y-1678736D01*
X-1628394Y-1685086D01*
X-1630019Y-1691690D01*
X-1630832Y-1698396D01*
X-1630832Y-1705203D01*
X-1630019Y-1711909D01*
X-1628394Y-1718513D01*
X-1626006Y-1724863D01*
X-1622856Y-1730857D01*
X-1618996Y-1736394D01*
X-1614474Y-1741474D01*
X-1609394Y-1745996D01*
X-1603857Y-1749856D01*
X-1597863Y-1753006D01*
X-1591513Y-1755393D01*
X-1584909Y-1757019D01*
X-1578203Y-1757832D01*
G37*
G36*
X586587Y-1524355D02*
G01*
X620268Y-1524355D01*
X620268Y-1465021D01*
X560933Y-1465021D01*
X561035Y-1501038D01*
X561898Y-1505712D01*
X563626Y-1510131D01*
X566115Y-1514144D01*
X569315Y-1517650D01*
X573074Y-1520494D01*
X577342Y-1522628D01*
X579577Y-1523390D01*
X584250Y-1524254D01*
G37*
G36*
X712927Y-1524355D02*
G01*
X748944Y-1524254D01*
X753618Y-1523390D01*
X758037Y-1521663D01*
X762050Y-1519174D01*
X765556Y-1515973D01*
X768400Y-1512214D01*
X770534Y-1507947D01*
X771296Y-1505712D01*
X772160Y-1501038D01*
X772261Y-1465021D01*
X712927Y-1465021D01*
G37*
G36*
X412597Y-1524355D02*
G01*
X422046Y-1523898D01*
X426770Y-1523390D01*
X436118Y-1521714D01*
X445262Y-1519174D01*
X454101Y-1515821D01*
X462686Y-1511706D01*
X470814Y-1506880D01*
X478485Y-1501292D01*
X485597Y-1495044D01*
X492150Y-1488186D01*
X498093Y-1480769D01*
X503275Y-1472895D01*
X507796Y-1464513D01*
X511505Y-1455826D01*
X514451Y-1446784D01*
X515620Y-1442212D01*
X517296Y-1432864D01*
X518159Y-1423416D01*
X518159Y-1413967D01*
X517296Y-1404518D01*
X515620Y-1395171D01*
X513080Y-1386027D01*
X509727Y-1377188D01*
X505612Y-1368602D01*
X500786Y-1360474D01*
X495198Y-1352804D01*
X488950Y-1345692D01*
X482092Y-1339138D01*
X474675Y-1333195D01*
X466801Y-1328013D01*
X458419Y-1323492D01*
X449732Y-1319784D01*
X440690Y-1316837D01*
X436118Y-1315669D01*
X426770Y-1313992D01*
X417322Y-1313129D01*
X407873Y-1313129D01*
X398424Y-1313992D01*
X389077Y-1315669D01*
X379933Y-1318209D01*
X371094Y-1321562D01*
X362508Y-1325676D01*
X354380Y-1330502D01*
X346710Y-1336090D01*
X339598Y-1342339D01*
X333044Y-1349197D01*
X327101Y-1356614D01*
X321919Y-1364488D01*
X317398Y-1372870D01*
X313690Y-1381556D01*
X310743Y-1390599D01*
X309575Y-1395171D01*
X307898Y-1404518D01*
X307035Y-1413967D01*
X307035Y-1423416D01*
X307898Y-1432864D01*
X309575Y-1442212D01*
X312115Y-1451356D01*
X315468Y-1460195D01*
X319582Y-1468780D01*
X324408Y-1476908D01*
X329996Y-1484579D01*
X336245Y-1491691D01*
X343103Y-1498244D01*
X350520Y-1504188D01*
X358394Y-1509369D01*
X366776Y-1513890D01*
X375462Y-1517599D01*
X384505Y-1520545D01*
X389077Y-1521714D01*
X398424Y-1523390D01*
X407873Y-1524254D01*
G37*
G36*
X560933Y-1372362D02*
G01*
X620268Y-1372362D01*
X620268Y-1313027D01*
X584250Y-1313129D01*
X579577Y-1313992D01*
X575157Y-1315720D01*
X571144Y-1318209D01*
X567639Y-1321409D01*
X564794Y-1325168D01*
X562660Y-1329436D01*
X561898Y-1331671D01*
X561035Y-1336344D01*
G37*
G36*
X712927Y-1372362D02*
G01*
X772261Y-1372362D01*
X772160Y-1336344D01*
X771296Y-1331671D01*
X769569Y-1327251D01*
X767080Y-1323238D01*
X763879Y-1319733D01*
X760120Y-1316888D01*
X755853Y-1314754D01*
X753618Y-1313992D01*
X748944Y-1313129D01*
X712927Y-1313027D01*
G37*
G36*
X666597Y-1270355D02*
G01*
X676046Y-1269898D01*
X680770Y-1269390D01*
X690118Y-1267714D01*
X699262Y-1265174D01*
X708101Y-1261821D01*
X716686Y-1257706D01*
X724814Y-1252880D01*
X732485Y-1247292D01*
X739597Y-1241044D01*
X746150Y-1234186D01*
X752094Y-1226769D01*
X757275Y-1218895D01*
X761796Y-1210513D01*
X765505Y-1201826D01*
X768451Y-1192784D01*
X769620Y-1188212D01*
X771296Y-1178864D01*
X772160Y-1169416D01*
X772160Y-1159967D01*
X771296Y-1150518D01*
X769620Y-1141171D01*
X767080Y-1132027D01*
X763727Y-1123188D01*
X759612Y-1114602D01*
X754786Y-1106474D01*
X749198Y-1098804D01*
X742950Y-1091692D01*
X736092Y-1085138D01*
X728675Y-1079195D01*
X720801Y-1074013D01*
X712419Y-1069492D01*
X703732Y-1065784D01*
X694690Y-1062837D01*
X690118Y-1061669D01*
X680770Y-1059992D01*
X671322Y-1059129D01*
X661873Y-1059129D01*
X652424Y-1059992D01*
X643077Y-1061669D01*
X633933Y-1064209D01*
X625094Y-1067562D01*
X616508Y-1071676D01*
X608380Y-1076502D01*
X600710Y-1082090D01*
X593598Y-1088339D01*
X587044Y-1095197D01*
X581101Y-1102614D01*
X575919Y-1110488D01*
X571398Y-1118870D01*
X567690Y-1127556D01*
X564743Y-1136599D01*
X563575Y-1141171D01*
X561898Y-1150518D01*
X561035Y-1159967D01*
X561035Y-1169416D01*
X561898Y-1178864D01*
X563575Y-1188212D01*
X566115Y-1197356D01*
X569468Y-1206195D01*
X573582Y-1214780D01*
X578408Y-1222908D01*
X583996Y-1230579D01*
X590245Y-1237691D01*
X597103Y-1244244D01*
X604520Y-1250188D01*
X612394Y-1255369D01*
X620776Y-1259890D01*
X629462Y-1263599D01*
X638505Y-1266545D01*
X643077Y-1267714D01*
X652424Y-1269390D01*
X661873Y-1270254D01*
G37*
G36*
X412597Y-1270355D02*
G01*
X422046Y-1269898D01*
X426770Y-1269390D01*
X436118Y-1267714D01*
X445262Y-1265174D01*
X454101Y-1261821D01*
X462686Y-1257706D01*
X470814Y-1252880D01*
X478485Y-1247292D01*
X485597Y-1241044D01*
X492150Y-1234186D01*
X498093Y-1226769D01*
X503275Y-1218895D01*
X507796Y-1210513D01*
X511505Y-1201826D01*
X514451Y-1192784D01*
X515620Y-1188212D01*
X517296Y-1178864D01*
X518159Y-1169416D01*
X518159Y-1159967D01*
X517296Y-1150518D01*
X515620Y-1141171D01*
X513080Y-1132027D01*
X509727Y-1123188D01*
X505612Y-1114602D01*
X500786Y-1106474D01*
X495198Y-1098804D01*
X488950Y-1091692D01*
X482092Y-1085138D01*
X474675Y-1079195D01*
X466801Y-1074013D01*
X458419Y-1069492D01*
X449732Y-1065784D01*
X440690Y-1062837D01*
X436118Y-1061669D01*
X426770Y-1059992D01*
X417322Y-1059129D01*
X407873Y-1059129D01*
X398424Y-1059992D01*
X389077Y-1061669D01*
X379933Y-1064209D01*
X371094Y-1067562D01*
X362508Y-1071676D01*
X354380Y-1076502D01*
X346710Y-1082090D01*
X339598Y-1088339D01*
X333044Y-1095197D01*
X327101Y-1102614D01*
X321919Y-1110488D01*
X317398Y-1118870D01*
X313690Y-1127556D01*
X310743Y-1136599D01*
X309575Y-1141171D01*
X307898Y-1150518D01*
X307035Y-1159967D01*
X307035Y-1169416D01*
X307898Y-1178864D01*
X309575Y-1188212D01*
X312115Y-1197356D01*
X315468Y-1206195D01*
X319582Y-1214780D01*
X324408Y-1222908D01*
X329996Y-1230579D01*
X336245Y-1237691D01*
X343103Y-1244244D01*
X350520Y-1250188D01*
X358394Y-1255369D01*
X366776Y-1259890D01*
X375462Y-1263599D01*
X384505Y-1266545D01*
X389077Y-1267714D01*
X398424Y-1269390D01*
X407873Y-1270254D01*
G37*
G36*
X-1790700Y-1186434D02*
G01*
X-1783588Y-1185976D01*
X-1776628Y-1184656D01*
X-1769872Y-1182420D01*
X-1763471Y-1179372D01*
X-1759153Y-1176883D01*
X-1756359Y-1176070D01*
X-1600200Y-1175969D01*
X-1593697Y-1175512D01*
X-1587347Y-1174089D01*
X-1584248Y-1173073D01*
X-1578305Y-1170381D01*
X-1572818Y-1166825D01*
X-1567942Y-1162558D01*
X-1377340Y-971956D01*
X-1375003Y-970229D01*
X-1372311Y-969213D01*
X-1368958Y-968400D01*
X-1362405Y-966114D01*
X-1356258Y-963015D01*
X-1350467Y-959205D01*
X-1345234Y-954684D01*
X-1342796Y-952246D01*
X-1338478Y-946861D01*
X-1334871Y-940968D01*
X-1333296Y-937869D01*
X-1330807Y-931418D01*
X-1329842Y-928116D01*
X-1328572Y-921308D01*
X-1328166Y-914400D01*
X-1328572Y-907643D01*
X-1329791Y-900988D01*
X-1331823Y-894486D01*
X-1333093Y-891336D01*
X-1336243Y-885342D01*
X-1340104Y-879805D01*
X-1344625Y-874725D01*
X-1349705Y-870203D01*
X-1355242Y-866343D01*
X-1361236Y-863193D01*
X-1367586Y-860806D01*
X-1374190Y-859180D01*
X-1380896Y-858367D01*
X-1387754Y-858367D01*
X-1391208Y-858672D01*
X-1398016Y-859942D01*
X-1404569Y-862076D01*
X-1407769Y-863396D01*
X-1413865Y-866698D01*
X-1419504Y-870661D01*
X-1424584Y-875334D01*
X-1429105Y-880567D01*
X-1432915Y-886358D01*
X-1436014Y-892505D01*
X-1438300Y-899058D01*
X-1439519Y-903782D01*
X-1440942Y-906322D01*
X-1616151Y-1081684D01*
X-1618691Y-1083564D01*
X-1620164Y-1084173D01*
X-1623314Y-1084630D01*
X-1756359Y-1084529D01*
X-1759153Y-1083716D01*
X-1763471Y-1081227D01*
X-1769872Y-1078179D01*
X-1776628Y-1075944D01*
X-1783588Y-1074623D01*
X-1790700Y-1074166D01*
X-1797456Y-1074572D01*
X-1804111Y-1075791D01*
X-1810613Y-1077823D01*
X-1813763Y-1079093D01*
X-1819757Y-1082243D01*
X-1825294Y-1086104D01*
X-1830374Y-1090625D01*
X-1834896Y-1095705D01*
X-1838756Y-1101242D01*
X-1841906Y-1107236D01*
X-1844293Y-1113586D01*
X-1845919Y-1120190D01*
X-1846732Y-1126896D01*
X-1846732Y-1133703D01*
X-1845919Y-1140409D01*
X-1844293Y-1147013D01*
X-1841906Y-1153363D01*
X-1838756Y-1159357D01*
X-1834896Y-1164894D01*
X-1830374Y-1169974D01*
X-1825294Y-1174496D01*
X-1819757Y-1178356D01*
X-1813763Y-1181506D01*
X-1807413Y-1183894D01*
X-1800809Y-1185519D01*
X-1794103Y-1186332D01*
G37*
G36*
X666597Y-1016355D02*
G01*
X676046Y-1015898D01*
X680770Y-1015390D01*
X690118Y-1013714D01*
X699262Y-1011174D01*
X708101Y-1007821D01*
X716686Y-1003706D01*
X724814Y-998880D01*
X732485Y-993292D01*
X739597Y-987044D01*
X746150Y-980186D01*
X752094Y-972769D01*
X757275Y-964895D01*
X761796Y-956513D01*
X765505Y-947826D01*
X768451Y-938784D01*
X769620Y-934212D01*
X771296Y-924864D01*
X772160Y-915416D01*
X772160Y-905967D01*
X771296Y-896518D01*
X769620Y-887171D01*
X767080Y-878027D01*
X763727Y-869187D01*
X759612Y-860602D01*
X754786Y-852474D01*
X749198Y-844803D01*
X742950Y-837692D01*
X736092Y-831138D01*
X728675Y-825195D01*
X720801Y-820013D01*
X712419Y-815492D01*
X703732Y-811784D01*
X694690Y-808837D01*
X690118Y-807669D01*
X680770Y-805992D01*
X671322Y-805129D01*
X661873Y-805129D01*
X652424Y-805992D01*
X643077Y-807669D01*
X633933Y-810209D01*
X625094Y-813562D01*
X616508Y-817676D01*
X608380Y-822502D01*
X600710Y-828090D01*
X593598Y-834339D01*
X587044Y-841197D01*
X581101Y-848614D01*
X575919Y-856487D01*
X571398Y-864869D01*
X567690Y-873556D01*
X564743Y-882599D01*
X563575Y-887171D01*
X561898Y-896518D01*
X561035Y-905967D01*
X561035Y-915416D01*
X561898Y-924864D01*
X563575Y-934212D01*
X566115Y-943356D01*
X569468Y-952195D01*
X573582Y-960780D01*
X578408Y-968908D01*
X583996Y-976579D01*
X590245Y-983691D01*
X597103Y-990244D01*
X604520Y-996187D01*
X612394Y-1001369D01*
X620776Y-1005890D01*
X629462Y-1009599D01*
X638505Y-1012545D01*
X643077Y-1013714D01*
X652424Y-1015390D01*
X661873Y-1016253D01*
G37*
G36*
X412597Y-1016355D02*
G01*
X422046Y-1015898D01*
X426770Y-1015390D01*
X436118Y-1013714D01*
X445262Y-1011174D01*
X454101Y-1007821D01*
X462686Y-1003706D01*
X470814Y-998880D01*
X478485Y-993292D01*
X485597Y-987044D01*
X492150Y-980186D01*
X498093Y-972769D01*
X503275Y-964895D01*
X507796Y-956513D01*
X511505Y-947826D01*
X514451Y-938784D01*
X515620Y-934212D01*
X517296Y-924864D01*
X518159Y-915416D01*
X518159Y-905967D01*
X517296Y-896518D01*
X515620Y-887171D01*
X513080Y-878027D01*
X509727Y-869187D01*
X505612Y-860602D01*
X500786Y-852474D01*
X495198Y-844803D01*
X488950Y-837692D01*
X482092Y-831138D01*
X474675Y-825195D01*
X466801Y-820013D01*
X458419Y-815492D01*
X449732Y-811784D01*
X440690Y-808837D01*
X436118Y-807669D01*
X426770Y-805992D01*
X417322Y-805129D01*
X407873Y-805129D01*
X398424Y-805992D01*
X389077Y-807669D01*
X379933Y-810209D01*
X371094Y-813562D01*
X362508Y-817676D01*
X354380Y-822502D01*
X346710Y-828090D01*
X339598Y-834339D01*
X333044Y-841197D01*
X327101Y-848614D01*
X321919Y-856487D01*
X317398Y-864869D01*
X313690Y-873556D01*
X310743Y-882599D01*
X309575Y-887171D01*
X307898Y-896518D01*
X307035Y-905967D01*
X307035Y-915416D01*
X307898Y-924864D01*
X309575Y-934212D01*
X312115Y-943356D01*
X315468Y-952195D01*
X319582Y-960780D01*
X324408Y-968908D01*
X329996Y-976579D01*
X336245Y-983691D01*
X343103Y-990244D01*
X350520Y-996187D01*
X358394Y-1001369D01*
X366776Y-1005890D01*
X375462Y-1009599D01*
X384505Y-1012545D01*
X389077Y-1013714D01*
X398424Y-1015390D01*
X407873Y-1016253D01*
G37*
G36*
X412597Y-762355D02*
G01*
X422046Y-761898D01*
X426770Y-761390D01*
X436118Y-759714D01*
X445262Y-757174D01*
X454101Y-753821D01*
X462686Y-749706D01*
X470814Y-744880D01*
X478485Y-739292D01*
X485597Y-733044D01*
X492150Y-726186D01*
X498093Y-718769D01*
X503275Y-710895D01*
X507796Y-702513D01*
X511505Y-693826D01*
X514451Y-684784D01*
X515620Y-680212D01*
X517296Y-670864D01*
X518159Y-661416D01*
X518159Y-651967D01*
X517296Y-642518D01*
X515620Y-633171D01*
X513080Y-624027D01*
X509727Y-615188D01*
X505612Y-606602D01*
X500786Y-598474D01*
X495198Y-590804D01*
X488950Y-583692D01*
X482092Y-577138D01*
X474675Y-571195D01*
X466801Y-566013D01*
X458419Y-561492D01*
X449732Y-557784D01*
X440690Y-554837D01*
X436118Y-553669D01*
X426770Y-551992D01*
X417322Y-551129D01*
X407873Y-551129D01*
X398424Y-551992D01*
X389077Y-553669D01*
X379933Y-556209D01*
X371094Y-559562D01*
X362508Y-563676D01*
X354380Y-568502D01*
X346710Y-574090D01*
X339598Y-580339D01*
X333044Y-587197D01*
X327101Y-594614D01*
X321919Y-602488D01*
X317398Y-610870D01*
X313690Y-619556D01*
X310743Y-628599D01*
X309575Y-633171D01*
X307898Y-642518D01*
X307035Y-651967D01*
X307035Y-661416D01*
X307898Y-670864D01*
X309575Y-680212D01*
X312115Y-689356D01*
X315468Y-698195D01*
X319582Y-706780D01*
X324408Y-714908D01*
X329996Y-722579D01*
X336245Y-729691D01*
X343103Y-736244D01*
X350520Y-742188D01*
X358394Y-747369D01*
X366776Y-751890D01*
X375462Y-755599D01*
X384505Y-758545D01*
X389077Y-759714D01*
X398424Y-761390D01*
X407873Y-762254D01*
G37*
G36*
X666597Y-762355D02*
G01*
X676046Y-761898D01*
X680770Y-761390D01*
X690118Y-759714D01*
X699262Y-757174D01*
X708101Y-753821D01*
X716686Y-749706D01*
X724814Y-744880D01*
X732485Y-739292D01*
X739597Y-733044D01*
X746150Y-726186D01*
X752094Y-718769D01*
X757275Y-710895D01*
X761796Y-702513D01*
X765505Y-693826D01*
X768451Y-684784D01*
X769620Y-680212D01*
X771296Y-670864D01*
X772160Y-661416D01*
X772160Y-651967D01*
X771296Y-642518D01*
X769620Y-633171D01*
X767080Y-624027D01*
X763727Y-615188D01*
X759612Y-606602D01*
X754786Y-598474D01*
X749198Y-590804D01*
X742950Y-583692D01*
X736092Y-577138D01*
X728675Y-571195D01*
X720801Y-566013D01*
X712419Y-561492D01*
X703732Y-557784D01*
X694690Y-554837D01*
X690118Y-553669D01*
X680770Y-551992D01*
X671322Y-551129D01*
X661873Y-551129D01*
X652424Y-551992D01*
X643077Y-553669D01*
X633933Y-556209D01*
X625094Y-559562D01*
X616508Y-563676D01*
X608380Y-568502D01*
X600710Y-574090D01*
X593598Y-580339D01*
X587044Y-587197D01*
X581101Y-594614D01*
X575919Y-602488D01*
X571398Y-610870D01*
X567690Y-619556D01*
X564743Y-628599D01*
X563575Y-633171D01*
X561898Y-642518D01*
X561035Y-651967D01*
X561035Y-661416D01*
X561898Y-670864D01*
X563575Y-680212D01*
X566115Y-689356D01*
X569468Y-698195D01*
X573582Y-706780D01*
X578408Y-714908D01*
X583996Y-722579D01*
X590245Y-729691D01*
X597103Y-736244D01*
X604520Y-742188D01*
X612394Y-747369D01*
X620776Y-751890D01*
X629462Y-755599D01*
X638505Y-758545D01*
X643077Y-759714D01*
X652424Y-761390D01*
X661873Y-762254D01*
G37*
G36*
X412597Y-508355D02*
G01*
X422046Y-507898D01*
X426770Y-507390D01*
X436118Y-505714D01*
X445262Y-503174D01*
X454101Y-499821D01*
X462686Y-495706D01*
X470814Y-490880D01*
X478485Y-485292D01*
X485597Y-479043D01*
X492150Y-472185D01*
X498093Y-464769D01*
X503275Y-456895D01*
X507796Y-448513D01*
X511505Y-439826D01*
X514451Y-430784D01*
X515620Y-426212D01*
X517296Y-416864D01*
X518159Y-407416D01*
X518159Y-397967D01*
X517296Y-388518D01*
X515620Y-379171D01*
X513080Y-370027D01*
X509727Y-361188D01*
X505612Y-352602D01*
X500786Y-344474D01*
X495198Y-336804D01*
X488950Y-329692D01*
X482092Y-323138D01*
X474675Y-317195D01*
X466801Y-312013D01*
X458419Y-307492D01*
X449732Y-303784D01*
X440690Y-300837D01*
X436118Y-299669D01*
X426770Y-297992D01*
X417322Y-297129D01*
X407873Y-297129D01*
X398424Y-297992D01*
X389077Y-299669D01*
X379933Y-302209D01*
X371094Y-305562D01*
X362508Y-309676D01*
X354380Y-314502D01*
X346710Y-320090D01*
X339598Y-326339D01*
X333044Y-333197D01*
X327101Y-340614D01*
X321919Y-348488D01*
X317398Y-356870D01*
X313690Y-365556D01*
X310743Y-374599D01*
X309575Y-379171D01*
X307898Y-388518D01*
X307035Y-397967D01*
X307035Y-407416D01*
X307898Y-416864D01*
X309575Y-426212D01*
X312115Y-435356D01*
X315468Y-444195D01*
X319582Y-452780D01*
X324408Y-460908D01*
X329996Y-468579D01*
X336245Y-475691D01*
X343103Y-482244D01*
X350520Y-488188D01*
X358394Y-493369D01*
X366776Y-497890D01*
X375462Y-501599D01*
X384505Y-504545D01*
X389077Y-505714D01*
X398424Y-507390D01*
X407873Y-508254D01*
G37*
G36*
X666597Y-508355D02*
G01*
X676046Y-507898D01*
X680770Y-507390D01*
X690118Y-505714D01*
X699262Y-503174D01*
X708101Y-499821D01*
X716686Y-495706D01*
X724814Y-490880D01*
X732485Y-485292D01*
X739597Y-479043D01*
X746150Y-472185D01*
X752094Y-464769D01*
X757275Y-456895D01*
X761796Y-448513D01*
X765505Y-439826D01*
X768451Y-430784D01*
X769620Y-426212D01*
X771296Y-416864D01*
X772160Y-407416D01*
X772160Y-397967D01*
X771296Y-388518D01*
X769620Y-379171D01*
X767080Y-370027D01*
X763727Y-361188D01*
X759612Y-352602D01*
X754786Y-344474D01*
X749198Y-336804D01*
X742950Y-329692D01*
X736092Y-323138D01*
X728675Y-317195D01*
X720801Y-312013D01*
X712419Y-307492D01*
X703732Y-303784D01*
X694690Y-300837D01*
X690118Y-299669D01*
X680770Y-297992D01*
X671322Y-297129D01*
X661873Y-297129D01*
X652424Y-297992D01*
X643077Y-299669D01*
X633933Y-302209D01*
X625094Y-305562D01*
X616508Y-309676D01*
X608380Y-314502D01*
X600710Y-320090D01*
X593598Y-326339D01*
X587044Y-333197D01*
X581101Y-340614D01*
X575919Y-348488D01*
X571398Y-356870D01*
X567690Y-365556D01*
X564743Y-374599D01*
X563575Y-379171D01*
X561898Y-388518D01*
X561035Y-397967D01*
X561035Y-407416D01*
X561898Y-416864D01*
X563575Y-426212D01*
X566115Y-435356D01*
X569468Y-444195D01*
X573582Y-452780D01*
X578408Y-460908D01*
X583996Y-468579D01*
X590245Y-475691D01*
X597103Y-482244D01*
X604520Y-488188D01*
X612394Y-493369D01*
X620776Y-497890D01*
X629462Y-501599D01*
X638505Y-504545D01*
X643077Y-505714D01*
X652424Y-507390D01*
X661873Y-508254D01*
G37*
G36*
X666597Y-254355D02*
G01*
X676046Y-253898D01*
X680770Y-253390D01*
X690118Y-251714D01*
X699262Y-249174D01*
X708101Y-245821D01*
X716686Y-241706D01*
X724814Y-236880D01*
X732485Y-231292D01*
X739597Y-225044D01*
X746150Y-218186D01*
X752094Y-210769D01*
X757275Y-202895D01*
X761796Y-194513D01*
X765505Y-185826D01*
X768451Y-176784D01*
X769620Y-172212D01*
X771296Y-162864D01*
X772160Y-153416D01*
X772160Y-143967D01*
X771296Y-134518D01*
X769620Y-125171D01*
X767080Y-116027D01*
X763727Y-107187D01*
X759612Y-98602D01*
X754786Y-90474D01*
X749198Y-82804D01*
X742950Y-75692D01*
X736092Y-69138D01*
X728675Y-63195D01*
X720801Y-58013D01*
X712419Y-53492D01*
X703732Y-49784D01*
X694690Y-46837D01*
X690118Y-45669D01*
X680770Y-43992D01*
X671322Y-43129D01*
X661873Y-43129D01*
X652424Y-43992D01*
X643077Y-45669D01*
X633933Y-48209D01*
X625094Y-51562D01*
X616508Y-55676D01*
X608380Y-60502D01*
X600710Y-66090D01*
X593598Y-72339D01*
X587044Y-79197D01*
X581101Y-86614D01*
X575919Y-94488D01*
X571398Y-102870D01*
X567690Y-111556D01*
X564743Y-120599D01*
X563575Y-125171D01*
X561898Y-134518D01*
X561035Y-143967D01*
X561035Y-153416D01*
X561898Y-162864D01*
X563575Y-172212D01*
X566115Y-181356D01*
X569468Y-190195D01*
X573582Y-198780D01*
X578408Y-206908D01*
X583996Y-214579D01*
X590245Y-221691D01*
X597103Y-228244D01*
X604520Y-234188D01*
X612394Y-239369D01*
X620776Y-243890D01*
X629462Y-247599D01*
X638505Y-250545D01*
X643077Y-251714D01*
X652424Y-253390D01*
X661873Y-254254D01*
G37*
G36*
X412597Y-254355D02*
G01*
X422046Y-253898D01*
X426770Y-253390D01*
X436118Y-251714D01*
X445262Y-249174D01*
X454101Y-245821D01*
X462686Y-241706D01*
X470814Y-236880D01*
X478485Y-231292D01*
X485597Y-225044D01*
X492150Y-218186D01*
X498093Y-210769D01*
X503275Y-202895D01*
X507796Y-194513D01*
X511505Y-185826D01*
X514451Y-176784D01*
X515620Y-172212D01*
X517296Y-162864D01*
X518159Y-153416D01*
X518159Y-143967D01*
X517296Y-134518D01*
X515620Y-125171D01*
X513080Y-116027D01*
X509727Y-107187D01*
X505612Y-98602D01*
X500786Y-90474D01*
X495198Y-82804D01*
X488950Y-75692D01*
X482092Y-69138D01*
X474675Y-63195D01*
X466801Y-58013D01*
X458419Y-53492D01*
X449732Y-49784D01*
X440690Y-46837D01*
X436118Y-45669D01*
X426770Y-43992D01*
X417322Y-43129D01*
X407873Y-43129D01*
X398424Y-43992D01*
X389077Y-45669D01*
X379933Y-48209D01*
X371094Y-51562D01*
X362508Y-55676D01*
X354380Y-60502D01*
X346710Y-66090D01*
X339598Y-72339D01*
X333044Y-79197D01*
X327101Y-86614D01*
X321919Y-94488D01*
X317398Y-102870D01*
X313690Y-111556D01*
X310743Y-120599D01*
X309575Y-125171D01*
X307898Y-134518D01*
X307035Y-143967D01*
X307035Y-153416D01*
X307898Y-162864D01*
X309575Y-172212D01*
X312115Y-181356D01*
X315468Y-190195D01*
X319582Y-198780D01*
X324408Y-206908D01*
X329996Y-214579D01*
X336245Y-221691D01*
X343103Y-228244D01*
X350520Y-234188D01*
X358394Y-239369D01*
X366776Y-243890D01*
X375462Y-247599D01*
X384505Y-250545D01*
X389077Y-251714D01*
X398424Y-253390D01*
X407873Y-254254D01*
G37*
G36*
X25400Y-33172D02*
G01*
X34848Y-32715D01*
X39573Y-32207D01*
X48920Y-30530D01*
X58064Y-27990D01*
X66903Y-24638D01*
X75488Y-20523D01*
X83616Y-15697D01*
X91287Y-10109D01*
X98399Y-3860D01*
X104952Y2997D01*
X110896Y10414D01*
X116078Y18288D01*
X120599Y26670D01*
X124307Y35356D01*
X127254Y44399D01*
X128422Y48971D01*
X130098Y58318D01*
X130962Y67767D01*
X130962Y77216D01*
X130098Y86664D01*
X128422Y96012D01*
X125882Y105156D01*
X122529Y113995D01*
X118414Y122580D01*
X113588Y130708D01*
X108000Y138379D01*
X101752Y145491D01*
X94894Y152044D01*
X87477Y157988D01*
X79603Y163169D01*
X71221Y167690D01*
X62534Y171399D01*
X53492Y174345D01*
X48920Y175514D01*
X39573Y177190D01*
X30124Y178054D01*
X20675Y178054D01*
X11226Y177190D01*
X1879Y175514D01*
X-7264Y172974D01*
X-16103Y169621D01*
X-24688Y165506D01*
X-32816Y160680D01*
X-40487Y155092D01*
X-47599Y148844D01*
X-54152Y141986D01*
X-60096Y134569D01*
X-65278Y126695D01*
X-69799Y118313D01*
X-73507Y109626D01*
X-76454Y100584D01*
X-77622Y96012D01*
X-79298Y86664D01*
X-80162Y77216D01*
X-80162Y67767D01*
X-79298Y58318D01*
X-77622Y48971D01*
X-75082Y39827D01*
X-71729Y30988D01*
X-67614Y22402D01*
X-62788Y14274D01*
X-57200Y6604D01*
X-50952Y-508D01*
X-44094Y-7061D01*
X-36677Y-13004D01*
X-28803Y-18186D01*
X-20421Y-22707D01*
X-11734Y-26416D01*
X-2692Y-29362D01*
X1879Y-30530D01*
X11226Y-32207D01*
X20675Y-33070D01*
G37*
G36*
X412597Y-355D02*
G01*
X422046Y101D01*
X426770Y609D01*
X436118Y2286D01*
X445262Y4826D01*
X454101Y8178D01*
X462686Y12293D01*
X470814Y17119D01*
X478485Y22707D01*
X485597Y28956D01*
X492150Y35814D01*
X498093Y43230D01*
X503275Y51104D01*
X507796Y59486D01*
X511505Y68173D01*
X514451Y77216D01*
X515620Y81788D01*
X517296Y91135D01*
X518159Y100584D01*
X518159Y110032D01*
X517296Y119481D01*
X515620Y128828D01*
X513080Y137972D01*
X509727Y146812D01*
X505612Y155397D01*
X500786Y163525D01*
X495198Y171196D01*
X488950Y178308D01*
X482092Y184861D01*
X474675Y190804D01*
X466801Y195986D01*
X458419Y200507D01*
X449732Y204216D01*
X440690Y207162D01*
X436118Y208330D01*
X426770Y210007D01*
X417322Y210870D01*
X407873Y210870D01*
X398424Y210007D01*
X389077Y208330D01*
X379933Y205790D01*
X371094Y202438D01*
X362508Y198323D01*
X354380Y193497D01*
X346710Y187909D01*
X339598Y181660D01*
X333044Y174802D01*
X327101Y167386D01*
X321919Y159512D01*
X317398Y151130D01*
X313690Y142443D01*
X310743Y133400D01*
X309575Y128828D01*
X307898Y119481D01*
X307035Y110032D01*
X307035Y100584D01*
X307898Y91135D01*
X309575Y81788D01*
X312115Y72644D01*
X315468Y63804D01*
X319582Y55219D01*
X324408Y47091D01*
X329996Y39420D01*
X336245Y32308D01*
X343103Y25755D01*
X350520Y19812D01*
X358394Y14630D01*
X366776Y10109D01*
X375462Y6400D01*
X384505Y3454D01*
X389077Y2286D01*
X398424Y609D01*
X407873Y-254D01*
G37*
G36*
X666597Y-355D02*
G01*
X676046Y101D01*
X680770Y609D01*
X690118Y2286D01*
X699262Y4826D01*
X708101Y8178D01*
X716686Y12293D01*
X724814Y17119D01*
X732485Y22707D01*
X739597Y28956D01*
X746150Y35814D01*
X752094Y43230D01*
X757275Y51104D01*
X761796Y59486D01*
X765505Y68173D01*
X768451Y77216D01*
X769620Y81788D01*
X771296Y91135D01*
X772160Y100584D01*
X772160Y110032D01*
X771296Y119481D01*
X769620Y128828D01*
X767080Y137972D01*
X763727Y146812D01*
X759612Y155397D01*
X754786Y163525D01*
X749198Y171196D01*
X742950Y178308D01*
X736092Y184861D01*
X728675Y190804D01*
X720801Y195986D01*
X712419Y200507D01*
X703732Y204216D01*
X694690Y207162D01*
X690118Y208330D01*
X680770Y210007D01*
X671322Y210870D01*
X661873Y210870D01*
X652424Y210007D01*
X643077Y208330D01*
X633933Y205790D01*
X625094Y202438D01*
X616508Y198323D01*
X608380Y193497D01*
X600710Y187909D01*
X593598Y181660D01*
X587044Y174802D01*
X581101Y167386D01*
X575919Y159512D01*
X571398Y151130D01*
X567690Y142443D01*
X564743Y133400D01*
X563575Y128828D01*
X561898Y119481D01*
X561035Y110032D01*
X561035Y100584D01*
X561898Y91135D01*
X563575Y81788D01*
X566115Y72644D01*
X569468Y63804D01*
X573582Y55219D01*
X578408Y47091D01*
X583996Y39420D01*
X590245Y32308D01*
X597103Y25755D01*
X604520Y19812D01*
X612394Y14630D01*
X620776Y10109D01*
X629462Y6400D01*
X638505Y3454D01*
X643077Y2286D01*
X652424Y609D01*
X661873Y-254D01*
G37*
G36*
X666597Y253644D02*
G01*
X676046Y254101D01*
X680770Y254609D01*
X690118Y256286D01*
X699262Y258825D01*
X708101Y262178D01*
X716686Y266293D01*
X724814Y271119D01*
X732485Y276707D01*
X739597Y282956D01*
X746150Y289814D01*
X752094Y297230D01*
X757275Y305104D01*
X761796Y313486D01*
X765505Y322173D01*
X768451Y331216D01*
X769620Y335788D01*
X771296Y345135D01*
X772160Y354584D01*
X772160Y364032D01*
X771296Y373481D01*
X769620Y382828D01*
X767080Y391972D01*
X763727Y400812D01*
X759612Y409397D01*
X754786Y417525D01*
X749198Y425196D01*
X742950Y432308D01*
X736092Y438861D01*
X728675Y444804D01*
X720801Y449986D01*
X712419Y454507D01*
X703732Y458216D01*
X694690Y461162D01*
X690118Y462330D01*
X680770Y464007D01*
X671322Y464870D01*
X661873Y464870D01*
X652424Y464007D01*
X643077Y462330D01*
X633933Y459790D01*
X625094Y456438D01*
X616508Y452323D01*
X608380Y447497D01*
X600710Y441909D01*
X593598Y435660D01*
X587044Y428802D01*
X581101Y421385D01*
X575919Y413512D01*
X571398Y405130D01*
X567690Y396443D01*
X564743Y387400D01*
X563575Y382828D01*
X561898Y373481D01*
X561035Y364032D01*
X561035Y354584D01*
X561898Y345135D01*
X563575Y335788D01*
X566115Y326644D01*
X569468Y317804D01*
X573582Y309219D01*
X578408Y301091D01*
X583996Y293420D01*
X590245Y286308D01*
X597103Y279755D01*
X604520Y273812D01*
X612394Y268630D01*
X620776Y264109D01*
X629462Y260400D01*
X638505Y257454D01*
X643077Y256286D01*
X652424Y254609D01*
X661873Y253746D01*
G37*
G36*
X412597Y253644D02*
G01*
X422046Y254101D01*
X426770Y254609D01*
X436118Y256286D01*
X445262Y258825D01*
X454101Y262178D01*
X462686Y266293D01*
X470814Y271119D01*
X478485Y276707D01*
X485597Y282956D01*
X492150Y289814D01*
X498093Y297230D01*
X503275Y305104D01*
X507796Y313486D01*
X511505Y322173D01*
X514451Y331216D01*
X515620Y335788D01*
X517296Y345135D01*
X518159Y354584D01*
X518159Y364032D01*
X517296Y373481D01*
X515620Y382828D01*
X513080Y391972D01*
X509727Y400812D01*
X505612Y409397D01*
X500786Y417525D01*
X495198Y425196D01*
X488950Y432308D01*
X482092Y438861D01*
X474675Y444804D01*
X466801Y449986D01*
X458419Y454507D01*
X449732Y458216D01*
X440690Y461162D01*
X436118Y462330D01*
X426770Y464007D01*
X417322Y464870D01*
X407873Y464870D01*
X398424Y464007D01*
X389077Y462330D01*
X379933Y459790D01*
X371094Y456438D01*
X362508Y452323D01*
X354380Y447497D01*
X346710Y441909D01*
X339598Y435660D01*
X333044Y428802D01*
X327101Y421385D01*
X321919Y413512D01*
X317398Y405130D01*
X313690Y396443D01*
X310743Y387400D01*
X309575Y382828D01*
X307898Y373481D01*
X307035Y364032D01*
X307035Y354584D01*
X307898Y345135D01*
X309575Y335788D01*
X312115Y326644D01*
X315468Y317804D01*
X319582Y309219D01*
X324408Y301091D01*
X329996Y293420D01*
X336245Y286308D01*
X343103Y279755D01*
X350520Y273812D01*
X358394Y268630D01*
X366776Y264109D01*
X375462Y260400D01*
X384505Y257454D01*
X389077Y256286D01*
X398424Y254609D01*
X407873Y253746D01*
G37*
G36*
X25400Y456844D02*
G01*
X34848Y457301D01*
X39573Y457809D01*
X48920Y459485D01*
X58064Y462026D01*
X66903Y465378D01*
X75488Y469493D01*
X83616Y474319D01*
X91287Y479907D01*
X98399Y486156D01*
X104952Y493014D01*
X110896Y500430D01*
X116078Y508304D01*
X120599Y516686D01*
X124307Y525373D01*
X127254Y534416D01*
X128422Y538988D01*
X130098Y548335D01*
X130962Y557784D01*
X130962Y567232D01*
X130098Y576681D01*
X128422Y586028D01*
X125882Y595172D01*
X122529Y604012D01*
X118414Y612597D01*
X113588Y620725D01*
X108000Y628396D01*
X101752Y635508D01*
X94894Y642061D01*
X87477Y648004D01*
X79603Y653186D01*
X71221Y657707D01*
X62534Y661416D01*
X53492Y664362D01*
X48920Y665530D01*
X39573Y667207D01*
X30124Y668070D01*
X20675Y668070D01*
X11226Y667207D01*
X1879Y665530D01*
X-7264Y662990D01*
X-16103Y659638D01*
X-24688Y655523D01*
X-32816Y650697D01*
X-40487Y645109D01*
X-47599Y638860D01*
X-54152Y632002D01*
X-60096Y624586D01*
X-65278Y616712D01*
X-69799Y608330D01*
X-73507Y599643D01*
X-76454Y590600D01*
X-77622Y586028D01*
X-79298Y576681D01*
X-80162Y567232D01*
X-80162Y557784D01*
X-79298Y548335D01*
X-77622Y538988D01*
X-75082Y529844D01*
X-71729Y521004D01*
X-67614Y512419D01*
X-62788Y504291D01*
X-57200Y496620D01*
X-50952Y489508D01*
X-44094Y482955D01*
X-36677Y477012D01*
X-28803Y471830D01*
X-20421Y467309D01*
X-11734Y463600D01*
X-2692Y460654D01*
X1879Y459485D01*
X11226Y457809D01*
X20675Y456946D01*
G37*
G36*
X666597Y507644D02*
G01*
X676046Y508101D01*
X680770Y508609D01*
X690118Y510285D01*
X699262Y512826D01*
X708101Y516178D01*
X716686Y520293D01*
X724814Y525119D01*
X732485Y530707D01*
X739597Y536956D01*
X746150Y543814D01*
X752094Y551230D01*
X757275Y559104D01*
X761796Y567486D01*
X765505Y576173D01*
X768451Y585216D01*
X769620Y589788D01*
X771296Y599135D01*
X772160Y608584D01*
X772160Y618032D01*
X771296Y627481D01*
X769620Y636828D01*
X767080Y645972D01*
X763727Y654812D01*
X759612Y663397D01*
X754786Y671525D01*
X749198Y679196D01*
X742950Y686308D01*
X736092Y692861D01*
X728675Y698804D01*
X720801Y703986D01*
X712419Y708507D01*
X703732Y712216D01*
X694690Y715162D01*
X690118Y716330D01*
X680770Y718007D01*
X671322Y718870D01*
X661873Y718870D01*
X652424Y718007D01*
X643077Y716330D01*
X633933Y713790D01*
X625094Y710438D01*
X616508Y706323D01*
X608380Y701497D01*
X600710Y695909D01*
X593598Y689660D01*
X587044Y682802D01*
X581101Y675386D01*
X575919Y667512D01*
X571398Y659130D01*
X567690Y650443D01*
X564743Y641400D01*
X563575Y636828D01*
X561898Y627481D01*
X561035Y618032D01*
X561035Y608584D01*
X561898Y599135D01*
X563575Y589788D01*
X566115Y580644D01*
X569468Y571804D01*
X573582Y563219D01*
X578408Y555091D01*
X583996Y547420D01*
X590245Y540308D01*
X597103Y533755D01*
X604520Y527812D01*
X612394Y522630D01*
X620776Y518109D01*
X629462Y514400D01*
X638505Y511454D01*
X643077Y510285D01*
X652424Y508609D01*
X661873Y507746D01*
G37*
G36*
X412597Y507644D02*
G01*
X422046Y508101D01*
X426770Y508609D01*
X436118Y510285D01*
X445262Y512826D01*
X454101Y516178D01*
X462686Y520293D01*
X470814Y525119D01*
X478485Y530707D01*
X485597Y536956D01*
X492150Y543814D01*
X498093Y551230D01*
X503275Y559104D01*
X507796Y567486D01*
X511505Y576173D01*
X514451Y585216D01*
X515620Y589788D01*
X517296Y599135D01*
X518159Y608584D01*
X518159Y618032D01*
X517296Y627481D01*
X515620Y636828D01*
X513080Y645972D01*
X509727Y654812D01*
X505612Y663397D01*
X500786Y671525D01*
X495198Y679196D01*
X488950Y686308D01*
X482092Y692861D01*
X474675Y698804D01*
X466801Y703986D01*
X458419Y708507D01*
X449732Y712216D01*
X440690Y715162D01*
X436118Y716330D01*
X426770Y718007D01*
X417322Y718870D01*
X407873Y718870D01*
X398424Y718007D01*
X389077Y716330D01*
X379933Y713790D01*
X371094Y710438D01*
X362508Y706323D01*
X354380Y701497D01*
X346710Y695909D01*
X339598Y689660D01*
X333044Y682802D01*
X327101Y675386D01*
X321919Y667512D01*
X317398Y659130D01*
X313690Y650443D01*
X310743Y641400D01*
X309575Y636828D01*
X307898Y627481D01*
X307035Y618032D01*
X307035Y608584D01*
X307898Y599135D01*
X309575Y589788D01*
X312115Y580644D01*
X315468Y571804D01*
X319582Y563219D01*
X324408Y555091D01*
X329996Y547420D01*
X336245Y540308D01*
X343103Y533755D01*
X350520Y527812D01*
X358394Y522630D01*
X366776Y518109D01*
X375462Y514400D01*
X384505Y511454D01*
X389077Y510285D01*
X398424Y508609D01*
X407873Y507746D01*
G37*
G36*
X-1311249Y902208D02*
G01*
X-1250696Y902208D01*
X-1250797Y939546D01*
X-1251661Y944168D01*
X-1253388Y948588D01*
X-1255877Y952601D01*
X-1259078Y956106D01*
X-1262837Y958951D01*
X-1267104Y961085D01*
X-1269339Y961847D01*
X-1273962Y962710D01*
X-1311249Y962812D01*
G37*
G36*
X-1467104Y902208D02*
G01*
X-1406499Y902208D01*
X-1406499Y962812D01*
X-1443837Y962710D01*
X-1448460Y961847D01*
X-1452880Y960119D01*
X-1456893Y957630D01*
X-1460398Y954430D01*
X-1463243Y950671D01*
X-1465376Y946403D01*
X-1466138Y944168D01*
X-1467002Y939546D01*
G37*
G36*
X666597Y1269644D02*
G01*
X676046Y1270101D01*
X680770Y1270609D01*
X690118Y1272286D01*
X699262Y1274826D01*
X708101Y1278178D01*
X716686Y1282293D01*
X724814Y1287119D01*
X732485Y1292707D01*
X739597Y1298956D01*
X746150Y1305814D01*
X752094Y1313230D01*
X757275Y1321104D01*
X761796Y1329486D01*
X765505Y1338173D01*
X768451Y1347216D01*
X769620Y1351788D01*
X771296Y1361135D01*
X772160Y1370584D01*
X772160Y1380032D01*
X771296Y1389481D01*
X769620Y1398828D01*
X767080Y1407972D01*
X763727Y1416812D01*
X759612Y1425397D01*
X754786Y1433525D01*
X749198Y1441196D01*
X742950Y1448308D01*
X736092Y1454861D01*
X728675Y1460804D01*
X720801Y1465986D01*
X712419Y1470507D01*
X703732Y1474216D01*
X694690Y1477162D01*
X690118Y1478330D01*
X680770Y1480007D01*
X671322Y1480870D01*
X661873Y1480870D01*
X652424Y1480007D01*
X643077Y1478330D01*
X633933Y1475790D01*
X625094Y1472438D01*
X616508Y1468323D01*
X608380Y1463497D01*
X600710Y1457909D01*
X593598Y1451660D01*
X587044Y1444802D01*
X581101Y1437386D01*
X575919Y1429512D01*
X571398Y1421130D01*
X567690Y1412443D01*
X564743Y1403400D01*
X563575Y1398828D01*
X561898Y1389481D01*
X561035Y1380032D01*
X561035Y1370584D01*
X561898Y1361135D01*
X563575Y1351788D01*
X566115Y1342644D01*
X569468Y1333804D01*
X573582Y1325219D01*
X578408Y1317091D01*
X583996Y1309420D01*
X590245Y1302308D01*
X597103Y1295755D01*
X604520Y1289812D01*
X612394Y1284630D01*
X620776Y1280109D01*
X629462Y1276400D01*
X638505Y1273454D01*
X643077Y1272286D01*
X652424Y1270609D01*
X661873Y1269746D01*
G37*
G36*
X-1244600Y1542999D02*
G01*
X-1243736Y1544370D01*
X-1241450Y1546555D01*
X-1240078Y1547368D01*
X-1237030Y1548282D01*
X-1233627Y1548841D01*
X-1226972Y1550619D01*
X-1220622Y1553159D01*
X-1214577Y1556461D01*
X-1209040Y1560474D01*
X-1205230Y1563674D01*
X-1202537Y1564995D01*
X-1201064Y1565351D01*
X172364Y1565351D01*
X175209Y1564436D01*
X177749Y1562760D01*
X183032Y1558391D01*
X188874Y1554734D01*
X195072Y1551787D01*
X201574Y1549654D01*
X209854Y1547926D01*
X211378Y1547368D01*
X213969Y1545539D01*
X215036Y1544370D01*
X215900Y1542999D01*
X216763Y1544370D01*
X219049Y1546555D01*
X220421Y1547368D01*
X223469Y1548282D01*
X230327Y1549654D01*
X236982Y1551889D01*
X243281Y1554937D01*
X246329Y1556715D01*
X251917Y1560880D01*
X256997Y1565706D01*
X261467Y1571091D01*
X265176Y1577035D01*
X268122Y1583385D01*
X269341Y1586687D01*
X271068Y1593443D01*
X271932Y1600403D01*
X271932Y1607312D01*
X271119Y1614017D01*
X269494Y1620621D01*
X267106Y1626971D01*
X263956Y1632966D01*
X260096Y1638503D01*
X255574Y1643583D01*
X250494Y1648104D01*
X244957Y1651965D01*
X238963Y1655114D01*
X232613Y1657502D01*
X226009Y1659128D01*
X219303Y1659940D01*
X212394Y1659940D01*
X205486Y1659077D01*
X198678Y1657350D01*
X192176Y1654810D01*
X186029Y1651457D01*
X180390Y1647393D01*
X176530Y1644142D01*
X173837Y1642821D01*
X172364Y1642465D01*
X-1201064Y1642465D01*
X-1203909Y1643380D01*
X-1206449Y1645056D01*
X-1209090Y1647393D01*
X-1214729Y1651457D01*
X-1220876Y1654810D01*
X-1227378Y1657350D01*
X-1234186Y1659077D01*
X-1241094Y1659940D01*
X-1248003Y1659940D01*
X-1254709Y1659128D01*
X-1261313Y1657502D01*
X-1267663Y1655114D01*
X-1273657Y1651965D01*
X-1279194Y1648104D01*
X-1284274Y1643583D01*
X-1288796Y1638503D01*
X-1292656Y1632966D01*
X-1295806Y1626971D01*
X-1298194Y1620621D01*
X-1299819Y1614017D01*
X-1300632Y1607312D01*
X-1300632Y1600403D01*
X-1299768Y1593443D01*
X-1298041Y1586687D01*
X-1295450Y1580184D01*
X-1292098Y1574038D01*
X-1290167Y1571091D01*
X-1285697Y1565706D01*
X-1280617Y1560880D01*
X-1275029Y1556715D01*
X-1268882Y1553311D01*
X-1262430Y1550670D01*
X-1255623Y1548892D01*
X-1250645Y1547926D01*
X-1249121Y1547368D01*
X-1246530Y1545539D01*
X-1245463Y1544370D01*
G37*

%LPD*%
D12*
X-2235200Y800100D02*
G01*
X-2235200Y3026305D01*
X-2476502Y3267608D01*
X-2222502Y-1016000D02*
G01*
X-2235200Y-1003302D01*
X-2235200Y800100D01*
D11*
X666597Y2137308D02*
G01*
X539597Y2010308D01*
X355600Y2010308D01*
X215900Y1870608D01*
X412597Y1375308D02*
G01*
X403605Y1384300D01*
X-1231900Y1384300D01*
X241300Y2378608D02*
G01*
X88897Y2378608D01*
X412597Y2391308D02*
G01*
X298297Y2505608D01*
X89001Y2505608D01*
X-266700Y2755900D02*
G01*
X486310Y2755900D01*
X533397Y2708813D01*
X533397Y2524503D01*
X666597Y2391308D01*
X-1244602Y1603908D02*
G01*
X215900Y1603908D01*
X-2057400Y3140608D02*
G01*
X-2057402Y3140610D01*
X-2057402Y3521608D01*
X-1676400Y1489608D02*
G01*
X469902Y1489608D01*
X546097Y1565803D01*
X546097Y1762813D01*
X666597Y1883308D01*
D12*
X-1574802Y-1701800D02*
G01*
X-1282700Y-1701800D01*
X-1282700Y-1701800D01*
D11*
X-1206500Y279400D02*
G01*
X-1701802Y279400D01*
X-1866902Y444500D01*
D12*
X-1790700Y-1130300D02*
G01*
X-1600202Y-1130300D01*
X-1384302Y-914400D01*
D11*
X76301Y2251608D02*
G01*
X702157Y2251608D01*
X787501Y2336698D01*
X787501Y2778404D01*
X666597Y2899308D01*
X88897Y2378608D02*
G01*
X-631291Y2378608D01*
X-977900Y2032000D01*
X76200Y2251608D02*
G01*
X-618591Y2251608D01*
X-838200Y2032000D01*
D12*
X-926998Y482498D02*
G01*
X-1155598Y711098D01*
X-1561998Y711098D01*
D11*
X-1371600Y-152400D02*
G01*
X-1371600Y-507997D01*
X-1371602Y-508000D01*
X-1003300Y-977900D02*
G01*
X-1371602Y-609597D01*
X-1371602Y-508000D01*
D12*
X-1231902Y-609600D02*
G01*
X-508000Y-609600D01*
X-508000Y-609600D01*
X-508002Y-2095500D02*
G01*
X-508002Y-1371602D01*
X-508000Y-1371600D01*
X-508002Y-1371600D02*
G01*
X-508000Y-1371597D01*
X-508000Y-609600D01*
D11*
X177896Y3064408D02*
G01*
X123388Y3009900D01*
X-1832411Y3009900D01*
X-2035611Y2806700D01*
X-2120900Y2806700D01*
X-266702Y2755900D02*
G01*
X-558802Y2755900D01*
X-762002Y2959100D01*
X-1768292Y2959100D01*
X-2009592Y2717800D01*
X-2120900Y2717800D01*
X-1206500Y203200D02*
G01*
X-1092202Y203200D01*
X-800102Y495300D01*
X-800102Y571500D01*
X-977902Y749300D01*
X-977902Y1016000D01*
X-838202Y1155700D01*
X-1181100Y127000D02*
G01*
X-1066810Y127000D01*
X-723902Y469905D01*
X-723902Y927100D01*
X-482602Y1168400D01*
X-1244600Y63500D02*
G01*
X-1003302Y63500D01*
X-660402Y406400D01*
X-660402Y571500D01*
X-469902Y762000D01*
X-469902Y927094D01*
X-406402Y990600D01*
X736584Y990600D01*
X876297Y1130305D01*
X876297Y2463800D01*
X-1231900Y1295400D02*
G01*
X228597Y1295400D01*
X292097Y1231900D01*
X556005Y1231900D01*
X666597Y1121308D01*
X-762002Y-2095500D02*
G01*
X-762002Y-1219197D01*
X-1003300Y-977900D01*
D12*
X-2755902Y-2082800D02*
G01*
X-2755902Y-1955800D01*
X-2679702Y-1879600D01*
X-1892300Y-1879600D01*
X-2070100Y-1714500D02*
G01*
X-2070100Y-1877400D01*
X-2072299Y-1879600D01*
D29*
G01*
X-2705100Y-1155700D03*
D30*
G01*
X-2705100Y-901700D03*
G01*
X-2705100Y-647700D03*
G01*
X-2705100Y-393700D03*
G01*
X-2705100Y-139700D03*
G01*
X-2705100Y114300D03*
G01*
X-2705100Y368300D03*
D29*
G01*
X254000Y-2095500D03*
D30*
G01*
X0Y-2095500D03*
G01*
X-254000Y-2095500D03*
G01*
X-508000Y-2095500D03*
G01*
X-762000Y-2095500D03*
D29*
G01*
X-1358900Y854608D03*
D30*
G01*
X-1104900Y854608D03*
G01*
X-850900Y854608D03*
G01*
X-596900Y854608D03*
G01*
X-342900Y854608D03*
G36*
X-2787650Y3286658D02*
G01*
X-2622550Y3286658D01*
X-2622550Y3121558D01*
X-2787650Y3121558D01*
G37*
G01*
X-2705100Y2950108D03*
G01*
X-2705100Y2696108D03*
G01*
X-2705100Y2442108D03*
G01*
X-2705100Y2188108D03*
G01*
X-2705100Y1934108D03*
G01*
X-2705100Y1680108D03*
G01*
X-2705100Y1426108D03*
G01*
X-2705100Y1172108D03*
G01*
X-2705100Y918108D03*
D29*
G01*
X-2755900Y-2082800D03*
D30*
G01*
X-2501900Y-2082800D03*
G01*
X-2247900Y-2082800D03*
D31*
G01*
X666597Y-1418691D03*
D32*
G01*
X412597Y-1418691D03*
G01*
X666597Y-1164691D03*
G01*
X412597Y-1164691D03*
G01*
X666597Y-910691D03*
G01*
X412597Y-910691D03*
G01*
X666597Y-656691D03*
G01*
X412597Y-656691D03*
G01*
X666597Y-402691D03*
G01*
X412597Y-402691D03*
G01*
X666597Y-148691D03*
G01*
X412597Y-148691D03*
G01*
X666597Y105308D03*
G01*
X412597Y105308D03*
G01*
X666597Y359308D03*
G01*
X412597Y359308D03*
G01*
X666597Y613308D03*
G01*
X412597Y613308D03*
G01*
X666597Y867308D03*
G01*
X412597Y867308D03*
G01*
X666597Y1121308D03*
G01*
X412597Y1121308D03*
G01*
X666597Y1375308D03*
G01*
X412597Y1375308D03*
G01*
X666597Y1629308D03*
G01*
X412597Y1629308D03*
G01*
X666597Y1883308D03*
G01*
X412597Y1883308D03*
G01*
X666597Y2137308D03*
G01*
X412597Y2137308D03*
G01*
X666597Y2391308D03*
G01*
X412597Y2391308D03*
G01*
X666597Y2645308D03*
G01*
X412597Y2645308D03*
G01*
X666597Y2899308D03*
G01*
X412597Y2899308D03*
G01*
X666597Y3153308D03*
G01*
X412597Y3153308D03*
G01*
X666597Y3407308D03*
G01*
X412597Y3407308D03*
G01*
X25400Y72491D03*
G01*
X25400Y562508D03*
D15*
G01*
X-774700Y-1041400D03*
G01*
X-952500Y-1219200D03*
G01*
X-2235200Y800100D03*
G01*
X-406400Y1066800D03*
G01*
X-2095500Y114300D03*
G01*
X-1866900Y114300D03*
G01*
X-101600Y850900D03*
G01*
X-177800Y774700D03*
G01*
X-558800Y2933700D03*
G01*
X-812800Y1054100D03*
G01*
X-1358900Y1841500D03*
G01*
X-1638300Y2679700D03*
G01*
X-1638300Y3073400D03*
G01*
X-609600Y-50800D03*
G01*
X-495300Y-165100D03*
G01*
X-304800Y-292100D03*
G01*
X-787400Y-533400D03*
G01*
X-355600Y-800100D03*
G01*
X-355600Y-1320800D03*
G01*
X-596900Y-1257300D03*
G01*
X-355600Y-1892300D03*
G01*
X-660400Y-1625600D03*
G01*
X-939800Y-1498600D03*
G01*
X-2070100Y-901700D03*
G01*
X-1714500Y-419100D03*
G01*
X-2095500Y-127000D03*
G01*
X-1612900Y825500D03*
G01*
X-2120900Y571500D03*
G01*
X-1651000Y406400D03*
G01*
X266700Y584200D03*
G01*
X266700Y317500D03*
G01*
X266700Y228600D03*
G01*
X266700Y139700D03*
G01*
X266700Y50800D03*
G01*
X266700Y-38100D03*
G01*
X266700Y406400D03*
G01*
X266700Y495300D03*
G01*
X266700Y673100D03*
G01*
X228600Y762000D03*
G01*
X177800Y825500D03*
G01*
X101600Y863600D03*
G01*
X-12700Y876300D03*
G01*
X-215900Y685800D03*
G01*
X-215900Y571500D03*
G01*
X-215900Y317500D03*
G01*
X-215900Y12700D03*
G01*
X241300Y-127000D03*
G01*
X177800Y-190500D03*
G01*
X101600Y-228600D03*
G01*
X12700Y-241300D03*
G01*
X-76200Y-215900D03*
G01*
X-152400Y-165100D03*
G01*
X-203200Y-88900D03*
G01*
X-1435100Y50800D03*
G01*
X-1079500Y-190500D03*
G01*
X-1511300Y-50800D03*
G01*
X-1231900Y-317500D03*
D16*
G01*
X-1003300Y-977900D03*
G01*
X-838200Y2032000D03*
G01*
X-838200Y1155700D03*
G01*
X-1206500Y203200D03*
G01*
X-977900Y2032000D03*
G01*
X876300Y2463800D03*
G01*
X-1244600Y63500D03*
G01*
X76200Y2251608D03*
G01*
X-1181100Y127000D03*
G01*
X-1892300Y-1879600D03*
G01*
X-965200Y-2108200D03*
G01*
X863600Y-1689100D03*
G01*
X-1854200Y-673100D03*
G01*
X-1841500Y-901700D03*
G01*
X-660400Y-800100D03*
G01*
X-1866900Y444500D03*
G01*
X-1206500Y279400D03*
G01*
X-1384300Y-914400D03*
G01*
X-1790700Y-1130300D03*
D15*
G01*
X-1282700Y-1701800D03*
D16*
G01*
X-1574800Y-1701800D03*
G01*
X-508000Y-609600D03*
G01*
X-1231900Y-609600D03*
G01*
X-1371600Y-152400D03*
G01*
X-508000Y-1371600D03*
G01*
X-1562100Y711200D03*
G01*
X-927100Y482600D03*
G01*
X-1638300Y2489200D03*
G01*
X-1638300Y2870200D03*
G01*
X-1358900Y2162708D03*
G01*
X-1320800Y1172108D03*
G01*
X-1663700Y1172108D03*
G01*
X-1358900Y2569108D03*
G01*
X-1257300Y2569108D03*
G01*
X-1155700Y2569108D03*
G01*
X-1054100Y2569108D03*
G01*
X-952500Y2569108D03*
G01*
X-850900Y2569108D03*
G01*
X-850900Y2467508D03*
G01*
X-952500Y2467508D03*
G01*
X-1054100Y2467508D03*
G01*
X-1155700Y2467508D03*
G01*
X-1257300Y2467508D03*
G01*
X-1358900Y2467508D03*
G01*
X-850900Y2365908D03*
G01*
X-952500Y2365908D03*
G01*
X-1054100Y2365908D03*
G01*
X-1155700Y2365908D03*
G01*
X-1358900Y2365908D03*
G01*
X-1257300Y2365908D03*
G01*
X-850900Y2670708D03*
G01*
X-952500Y2670708D03*
G01*
X-1054100Y2670708D03*
G01*
X-1155700Y2670708D03*
G01*
X-1358900Y2670708D03*
G01*
X-1257300Y2670708D03*
G01*
X-850900Y2772308D03*
G01*
X-952500Y2772308D03*
G01*
X-1054100Y2772308D03*
G01*
X-1155700Y2772308D03*
G01*
X-1358900Y2772308D03*
G01*
X-1257300Y2772308D03*
G01*
X-850900Y2873908D03*
G01*
X-952500Y2873908D03*
G01*
X-1054100Y2873908D03*
G01*
X-1155700Y2873908D03*
G01*
X-1257300Y2873908D03*
G01*
X-1358900Y2873908D03*
G01*
X-800100Y3432708D03*
G01*
X-1168400Y3432708D03*
G01*
X-1168400Y3242208D03*
G01*
X-800100Y3242208D03*
G01*
X-1638300Y3242208D03*
G01*
X-482600Y1168400D03*
G01*
X-2057400Y3521608D03*
G01*
X-2057400Y3140608D03*
G01*
X-2222500Y-1016000D03*
G01*
X215900Y1603908D03*
G01*
X-1244600Y1603908D03*
G01*
X177800Y3064408D03*
G01*
X215900Y1870608D03*
G01*
X-1663700Y1362608D03*
G01*
X-1104900Y1866900D03*
G01*
X-1638300Y3432708D03*
G01*
X-266700Y2755900D03*
G01*
X88900Y2505608D03*
G01*
X241300Y2378608D03*
G01*
X88900Y2378608D03*
G01*
X-1676400Y1489608D03*
G01*
X-1231900Y1384300D03*
G01*
X-1231900Y1295400D03*
G01*
X-2476500Y3267608D03*
G01*
X-2120900Y2717800D03*
G01*
X-2120900Y2806700D03*
G01*
X-1854200Y-1612900D03*
G01*
X-939800Y-1866900D03*
G01*
X215900Y-1079500D03*
G01*
X215900Y-1168400D03*
G01*
X215900Y-1257300D03*
G01*
X215900Y-1346200D03*
G01*
X-215900Y-1079500D03*
G01*
X-215900Y-1168400D03*
G01*
X-215900Y-1257300D03*
G01*
X-215900Y-1346200D03*
G01*
X-2095500Y-381000D03*
G01*
X-2222500Y-12700D03*
D15*
G01*
X-2070100Y-1714500D03*
G01*
X-1917700Y977900D03*
G01*
X-2019300Y812800D03*
M02*
