G04 Layer: TopSolderMaskLayer*
G04 EasyEDA v6.4.20.6, 2021-08-18T22:46:37+02:00*
G04 e60a8e21afaf4db98b740634109285cb,0ed378226b2144edad32923a29bf2ba1,10*
G04 Gerber Generator version 0.2*
G04 Scale: 100 percent, Rotated: No, Reflected: No *
G04 Dimensions in millimeters *
G04 leading zeros omitted , absolute positions ,4 integer and 5 decimal *
%FSLAX45Y45*%
%MOMM*%

%ADD40C,0.4832*%
%ADD41R,1.3032X1.2032*%
%ADD44C,1.8542*%
%ADD55R,1.8032X1.8032*%
%ADD56C,1.8032*%

%LPD*%
D40*
X-697313Y94861D02*
G01*
X-804791Y-12616D01*
X-732696Y130218D02*
G01*
X-840173Y22740D01*
X-768027Y165574D02*
G01*
X-875504Y58097D01*
X-803409Y200931D02*
G01*
X-910887Y93454D01*
X-838741Y236288D02*
G01*
X-946218Y128811D01*
X-874097Y271645D02*
G01*
X-981575Y164167D01*
X-909454Y307002D02*
G01*
X-1016932Y199524D01*
X-944811Y342358D02*
G01*
X-1052288Y234881D01*
X-980168Y377690D02*
G01*
X-1087645Y270212D01*
X-1015525Y413072D02*
G01*
X-1123002Y305595D01*
X-1050881Y448403D02*
G01*
X-1158359Y340926D01*
X-1086238Y483786D02*
G01*
X-1193716Y376308D01*
X-1270083Y376308D02*
G01*
X-1377561Y483786D01*
X-1305440Y340926D02*
G01*
X-1412918Y448403D01*
X-1340797Y305595D02*
G01*
X-1448274Y413072D01*
X-1376154Y270212D02*
G01*
X-1483631Y377690D01*
X-1411511Y234881D02*
G01*
X-1518988Y342358D01*
X-1446867Y199524D02*
G01*
X-1554345Y307002D01*
X-1482224Y164167D02*
G01*
X-1589702Y271645D01*
X-1517581Y128811D02*
G01*
X-1625058Y236288D01*
X-1552938Y93454D02*
G01*
X-1660415Y200931D01*
X-1588295Y58097D02*
G01*
X-1695772Y165574D01*
X-1623626Y22740D02*
G01*
X-1731103Y130218D01*
X-1659008Y-12616D02*
G01*
X-1766486Y94861D01*
X-1659008Y-88983D02*
G01*
X-1766486Y-196461D01*
X-1623626Y-124340D02*
G01*
X-1731103Y-231818D01*
X-1588295Y-159697D02*
G01*
X-1695772Y-267174D01*
X-1552938Y-195054D02*
G01*
X-1660415Y-302531D01*
X-1517581Y-230411D02*
G01*
X-1625058Y-337888D01*
X-1482224Y-265767D02*
G01*
X-1589702Y-373245D01*
X-1446867Y-301124D02*
G01*
X-1554345Y-408602D01*
X-1411511Y-336481D02*
G01*
X-1518988Y-443958D01*
X-1376154Y-371838D02*
G01*
X-1483631Y-479315D01*
X-1340797Y-407195D02*
G01*
X-1448274Y-514672D01*
X-1305440Y-442526D02*
G01*
X-1412918Y-550003D01*
X-1270083Y-477908D02*
G01*
X-1377561Y-585386D01*
X-1086238Y-585386D02*
G01*
X-1193716Y-477908D01*
X-1050881Y-550003D02*
G01*
X-1158359Y-442526D01*
X-1015525Y-514672D02*
G01*
X-1123002Y-407195D01*
X-980168Y-479315D02*
G01*
X-1087645Y-371838D01*
X-944811Y-443958D02*
G01*
X-1052288Y-336481D01*
X-909454Y-408602D02*
G01*
X-1016932Y-301124D01*
X-874097Y-373245D02*
G01*
X-981575Y-265767D01*
X-838741Y-337888D02*
G01*
X-946218Y-230411D01*
X-803409Y-302531D02*
G01*
X-910887Y-195054D01*
X-768027Y-267174D02*
G01*
X-875504Y-159697D01*
X-732696Y-231818D02*
G01*
X-840173Y-124340D01*
X-697313Y-196461D02*
G01*
X-804791Y-88983D01*
G36*
X-1944776Y-1539849D02*
G01*
X-1944776Y-1419453D01*
X-1814474Y-1419453D01*
X-1814474Y-1539849D01*
G37*
G36*
X-1944776Y-1399895D02*
G01*
X-1944776Y-1279499D01*
X-1814474Y-1279499D01*
X-1814474Y-1399895D01*
G37*
G36*
X403199Y-1754225D02*
G01*
X403199Y-1623923D01*
X523595Y-1623923D01*
X523595Y-1754225D01*
G37*
G36*
X543153Y-1754225D02*
G01*
X543153Y-1623923D01*
X663549Y-1623923D01*
X663549Y-1754225D01*
G37*
G36*
X-2135276Y-1399895D02*
G01*
X-2135276Y-1279499D01*
X-2004974Y-1279499D01*
X-2004974Y-1399895D01*
G37*
G36*
X-2135276Y-1539849D02*
G01*
X-2135276Y-1419453D01*
X-2004974Y-1419453D01*
X-2004974Y-1539849D01*
G37*
G36*
X-706272Y-480923D02*
G01*
X-798474Y-388975D01*
X-713384Y-303885D01*
X-621182Y-395833D01*
G37*
G36*
X-607466Y-382117D02*
G01*
X-699414Y-289915D01*
X-614324Y-204825D01*
X-522376Y-297027D01*
G37*
G36*
X-1925472Y-239623D02*
G01*
X-2017674Y-147675D01*
X-1932584Y-62585D01*
X-1840382Y-154533D01*
G37*
G36*
X-1826666Y-140817D02*
G01*
X-1918614Y-48615D01*
X-1833524Y36474D01*
X-1741576Y-55727D01*
G37*
G36*
X-1058824Y-887323D02*
G01*
X-1143914Y-802233D01*
X-1051966Y-710285D01*
X-966876Y-795375D01*
G37*
G36*
X-1157884Y-788517D02*
G01*
X-1242974Y-703427D01*
X-1150772Y-611225D01*
X-1065682Y-696315D01*
G37*
G36*
X-1722272Y446176D02*
G01*
X-1814474Y538124D01*
X-1729384Y623214D01*
X-1637182Y531266D01*
G37*
G36*
X-1623466Y544982D02*
G01*
X-1715414Y637184D01*
X-1630324Y722274D01*
X-1538376Y630072D01*
G37*
G36*
X-585876Y426364D02*
G01*
X-585876Y546506D01*
X-455574Y546506D01*
X-455574Y426364D01*
G37*
G36*
X-585876Y266344D02*
G01*
X-585876Y386486D01*
X-455574Y386486D01*
X-455574Y266344D01*
G37*
G36*
X-1246276Y-1625955D02*
G01*
X-1246276Y-1505813D01*
X-1115974Y-1505813D01*
X-1115974Y-1625955D01*
G37*
G36*
X-1246276Y-1466189D02*
G01*
X-1246276Y-1345793D01*
X-1115974Y-1345793D01*
X-1115974Y-1466189D01*
G37*
G36*
X-213766Y-547725D02*
G01*
X-213766Y-417423D01*
X-93370Y-417423D01*
X-93370Y-547725D01*
G37*
G36*
X-33680Y-547725D02*
G01*
X-33680Y-417423D01*
X86715Y-417423D01*
X86715Y-547725D01*
G37*
G36*
X-33680Y-750925D02*
G01*
X-33680Y-620623D01*
X86715Y-620623D01*
X86715Y-750925D01*
G37*
G36*
X-213766Y-750925D02*
G01*
X-213766Y-620623D01*
X-93370Y-620623D01*
X-93370Y-750925D01*
G37*
D41*
G01*
X-317500Y24307D03*
G36*
X-382676Y144170D02*
G01*
X-382676Y264566D01*
X-252374Y264566D01*
X-252374Y144170D01*
G37*
G36*
X-382676Y563270D02*
G01*
X-382676Y683666D01*
X-252374Y683666D01*
X-252374Y563270D01*
G37*
G36*
X-382676Y383184D02*
G01*
X-382676Y503580D01*
X-252374Y503580D01*
X-252374Y383184D01*
G37*
G36*
X-1652676Y-1625955D02*
G01*
X-1652676Y-1505813D01*
X-1522374Y-1505813D01*
X-1522374Y-1625955D01*
G37*
G36*
X-1652676Y-1466189D02*
G01*
X-1652676Y-1345793D01*
X-1522374Y-1345793D01*
X-1522374Y-1466189D01*
G37*
G36*
X-1449476Y-1625955D02*
G01*
X-1449476Y-1505813D01*
X-1319174Y-1505813D01*
X-1319174Y-1625955D01*
G37*
G36*
X-1449476Y-1466189D02*
G01*
X-1449476Y-1345793D01*
X-1319174Y-1345793D01*
X-1319174Y-1466189D01*
G37*
G36*
X-2797708Y-1248511D02*
G01*
X-2797708Y-1063091D01*
X-2612288Y-1063091D01*
X-2612288Y-1248511D01*
G37*
D44*
G01*
X-2705100Y-901700D03*
G01*
X-2705100Y-647700D03*
G01*
X-2705100Y-393700D03*
G01*
X-2705100Y-139700D03*
G01*
X-2705100Y114300D03*
G01*
X-2705100Y368300D03*
G36*
X-265074Y-1002893D02*
G01*
X-265074Y-852525D01*
X-54762Y-852525D01*
X-54762Y-1002893D01*
G37*
G36*
X-265074Y-1553057D02*
G01*
X-265074Y-1402689D01*
X-54762Y-1402689D01*
X-54762Y-1553057D01*
G37*
G36*
X54711Y-1553057D02*
G01*
X54711Y-1402689D01*
X265277Y-1402689D01*
X265277Y-1553057D01*
G37*
G36*
X54711Y-1002893D02*
G01*
X54711Y-852525D01*
X265277Y-852525D01*
X265277Y-1002893D01*
G37*
G36*
X161391Y-2188311D02*
G01*
X161391Y-2002891D01*
X346811Y-2002891D01*
X346811Y-2188311D01*
G37*
G01*
X0Y-2095500D03*
G01*
X-254000Y-2095500D03*
G01*
X-508000Y-2095500D03*
G01*
X-762000Y-2095500D03*
G36*
X-2568600Y-1779625D02*
G01*
X-2568600Y-1649323D01*
X-2448204Y-1649323D01*
X-2448204Y-1779625D01*
G37*
G36*
X-2428646Y-1779625D02*
G01*
X-2428646Y-1649323D01*
X-2308250Y-1649323D01*
X-2308250Y-1779625D01*
G37*
G36*
X-2230018Y3555644D02*
G01*
X-2230018Y3695852D01*
X-1889658Y3695852D01*
X-1889658Y3555644D01*
G37*
G36*
X-2910738Y3555644D02*
G01*
X-2910738Y3695852D01*
X-2570378Y3695852D01*
X-2570378Y3555644D01*
G37*
G36*
X-2910738Y3956964D02*
G01*
X-2910738Y4097172D01*
X-2570378Y4097172D01*
X-2570378Y3956964D01*
G37*
G36*
X-2230018Y3956964D02*
G01*
X-2230018Y4097172D01*
X-1889658Y4097172D01*
X-1889658Y3956964D01*
G37*
G36*
X-1451508Y761898D02*
G01*
X-1451508Y947318D01*
X-1266088Y947318D01*
X-1266088Y761898D01*
G37*
G01*
X-1104900Y854608D03*
G01*
X-850900Y854608D03*
G01*
X-596900Y854608D03*
G01*
X-342900Y854608D03*
G36*
X-2797708Y3111398D02*
G01*
X-2797708Y3296818D01*
X-2612288Y3296818D01*
X-2612288Y3111398D01*
G37*
G01*
X-2705100Y2950108D03*
G01*
X-2705100Y2696108D03*
G01*
X-2705100Y2442108D03*
G01*
X-2705100Y2188108D03*
G01*
X-2705100Y1934108D03*
G01*
X-2705100Y1680108D03*
G01*
X-2705100Y1426108D03*
G01*
X-2705100Y1172108D03*
G01*
X-2705100Y918108D03*
G36*
X-2848508Y-2175611D02*
G01*
X-2848508Y-1990191D01*
X-2663088Y-1990191D01*
X-2663088Y-2175611D01*
G37*
G01*
X-2501900Y-2082800D03*
G01*
X-2247900Y-2082800D03*
G36*
X-1610512Y-1902053D02*
G01*
X-1610512Y-1743557D01*
X-1545234Y-1743557D01*
X-1545234Y-1902053D01*
G37*
G36*
X-1545488Y-1902053D02*
G01*
X-1545488Y-1743557D01*
X-1480210Y-1743557D01*
X-1480210Y-1902053D01*
G37*
G36*
X-1480464Y-1902053D02*
G01*
X-1480464Y-1743811D01*
X-1415186Y-1743811D01*
X-1415186Y-1902053D01*
G37*
G36*
X-1415440Y-1902053D02*
G01*
X-1415440Y-1743557D01*
X-1350162Y-1743557D01*
X-1350162Y-1902053D01*
G37*
G36*
X-1350416Y-1902053D02*
G01*
X-1350416Y-1743557D01*
X-1285138Y-1743557D01*
X-1285138Y-1902053D01*
G37*
G36*
X-1777898Y-1973935D02*
G01*
X-1777898Y-1743557D01*
X-1610258Y-1743557D01*
X-1610258Y-1973935D01*
G37*
G36*
X-1285392Y-1973935D02*
G01*
X-1285392Y-1743557D01*
X-1117752Y-1743557D01*
X-1117752Y-1973935D01*
G37*
G36*
X-1867814Y-2193899D02*
G01*
X-1867814Y-1983587D01*
X-1610004Y-1983587D01*
X-1610004Y-2193899D01*
G37*
G36*
X-1285646Y-2193899D02*
G01*
X-1285646Y-1983587D01*
X-1027836Y-1983587D01*
X-1027836Y-2193899D01*
G37*
G36*
X-1600606Y-2193899D02*
G01*
X-1600606Y-1983587D01*
X-1462938Y-1983587D01*
X-1462938Y-2193899D01*
G37*
G36*
X-1432712Y-2193899D02*
G01*
X-1432712Y-1983587D01*
X-1294790Y-1983587D01*
X-1294790Y-2193899D01*
G37*
G36*
X-2705506Y3380130D02*
G01*
X-2705506Y3510686D01*
X-2585364Y3510686D01*
X-2585364Y3380130D01*
G37*
G36*
X-2545486Y3380130D02*
G01*
X-2545486Y3510686D01*
X-2425344Y3510686D01*
X-2425344Y3380130D01*
G37*
G36*
X-1291996Y-908405D02*
G01*
X-1377086Y-823315D01*
X-1284884Y-731113D01*
X-1199794Y-816203D01*
G37*
G36*
X-1178966Y-1021435D02*
G01*
X-1264056Y-936345D01*
X-1171854Y-844143D01*
X-1086764Y-929233D01*
G37*
G36*
X-1975256Y3339490D02*
G01*
X-1975256Y3449726D01*
X-1755038Y3449726D01*
X-1755038Y3339490D01*
G37*
G36*
X-1975256Y3212490D02*
G01*
X-1975256Y3322726D01*
X-1755038Y3322726D01*
X-1755038Y3212490D01*
G37*
G36*
X-1975256Y3085490D02*
G01*
X-1975256Y3195726D01*
X-1755038Y3195726D01*
X-1755038Y3085490D01*
G37*
G36*
X-1975256Y2958490D02*
G01*
X-1975256Y3068726D01*
X-1755038Y3068726D01*
X-1755038Y2958490D01*
G37*
G36*
X-1975256Y2831490D02*
G01*
X-1975256Y2941726D01*
X-1755038Y2941726D01*
X-1755038Y2831490D01*
G37*
G36*
X-1975256Y2704490D02*
G01*
X-1975256Y2814726D01*
X-1755038Y2814726D01*
X-1755038Y2704490D01*
G37*
G36*
X-1975256Y2577490D02*
G01*
X-1975256Y2687726D01*
X-1755038Y2687726D01*
X-1755038Y2577490D01*
G37*
G36*
X-1975256Y2450490D02*
G01*
X-1975256Y2560726D01*
X-1755038Y2560726D01*
X-1755038Y2450490D01*
G37*
G36*
X-1975256Y2323490D02*
G01*
X-1975256Y2433726D01*
X-1755038Y2433726D01*
X-1755038Y2323490D01*
G37*
G36*
X-1975256Y2196490D02*
G01*
X-1975256Y2306726D01*
X-1755038Y2306726D01*
X-1755038Y2196490D01*
G37*
G36*
X-1975256Y2069490D02*
G01*
X-1975256Y2179726D01*
X-1755038Y2179726D01*
X-1755038Y2069490D01*
G37*
G36*
X-1975256Y1942490D02*
G01*
X-1975256Y2052726D01*
X-1755038Y2052726D01*
X-1755038Y1942490D01*
G37*
G36*
X-1975256Y1815490D02*
G01*
X-1975256Y1925726D01*
X-1755038Y1925726D01*
X-1755038Y1815490D01*
G37*
G36*
X-1975256Y1688490D02*
G01*
X-1975256Y1798726D01*
X-1755038Y1798726D01*
X-1755038Y1688490D01*
G37*
G36*
X-1975256Y1561490D02*
G01*
X-1975256Y1671726D01*
X-1755038Y1671726D01*
X-1755038Y1561490D01*
G37*
G36*
X-1975256Y1434490D02*
G01*
X-1975256Y1544726D01*
X-1755038Y1544726D01*
X-1755038Y1434490D01*
G37*
G36*
X-1975256Y1307490D02*
G01*
X-1975256Y1417726D01*
X-1755038Y1417726D01*
X-1755038Y1307490D01*
G37*
G36*
X-1975256Y1180490D02*
G01*
X-1975256Y1290726D01*
X-1755038Y1290726D01*
X-1755038Y1180490D01*
G37*
G36*
X-1975256Y1053490D02*
G01*
X-1975256Y1163726D01*
X-1755038Y1163726D01*
X-1755038Y1053490D01*
G37*
G36*
X-175412Y1053490D02*
G01*
X-175412Y1163726D01*
X45059Y1163726D01*
X45059Y1053490D01*
G37*
G36*
X-175412Y1180490D02*
G01*
X-175412Y1290726D01*
X45059Y1290726D01*
X45059Y1180490D01*
G37*
G36*
X-175412Y1307490D02*
G01*
X-175412Y1417726D01*
X45059Y1417726D01*
X45059Y1307490D01*
G37*
G36*
X-175412Y1434490D02*
G01*
X-175412Y1544726D01*
X45059Y1544726D01*
X45059Y1434490D01*
G37*
G36*
X-175412Y1561490D02*
G01*
X-175412Y1671726D01*
X45059Y1671726D01*
X45059Y1561490D01*
G37*
G36*
X-175412Y1688490D02*
G01*
X-175412Y1798726D01*
X45059Y1798726D01*
X45059Y1688490D01*
G37*
G36*
X-175412Y1815490D02*
G01*
X-175412Y1925726D01*
X45059Y1925726D01*
X45059Y1815490D01*
G37*
G36*
X-175412Y1942490D02*
G01*
X-175412Y2052726D01*
X45059Y2052726D01*
X45059Y1942490D01*
G37*
G36*
X-175412Y2069490D02*
G01*
X-175412Y2179726D01*
X45059Y2179726D01*
X45059Y2069490D01*
G37*
G36*
X-175412Y2196490D02*
G01*
X-175412Y2306726D01*
X45059Y2306726D01*
X45059Y2196490D01*
G37*
G36*
X-175412Y2323490D02*
G01*
X-175412Y2433726D01*
X45059Y2433726D01*
X45059Y2323490D01*
G37*
G36*
X-175412Y2450490D02*
G01*
X-175412Y2560726D01*
X45059Y2560726D01*
X45059Y2450490D01*
G37*
G36*
X-175412Y2577490D02*
G01*
X-175412Y2687726D01*
X45059Y2687726D01*
X45059Y2577490D01*
G37*
G36*
X-175412Y2704490D02*
G01*
X-175412Y2814726D01*
X45059Y2814726D01*
X45059Y2704490D01*
G37*
G36*
X-175412Y2831490D02*
G01*
X-175412Y2941726D01*
X45059Y2941726D01*
X45059Y2831490D01*
G37*
G36*
X-175412Y2958490D02*
G01*
X-175412Y3068726D01*
X45059Y3068726D01*
X45059Y2958490D01*
G37*
G36*
X-175412Y3085490D02*
G01*
X-175412Y3195726D01*
X45059Y3195726D01*
X45059Y3085490D01*
G37*
G36*
X-175412Y3212490D02*
G01*
X-175412Y3322726D01*
X45059Y3322726D01*
X45059Y3212490D01*
G37*
G36*
X-175412Y3339490D02*
G01*
X-175412Y3449726D01*
X45059Y3449726D01*
X45059Y3339490D01*
G37*
G36*
X-1413408Y2305456D02*
G01*
X-1413408Y2925724D01*
X-793140Y2925724D01*
X-793140Y2305456D01*
G37*
G36*
X-2770276Y-1603349D02*
G01*
X-2770276Y-1482953D01*
X-2639974Y-1482953D01*
X-2639974Y-1603349D01*
G37*
G36*
X-2770276Y-1463395D02*
G01*
X-2770276Y-1342999D01*
X-2639974Y-1342999D01*
X-2639974Y-1463395D01*
G37*
G36*
X-2315108Y-1390243D02*
G01*
X-2315108Y-1289913D01*
X-2194712Y-1289913D01*
X-2194712Y-1390243D01*
G37*
G36*
X-2315108Y-1580235D02*
G01*
X-2315108Y-1479905D01*
X-2194712Y-1479905D01*
X-2194712Y-1580235D01*
G37*
G36*
X-2555138Y-1580235D02*
G01*
X-2555138Y-1479905D01*
X-2434742Y-1479905D01*
X-2434742Y-1580235D01*
G37*
G36*
X-2555138Y-1475333D02*
G01*
X-2555138Y-1394815D01*
X-2434742Y-1394815D01*
X-2434742Y-1475333D01*
G37*
G36*
X-2555138Y-1390243D02*
G01*
X-2555138Y-1289913D01*
X-2434742Y-1289913D01*
X-2434742Y-1390243D01*
G37*
D55*
G01*
X666597Y-1418691D03*
D56*
G01*
X412597Y-1418691D03*
G01*
X666597Y-1164691D03*
G01*
X412597Y-1164691D03*
G01*
X666597Y-910691D03*
G01*
X412597Y-910691D03*
G01*
X666597Y-656691D03*
G01*
X412597Y-656691D03*
G01*
X666597Y-402691D03*
G01*
X412597Y-402691D03*
G01*
X666597Y-148691D03*
G01*
X412597Y-148691D03*
G01*
X666597Y105308D03*
G01*
X412597Y105308D03*
G01*
X666597Y359308D03*
G01*
X412597Y359308D03*
G01*
X666597Y613308D03*
G01*
X412597Y613308D03*
G01*
X666597Y867308D03*
G01*
X412597Y867308D03*
G01*
X666597Y1121308D03*
G01*
X412597Y1121308D03*
G01*
X666597Y1375308D03*
G01*
X412597Y1375308D03*
G01*
X666597Y1629308D03*
G01*
X412597Y1629308D03*
G01*
X666597Y1883308D03*
G01*
X412597Y1883308D03*
G01*
X666597Y2137308D03*
G01*
X412597Y2137308D03*
G01*
X666597Y2391308D03*
G01*
X412597Y2391308D03*
G01*
X666597Y2645308D03*
G01*
X412597Y2645308D03*
G01*
X666597Y2899308D03*
G01*
X412597Y2899308D03*
G01*
X666597Y3153308D03*
G01*
X412597Y3153308D03*
G01*
X666597Y3407308D03*
G01*
X412597Y3407308D03*
G01*
X25400Y72491D03*
G01*
X25400Y562508D03*
M02*
